<svg width="113" height="32" viewBox="0 0 113 32" fill="none" xmlns="http://www.w3.org/2000/svg">
<path d="M17.7297 0.216216C17.7297 0.0968033 17.8265 0 17.9459 0H25.2973C25.4167 0 25.5135 0.0968033 25.5135 0.216216V3.24324C25.5135 3.36266 25.4167 3.45946 25.2973 3.45946H17.9459C17.8265 3.45946 17.7297 3.36266 17.7297 3.24324V0.216216Z" fill="#FF8CEC"/>
<path d="M8.64865 6.05405C3.87213 6.05405 0 9.92619 0 14.7027V23.3514C0 28.1279 3.87213 32 8.64865 32H23.3514C28.1279 32 32 28.1279 32 23.3514V14.7027C32 9.92619 28.1279 6.05405 23.3514 6.05405H8.64865Z" fill="#FF8CEC"/>
<path d="M6.7027 0C6.58329 0 6.48649 0.0968033 6.48649 0.216216V3.24324C6.48649 3.36266 6.58329 3.45946 6.7027 3.45946H14.0541C14.1735 3.45946 14.2703 3.36266 14.2703 3.24324V0.216216C14.2703 0.0968033 14.1735 0 14.0541 0H6.7027Z" fill="#FF8CEC"/>
<path fill-rule="evenodd" clip-rule="evenodd" d="M18.2297 0.5V2.95946H25.0135V0.5H18.2297ZM8.64865 6.55405C4.14827 6.55405 0.5 10.2023 0.5 14.7027V23.3514C0.5 27.8517 4.14827 31.5 8.64865 31.5H23.3514C27.8517 31.5 31.5 27.8517 31.5 23.3514V14.7027C31.5 10.2023 27.8517 6.55405 23.3514 6.55405H8.64865ZM6.98649 0.5V2.95946H13.7703V0.5H6.98649ZM17.7297 0.216216C17.7297 0.0968033 17.8265 0 17.9459 0H25.2973C25.4167 0 25.5135 0.0968033 25.5135 0.216216V3.24324C25.5135 3.36266 25.4167 3.45946 25.2973 3.45946H17.9459C17.8265 3.45946 17.7297 3.36266 17.7297 3.24324V0.216216ZM8.64865 6.05405C3.87213 6.05405 0 9.92619 0 14.7027V23.3514C0 28.1279 3.87213 32 8.64865 32H23.3514C28.1279 32 32 28.1279 32 23.3514V14.7027C32 9.92619 28.1279 6.05405 23.3514 6.05405H8.64865ZM6.48649 0.216216C6.48649 0.0968033 6.58329 0 6.7027 0H14.0541C14.1735 0 14.2703 0.0968033 14.2703 0.216216V3.24324C14.2703 3.36266 14.1735 3.45946 14.0541 3.45946H6.7027C6.58329 3.45946 6.48649 3.36266 6.48649 3.24324V0.216216Z" fill="#151526"/>
<path fill-rule="evenodd" clip-rule="evenodd" d="M43.3262 21.8862H49.0897L49.7435 24.8648H53.0854L49.3803 8.39777H43.0356L39.3306 24.8648H42.6724L43.3262 21.8862ZM45.6268 11.1584H46.7892L48.4601 18.9803H43.9559L45.6268 11.1584ZM58.136 8.39777H54.7941V24.8648H58.136V8.39777ZM65.1861 25.1554C64.1206 25.1554 62.821 25.0101 61.2873 24.7195L60.5124 24.5742L60.6092 21.862C62.5627 22.1203 63.9834 22.2494 64.8713 22.2494C65.4686 22.2494 65.9368 22.1849 66.2758 22.0557C66.631 21.9266 66.8086 21.6844 66.8086 21.3292C66.8086 21.0063 66.6391 20.7723 66.3001 20.627C65.9772 20.4817 65.4283 20.3444 64.6534 20.2153C64.3628 20.183 64.161 20.1507 64.0479 20.1184C63.2407 19.9731 62.5788 19.7955 62.0622 19.5857C61.5456 19.3596 61.1259 19.0125 60.803 18.5444C60.4801 18.06 60.3186 17.3901 60.3186 16.5344C60.3186 15.1622 60.7384 14.1451 61.5779 13.4832C62.4174 12.8213 63.5717 12.4903 65.0408 12.4903C65.9126 12.4903 67.1961 12.6437 68.8912 12.9504L69.6903 13.0957L69.6419 15.7837C67.6884 15.5254 66.2435 15.3963 65.3072 15.3963C64.7583 15.3963 64.3224 15.4528 63.9995 15.5658C63.6928 15.6788 63.5394 15.8967 63.5394 16.2196C63.5394 16.5586 63.7008 16.8008 64.0237 16.9461C64.3466 17.0752 64.8713 17.2044 65.5978 17.3335L66.4454 17.4788C67.7369 17.7372 68.6571 18.1246 69.206 18.6412C69.7549 19.1417 70.0294 19.957 70.0294 21.0871C70.0294 22.4755 69.6338 23.5006 68.8428 24.1625C68.0517 24.8244 66.8328 25.1554 65.1861 25.1554ZM74.1626 12.7567H70.966L73.2666 24.8648H78.352L79.7323 17.4546L81.1126 24.8648H86.198L88.4986 12.7567H85.302L83.8248 22.1041H83.2436L81.4032 12.9988H78.0614L76.2209 22.1041H75.6398L74.1626 12.7567ZM93.0624 25.1554C90.56 25.1554 89.3089 23.8316 89.3089 21.1839C89.3089 19.9247 89.6398 19.0206 90.3017 18.4717C90.9798 17.9067 92.0614 17.5757 93.5467 17.4788L96.1378 17.2851V16.5344C96.1378 16.0501 96.0248 15.7111 95.7988 15.5173C95.5889 15.3236 95.2257 15.2267 94.7091 15.2267C94.1763 15.2267 93.4418 15.251 92.5054 15.2994C91.569 15.3317 90.786 15.372 90.1564 15.4205L90.0596 13.1684C91.8031 12.7002 93.4498 12.4661 94.9997 12.4661C96.5495 12.4661 97.6635 12.789 98.3415 13.4347C99.0357 14.0805 99.3828 15.1137 99.3828 16.5344V21.5714C99.4151 21.975 99.4797 22.2494 99.5765 22.3947C99.6896 22.54 99.8913 22.645 100.182 22.7096L100.085 25.1554C99.2456 25.1554 98.5756 25.0989 98.0751 24.9859C97.5908 24.8729 97.1065 24.6468 96.6222 24.3078C95.4436 24.8729 94.257 25.1554 93.0624 25.1554ZM93.7646 22.5158C94.3781 22.5158 95.0481 22.419 95.7746 22.2252L96.1378 22.1284V19.5372L93.9342 19.731C93.0301 19.8117 92.578 20.296 92.578 21.1839C92.578 22.0719 92.9736 22.5158 93.7646 22.5158ZM105.213 12.7567H101.992V29.9502H105.237V24.9617C105.963 25.0908 106.65 25.1554 107.295 25.1554C108.603 25.1554 109.652 24.9536 110.443 24.55C111.234 24.1464 111.816 23.4925 112.187 22.5885C112.558 21.6844 112.744 20.4574 112.744 18.9076C112.744 16.6636 112.365 15.033 111.606 14.0159C110.863 12.9827 109.717 12.4661 108.167 12.4661C107.683 12.4661 107.223 12.5307 106.787 12.6598C106.367 12.789 105.842 13.0392 105.213 13.4105V12.7567ZM108.894 21.5714C108.522 22.088 107.885 22.3463 106.98 22.3463C106.545 22.3463 105.963 22.2979 105.237 22.201V15.8564L105.527 15.7353C106.125 15.4931 106.706 15.372 107.271 15.372C108.046 15.372 108.603 15.6546 108.942 16.2196C109.281 16.7846 109.451 17.6806 109.451 18.9076C109.451 20.1507 109.265 21.0386 108.894 21.5714ZM23.3514 9.51345H8.64866C5.78275 9.51345 3.45947 11.8367 3.45947 14.7026V23.3513C3.45947 26.2172 5.78275 28.5405 8.64866 28.5405H23.3514C26.2173 28.5405 28.5406 26.2172 28.5406 23.3513V14.7026C28.5406 11.8367 26.2173 9.51345 23.3514 9.51345Z" fill="#232340"/>
<path d="M9.29727 14.2703C9.17786 14.2703 9.08105 14.3671 9.08105 14.4865V21.8379C9.08105 21.9573 9.17786 22.0541 9.29727 22.0541H12.3243C12.4437 22.0541 12.5405 21.9573 12.5405 21.8379V14.4865C12.5405 14.3671 12.4437 14.2703 12.3243 14.2703H9.29727Z" fill="#00FFD4"/>
<path d="M19.6756 14.2703C19.5562 14.2703 19.4594 14.3671 19.4594 14.4865V21.8379C19.4594 21.9573 19.5562 22.0541 19.6756 22.0541H22.7027C22.8221 22.0541 22.9189 21.9573 22.9189 21.8379V14.4865C22.9189 14.3671 22.8221 14.2703 22.7027 14.2703H19.6756Z" fill="#00FFD4"/>
</svg>
