<svg width="20" height="20" viewBox="0 0 20 20" fill="none" xmlns="http://www.w3.org/2000/svg">
<path d="M11.0811 0.135135C11.0811 0.0605021 11.1416 0 11.2162 0H15.8108C15.8854 0 15.9459 0.0605021 15.9459 0.135135V2.02703C15.9459 2.10166 15.8854 2.16216 15.8108 2.16216H11.2162C11.1416 2.16216 11.0811 2.10166 11.0811 2.02703V0.135135Z" fill="#FF8CEC"/>
<path d="M5.40541 3.78378C2.42008 3.78378 0 6.20387 0 9.18919V14.5946C0 17.5799 2.42008 20 5.40541 20H14.5946C17.5799 20 20 17.5799 20 14.5946V9.18919C20 6.20387 17.5799 3.78378 14.5946 3.78378H5.40541Z" fill="#FF8CEC"/>
<path d="M4.18919 0C4.11456 0 4.05405 0.0605021 4.05405 0.135135V2.02703C4.05405 2.10166 4.11456 2.16216 4.18919 2.16216H8.78378C8.85842 2.16216 8.91892 2.10166 8.91892 2.02703V0.135135C8.91892 0.0605021 8.85842 0 8.78378 0H4.18919Z" fill="#FF8CEC"/>
<path fill-rule="evenodd" clip-rule="evenodd" d="M11.3311 0.25V1.91216H15.6959V0.25H11.3311ZM5.40541 4.03378C2.55815 4.03378 0.25 6.34194 0.25 9.18919V14.5946C0.25 17.4418 2.55815 19.75 5.40541 19.75H14.5946C17.4418 19.75 19.75 17.4418 19.75 14.5946V9.18919C19.75 6.34194 17.4418 4.03378 14.5946 4.03378H5.40541ZM4.30405 0.25V1.91216H8.66892V0.25H4.30405ZM11.0811 0.135135C11.0811 0.0605021 11.1416 0 11.2162 0H15.8108C15.8854 0 15.9459 0.0605021 15.9459 0.135135V2.02703C15.9459 2.10166 15.8854 2.16216 15.8108 2.16216H11.2162C11.1416 2.16216 11.0811 2.10166 11.0811 2.02703V0.135135ZM5.40541 3.78378C2.42008 3.78378 0 6.20387 0 9.18919V14.5946C0 17.5799 2.42008 20 5.40541 20H14.5946C17.5799 20 20 17.5799 20 14.5946V9.18919C20 6.20387 17.5799 3.78378 14.5946 3.78378H5.40541ZM4.05405 0.135135C4.05405 0.0605021 4.11456 0 4.18919 0H8.78378C8.85842 0 8.91892 0.0605021 8.91892 0.135135V2.02703C8.91892 2.10166 8.85842 2.16216 8.78378 2.16216H4.18919C4.11456 2.16216 4.05405 2.10166 4.05405 2.02703V0.135135Z" fill="#151526"/>
<path d="M5.40541 5.94592H14.5946C16.3858 5.94592 17.8378 7.39797 17.8378 9.18917V14.5946C17.8378 16.3858 16.3858 17.8378 14.5946 17.8378H5.40541C3.61422 17.8378 2.16217 16.3858 2.16217 14.5946V9.18917C2.16217 7.39797 3.61422 5.94592 5.40541 5.94592Z" fill="#232340"/>
<path d="M5.81079 8.91895C5.73616 8.91895 5.67566 8.97945 5.67566 9.05408V13.6487C5.67566 13.7233 5.73616 13.7838 5.81079 13.7838H7.70269C7.77732 13.7838 7.83782 13.7233 7.83782 13.6487V9.05408C7.83782 8.97945 7.77732 8.91895 7.70269 8.91895H5.81079Z" fill="#00FFD4"/>
<path d="M12.2973 8.91895C12.2226 8.91895 12.1621 8.97945 12.1621 9.05408V13.6487C12.1621 13.7233 12.2226 13.7838 12.2973 13.7838H14.1892C14.2638 13.7838 14.3243 13.7233 14.3243 13.6487V9.05408C14.3243 8.97945 14.2638 8.91895 14.1892 8.91895H12.2973Z" fill="#00FFD4"/>
</svg>
