<svg width="84" height="24" viewBox="0 0 84 24" fill="none" xmlns="http://www.w3.org/2000/svg">
<path d="M13.1796 0.162162C13.1796 0.0726025 13.2516 0 13.3403 0H18.8051C18.8938 0 18.9658 0.0726025 18.9658 0.162162V2.43243C18.9658 2.52199 18.8938 2.59459 18.8051 2.59459H13.3403C13.2516 2.59459 13.1796 2.52199 13.1796 2.43243V0.162162Z" fill="#FF8CEC"/>
<path d="M6.42908 4.54054C2.8784 4.54054 0 7.44464 0 11.027V17.5135C0 21.0959 2.8784 24 6.42908 24H17.3585C20.9092 24 23.7876 21.0959 23.7876 17.5135V11.027C23.7876 7.44464 20.9092 4.54054 17.3585 4.54054H6.42908Z" fill="#FF8CEC"/>
<path d="M4.98254 0C4.89377 0 4.82181 0.0726025 4.82181 0.162162V2.43243C4.82181 2.52199 4.89377 2.59459 4.98254 2.59459H10.4473C10.536 2.59459 10.608 2.52199 10.608 2.43243V0.162162C10.608 0.0726025 10.536 0 10.4473 0H4.98254Z" fill="#FF8CEC"/>
<path fill-rule="evenodd" clip-rule="evenodd" d="M13.5513 0.375V2.21959H18.5941V0.375H13.5513ZM6.42908 4.91554C3.08367 4.91554 0.371681 7.65175 0.371681 11.027V17.5135C0.371681 20.8888 3.08367 23.625 6.42908 23.625H17.3585C20.7039 23.625 23.4159 20.8888 23.4159 17.5135V11.027C23.4159 7.65175 20.7039 4.91554 17.3585 4.91554H6.42908ZM5.19349 0.375V2.21959H10.2363V0.375H5.19349ZM13.1796 0.162162C13.1796 0.0726025 13.2516 0 13.3403 0H18.8051C18.8938 0 18.9658 0.0726025 18.9658 0.162162V2.43243C18.9658 2.52199 18.8938 2.59459 18.8051 2.59459H13.3403C13.2516 2.59459 13.1796 2.52199 13.1796 2.43243V0.162162ZM6.42908 4.54054C2.8784 4.54054 0 7.44464 0 11.027V17.5135C0 21.0959 2.8784 24 6.42908 24H17.3585C20.9092 24 23.7876 21.0959 23.7876 17.5135V11.027C23.7876 7.44464 20.9092 4.54054 17.3585 4.54054H6.42908ZM4.82181 0.162162C4.82181 0.0726025 4.89377 0 4.98254 0H10.4473C10.536 0 10.608 0.0726025 10.608 0.162162V2.43243C10.608 2.52199 10.536 2.59459 10.4473 2.59459H4.98254C4.89377 2.59459 4.82181 2.52199 4.82181 2.43243V0.162162Z" fill="#151526"/>
<path d="M6.42911 7.13513H17.3586C19.489 7.13513 21.216 8.87759 21.216 11.027V17.5135C21.216 19.6629 19.489 21.4054 17.3586 21.4054H6.42911C4.2987 21.4054 2.57166 19.6629 2.57166 17.5135V11.027C2.57166 8.87759 4.29869 7.13513 6.42911 7.13513Z" fill="#232340"/>
<path d="M36.4915 16.4147H32.2072L31.7211 18.6486H29.2369L31.9912 6.29834H36.7075L39.4618 18.6486H36.9776L36.4915 16.4147ZM34.7814 8.36883H33.9173L32.6752 14.2352H36.0235L34.7814 8.36883Z" fill="white"/>
<path d="M40.732 6.29834H43.2162V18.6486H40.732V6.29834Z" fill="white"/>
<path d="M48.457 18.8666C47.6649 18.8666 46.6988 18.7576 45.5588 18.5396L44.9827 18.4307L45.0547 16.3965C46.5068 16.5902 47.5629 16.6871 48.223 16.6871C48.667 16.6871 49.015 16.6387 49.267 16.5418C49.5311 16.4449 49.6631 16.2633 49.6631 15.9969C49.6631 15.7548 49.5371 15.5792 49.2851 15.4702C49.045 15.3613 48.637 15.2583 48.061 15.1615C47.8449 15.1373 47.6949 15.113 47.6109 15.0888C47.0109 14.9799 46.5188 14.8467 46.1348 14.6893C45.7508 14.5197 45.4387 14.2594 45.1987 13.9083C44.9587 13.545 44.8387 13.0426 44.8387 12.4008C44.8387 11.3716 45.1507 10.6088 45.7748 10.1124C46.3988 9.61596 47.2569 9.36774 48.349 9.36774C48.997 9.36774 49.9511 9.48277 51.2112 9.71283L51.8053 9.8218L51.7692 11.8378C50.3171 11.6441 49.243 11.5472 48.547 11.5472C48.139 11.5472 47.8149 11.5896 47.5749 11.6743C47.3469 11.7591 47.2329 11.9226 47.2329 12.1647C47.2329 12.419 47.3529 12.6006 47.5929 12.7096C47.8329 12.8064 48.223 12.9033 48.763 13.0002L49.3931 13.1092C50.3531 13.3029 51.0372 13.5935 51.4452 13.9809C51.8533 14.3563 52.0573 14.9677 52.0573 15.8153C52.0573 16.8566 51.7632 17.6255 51.1752 18.1219C50.5872 18.6183 49.6811 18.8666 48.457 18.8666Z" fill="white"/>
<path d="M52.7536 9.56753H55.1298L56.2278 16.5781H56.6599L58.028 9.74915H60.5122L61.8803 16.5781H62.3123L63.4104 9.56753H65.7866L64.0765 18.6486H60.2962L59.2701 13.091L58.244 18.6486H54.4637L52.7536 9.56753Z" fill="white"/>
<path d="M69.1792 18.8666C67.319 18.8666 66.3889 17.8737 66.3889 15.888C66.3889 14.9435 66.635 14.2655 67.127 13.8538C67.631 13.43 68.4351 13.1818 69.5392 13.1092L71.4654 12.9639V12.4008C71.4654 12.0376 71.3813 11.7833 71.2133 11.638C71.0573 11.4927 70.7873 11.4201 70.4033 11.4201C70.0072 11.4201 69.4612 11.4382 68.7651 11.4746C68.0691 11.4988 67.487 11.529 67.019 11.5654L66.947 9.87629C68.2431 9.52515 69.4672 9.34958 70.6193 9.34958C71.7714 9.34958 72.5994 9.59175 73.1035 10.0761C73.6195 10.5604 73.8775 11.3353 73.8775 12.4008V16.1786C73.9015 16.4813 73.9496 16.6871 74.0216 16.7961C74.1056 16.905 74.2556 16.9837 74.4716 17.0322L74.3996 18.8666C73.7755 18.8666 73.2775 18.8242 72.9055 18.7394C72.5454 18.6547 72.1854 18.4852 71.8254 18.2309C70.9493 18.6547 70.0672 18.8666 69.1792 18.8666ZM69.7012 16.8869C70.1572 16.8869 70.6553 16.8142 71.1953 16.6689L71.4654 16.5963V14.6529L69.8272 14.7982C69.1552 14.8588 68.8191 15.222 68.8191 15.888C68.8191 16.5539 69.1132 16.8869 69.7012 16.8869Z" fill="white"/>
<path d="M75.8171 9.56753H78.2112V10.0579C78.6793 9.77942 79.0693 9.59174 79.3813 9.49488C79.7054 9.39802 80.0474 9.34958 80.4074 9.34958C81.5595 9.34958 82.4116 9.73704 82.9636 10.512C83.5277 11.2748 83.8097 12.4977 83.8097 14.1807C83.8097 15.3431 83.6717 16.2633 83.3957 16.9414C83.1196 17.6194 82.6876 18.1098 82.0996 18.4125C81.5115 18.7152 80.7315 18.8666 79.7594 18.8666C79.2793 18.8666 78.7693 18.8181 78.2292 18.7213V22.4627H75.8171V9.56753ZM79.5254 16.7597C80.1974 16.7597 80.6714 16.566 80.9475 16.1786C81.2235 15.779 81.3615 15.113 81.3615 14.1807C81.3615 13.2605 81.2355 12.5885 80.9835 12.1647C80.7315 11.7409 80.3174 11.529 79.7414 11.529C79.3213 11.529 78.8893 11.6199 78.4453 11.8015L78.2292 11.8923V16.6508C78.7693 16.7234 79.2013 16.7597 79.5254 16.7597Z" fill="white"/>
<path d="M6.91122 10.7028C6.82245 10.7028 6.75049 10.7754 6.75049 10.8649V16.3784C6.75049 16.468 6.82245 16.5406 6.91122 16.5406H9.16139C9.25016 16.5406 9.32212 16.468 9.32212 16.3784V10.8649C9.32212 10.7754 9.25016 10.7028 9.16139 10.7028H6.91122Z" fill="#00FFD4"/>
<path d="M14.6261 10.7028C14.5373 10.7028 14.4654 10.7754 14.4654 10.8649V16.3784C14.4654 16.468 14.5373 16.5406 14.6261 16.5406H16.8763C16.9651 16.5406 17.037 16.468 17.037 16.3784V10.8649C17.037 10.7754 16.9651 10.7028 16.8763 10.7028H14.6261Z" fill="#00FFD4"/>
</svg>
