<svg width="64" height="64" viewBox="0 0 64 64" fill="none" xmlns="http://www.w3.org/2000/svg">
<path d="M35.4595 0.432432C35.4595 0.193607 35.6531 0 35.8919 0L50.5946 0C50.8334 0 51.027 0.193607 51.027 0.432432V6.48649C51.027 6.72531 50.8334 6.91892 50.5946 6.91892L35.8919 6.91892C35.6531 6.91892 35.4595 6.72531 35.4595 6.48649V0.432432Z" fill="white"/>
<path d="M17.2973 12.1081C7.74426 12.1081 0 19.8524 0 29.4054L0 46.7027C0 56.2557 7.74426 64 17.2973 64L46.7027 64C56.2557 64 64 56.2557 64 46.7027V29.4054C64 19.8524 56.2557 12.1081 46.7027 12.1081L17.2973 12.1081Z" fill="white"/>
<path d="M13.4054 0C13.1666 0 12.973 0.193607 12.973 0.432432L12.973 6.48649C12.973 6.72531 13.1666 6.91892 13.4054 6.91892L28.1081 6.91892C28.3469 6.91892 28.5405 6.72531 28.5405 6.48649V0.432432C28.5405 0.193607 28.3469 0 28.1081 0L13.4054 0Z" fill="white"/>
<path fill-rule="evenodd" clip-rule="evenodd" d="M36.2595 0.8V6.11892L50.227 6.11892V0.8L36.2595 0.8ZM17.2973 12.9081C8.18609 12.9081 0.8 20.2942 0.8 29.4054L0.8 46.7027C0.8 55.8139 8.18609 63.2 17.2973 63.2L46.7027 63.2C55.8139 63.2 63.2 55.8139 63.2 46.7027V29.4054C63.2 20.2942 55.8139 12.9081 46.7027 12.9081L17.2973 12.9081ZM13.773 0.8L13.773 6.11892L27.7405 6.11892V0.8L13.773 0.8ZM35.4595 0.432432C35.4595 0.193607 35.6531 0 35.8919 0L50.5946 0C50.8334 0 51.027 0.193607 51.027 0.432432V6.48649C51.027 6.72531 50.8334 6.91892 50.5946 6.91892L35.8919 6.91892C35.6531 6.91892 35.4595 6.72531 35.4595 6.48649V0.432432ZM17.2973 12.1081C7.74426 12.1081 0 19.8524 0 29.4054L0 46.7027C0 56.2557 7.74427 64 17.2973 64L46.7027 64C56.2557 64 64 56.2557 64 46.7027V29.4054C64 19.8524 56.2557 12.1081 46.7027 12.1081L17.2973 12.1081ZM12.973 0.432432C12.973 0.193607 13.1666 0 13.4054 0L28.1081 0C28.3469 0 28.5405 0.193607 28.5405 0.432432V6.48649C28.5405 6.72531 28.3469 6.91892 28.1081 6.91892L13.4054 6.91892C13.1666 6.91892 12.973 6.72531 12.973 6.48649L12.973 0.432432Z" fill="#151526"/>
<path d="M17.2973 19.027L46.7027 19.027C52.4346 19.027 57.0811 23.6735 57.0811 29.4054L57.0811 46.7027C57.0811 52.4345 52.4346 57.081 46.7027 57.081L17.2973 57.081C11.5655 57.081 6.91895 52.4345 6.91895 46.7027L6.91895 29.4054C6.91895 23.6735 11.5655 19.027 17.2973 19.027Z" fill="#00FFD4"/>
<path d="M18.5945 28.5406C18.3557 28.5406 18.1621 28.7343 18.1621 28.9731L18.1621 43.6758C18.1621 43.9146 18.3557 44.1082 18.5945 44.1082H24.6486C24.8874 44.1082 25.081 43.9146 25.081 43.6758L25.081 28.9731C25.081 28.7343 24.8874 28.5406 24.6486 28.5406H18.5945Z" fill="#00BFA0"/>
<path d="M39.3513 28.5406C39.1125 28.5406 38.9189 28.7343 38.9189 28.9731V43.6758C38.9189 43.9146 39.1125 44.1082 39.3513 44.1082H45.4054C45.6442 44.1082 45.8378 43.9146 45.8378 43.6758V28.9731C45.8378 28.7343 45.6442 28.5406 45.4054 28.5406H39.3513Z" fill="#00BFA0"/>
</svg>
