<svg width="20" height="20" viewBox="0 0 20 20" fill="none" xmlns="http://www.w3.org/2000/svg">
<path fill-rule="evenodd" clip-rule="evenodd" d="M19.6393 7.34948C21.1043 12.6725 17.9744 18.1756 12.6496 19.6396C7.32484 21.1036 1.82307 17.9756 0.360133 12.6515C-1.10281 7.32748 2.02306 1.82444 7.34784 0.360424C12.6726 -1.10359 18.1744 2.02444 19.6393 7.34948Z" fill="#3FD1D1"/>
<path fill-rule="evenodd" clip-rule="evenodd" d="M9.84055 4.03551C10.1239 3.88792 10.4697 4.23031 10.3189 4.51311C10.2315 4.7436 9.90004 4.80489 9.73072 4.62921C9.55153 4.46054 9.61003 4.12724 9.84055 4.03551ZM13.3966 4.63565C13.3673 4.44548 13.183 4.26195 12.9822 4.35982C12.7467 4.43741 12.7605 4.79358 12.967 4.88209L13.0347 4.90007C13.2184 4.94677 13.3545 4.79804 13.3966 4.63565ZM6.79295 4.36365C6.96507 4.29284 7.18295 4.4504 7.16537 4.63782C7.18362 4.84125 6.93465 4.99106 6.7592 4.89434C6.52676 4.80442 6.55333 4.42744 6.79295 4.36365ZM11.8791 5.85223C12.0076 5.52205 12.5278 5.51166 12.6739 5.83373C12.8183 6.08412 12.6407 6.39419 12.3834 6.47928C12.0425 6.54286 11.7188 6.17477 11.8791 5.85223ZM10.0001 5.94534C9.72976 5.96467 9.47074 6.17635 9.47355 6.46045C9.45816 6.69265 9.6242 6.88226 9.82133 6.97893L9.97931 6.98955C10.0589 6.992 10.1377 6.98499 10.2087 6.94522C10.4677 6.83078 10.5949 6.48762 10.4516 6.23827C10.3747 6.05755 10.1793 5.98124 10.0001 5.94534ZM14.6735 6.87383C14.8965 6.70085 15.2646 6.89929 15.238 7.18032C15.253 7.43684 14.9348 7.63023 14.7133 7.49819C14.4695 7.38873 14.4447 7.01399 14.6735 6.87383ZM5.45935 7.29277C5.55888 7.00753 5.20424 6.71289 4.94138 6.87434C4.71221 6.9799 4.67992 7.3348 4.88272 7.48238C5.07252 7.63988 5.40454 7.53952 5.45935 7.29277ZM10.748 7.38423C11.116 7.25218 11.5532 7.4102 11.763 7.73799C12.0397 8.13871 11.8924 8.74893 11.463 8.97885C11.0181 9.25079 10.3684 9.02041 10.2041 8.52395C10.0175 8.07959 10.2893 7.5235 10.748 7.38423ZM9.74258 7.81407C9.54555 7.39709 8.99664 7.23606 8.58875 7.42826C8.15403 7.62223 7.95404 8.19433 8.17946 8.61551C8.38012 9.0513 8.96565 9.22963 9.38066 8.99415C9.79515 8.7847 9.97445 8.21978 9.74258 7.81407ZM11.8056 9.15582C12.173 9.05084 12.6047 9.19219 12.8022 9.52673C13.0634 9.90921 12.9387 10.4796 12.5499 10.7262C12.1426 11.0125 11.5117 10.8621 11.2876 10.4145C11.0159 9.95145 11.2893 9.29707 11.8056 9.15582ZM8.70556 9.57893C8.52018 9.23187 8.08801 9.0539 7.71002 9.1578C7.19756 9.28153 6.8971 9.91165 7.14447 10.3818C7.35975 10.8948 8.10574 11.0457 8.51025 10.6698C8.82563 10.4136 8.90836 9.92827 8.70556 9.57893ZM10.824 10.9287C11.3486 10.7822 11.9208 11.2204 11.9125 11.7644C11.9402 12.2918 11.41 12.7522 10.892 12.6475C10.4045 12.5846 10.0448 12.0495 10.1809 11.5769C10.2496 11.262 10.5129 11.0059 10.824 10.9287ZM9.85278 11.7577C9.84972 11.2613 9.36551 10.8533 8.88072 10.9103L8.777 10.9297C8.39074 11.0133 8.09247 11.3803 8.09356 11.7751C8.0803 12.188 8.4012 12.5815 8.81018 12.6473C9.33928 12.7714 9.88653 12.295 9.85278 11.7577ZM14.5338 12.8935C14.4701 12.6682 14.6836 12.4086 14.924 12.4487C15.0477 12.4466 15.1361 12.5386 15.2161 12.6218L15.2295 12.6357L15.2325 12.6598C15.2495 12.7943 15.2689 12.9483 15.1593 13.0502C15.0015 13.2498 14.644 13.1928 14.5582 12.9539L14.5338 12.8935ZM5.4833 12.8809C5.53842 12.5946 5.1856 12.3514 4.94042 12.5145C4.70689 12.6336 4.69857 13.005 4.9243 13.1355C5.1349 13.2789 5.45398 13.1342 5.4833 12.8809ZM10.4837 13.5357L10.4816 13.612C10.4409 13.9597 9.98077 14.1806 9.68806 13.9617C9.33966 13.7604 9.39759 13.1684 9.78421 13.0448C10.1052 12.9033 10.5141 13.1825 10.4837 13.5357ZM12.739 13.9747C12.7656 13.6479 12.366 13.3986 12.0849 13.5721C11.8104 13.712 11.7794 14.1349 12.0329 14.3108C12.2946 14.5352 12.7462 14.3163 12.739 13.9747ZM7.54042 13.5674C7.81379 13.4237 8.1807 13.6719 8.15579 13.9778C8.16411 14.2288 7.91893 14.4427 7.67099 14.4056C7.46564 14.4012 7.33174 14.2173 7.26591 14.0424C7.26929 13.8518 7.34781 13.6396 7.54042 13.5674ZM13.1005 15.064C12.8974 15.107 12.7505 15.3348 12.8753 15.5238C13.0036 15.7433 13.3783 15.6648 13.4021 15.4089C13.4364 15.2198 13.2638 15.0972 13.1005 15.064ZM6.60201 15.3596C6.65183 15.2098 6.77247 15.0609 6.94901 15.0999C7.20636 15.1181 7.28275 15.5056 7.05748 15.625C6.85494 15.7614 6.61995 15.5746 6.60201 15.3596ZM9.6284 15.5315C9.6777 15.3099 9.96484 15.2021 10.1541 15.3198C10.2778 15.373 10.315 15.5107 10.3469 15.6288L10.3478 15.6321L10.3002 15.8178C10.2228 15.9095 10.1234 16.0013 9.99422 15.998C9.75456 16.026 9.53839 15.7554 9.6284 15.5315ZM6.95448 11.2496L6.87721 11.2559C6.48481 11.2957 6.27785 11.8219 6.55507 12.1097C6.79141 12.4094 7.32597 12.3099 7.43335 11.943C7.57005 11.6233 7.28635 11.2516 6.95448 11.2496ZM12.8802 11.2726C13.2039 11.1372 13.6013 11.4169 13.5764 11.7679C13.5894 12.1543 13.0988 12.4207 12.7823 12.1952C12.4235 11.9926 12.489 11.3969 12.8802 11.2726ZM5.83505 10.1521C5.96734 9.82871 5.60542 9.46877 5.27891 9.59215C4.96582 9.68061 4.87279 10.1344 5.124 10.3384C5.33871 10.5557 5.7543 10.4466 5.83505 10.1521ZM14.1288 10.0614C14.1194 9.7913 14.3173 9.55183 14.5948 9.53676C14.8184 9.57214 15.0358 9.75234 15.0181 9.99551C15.0386 10.3167 14.6512 10.535 14.3773 10.3841C14.2489 10.3189 14.183 10.1873 14.1288 10.0614ZM4.06814 10.0529C4.11296 9.83499 3.86996 9.66491 3.67356 9.75057C3.51142 9.82465 3.4406 10.0454 3.559 10.1883C3.69295 10.3945 4.05774 10.2997 4.06814 10.0529ZM16.0589 9.74534C16.1972 9.64695 16.4192 9.71765 16.4739 9.8791C16.5669 10.0554 16.3964 10.297 16.1978 10.2671C15.9189 10.2925 15.8286 9.86799 16.0589 9.74534ZM6.9557 7.71561C6.70558 7.73332 6.45785 7.90412 6.42665 8.16666C6.36654 8.4759 6.6425 8.78868 6.95731 8.76161C7.24342 8.76328 7.4521 8.49959 7.46978 8.22988C7.4405 7.95716 7.22522 7.74807 6.9557 7.71561ZM12.8128 7.77292C13.1359 7.58498 13.5847 7.85858 13.5703 8.22949C13.5925 8.62247 13.0958 8.8996 12.774 8.66891C12.4397 8.47696 12.4658 7.93645 12.8128 7.77292ZM8.14038 6.08203C8.18463 5.74811 7.77404 5.47736 7.48627 5.65918C7.2168 5.79679 7.17988 6.20753 7.42428 6.38654C7.67716 6.61449 8.12545 6.41917 8.14038 6.08203Z" fill="white"/>
</svg>
