<svg width="20" height="20" viewBox="0 0 20 20" fill="none" xmlns="http://www.w3.org/2000/svg">
<path d="M15.32 1.20999C14.32 1.18999 11.17 1.30999 9.99 5.68999C9.99 5.68999 9.10999 1.10999 4.89 1.20999C0.669995 1.30999 -0.410004 5.45999 0.139996 7.35999C0.689996 9.25999 1.42 12.66 9.99 18.99C9.99 18.99 19.99 11.74 19.99 6.90999C19.99 2.07999 16.32 1.23999 15.32 1.20999Z" fill="#00FFD4"/>
<path fill-rule="evenodd" clip-rule="evenodd" d="M9.99 18.99C9.99 18.99 19.99 11.74 19.99 6.90999C19.99 2.07999 16.32 1.23999 15.32 1.20999C14.3569 1.19073 11.3993 1.30133 10.1283 5.22274C10.0797 5.37284 10.0335 5.52852 9.99 5.68999C9.99 5.68999 9.95528 5.50932 9.86658 5.22054C9.50869 4.05532 8.27186 1.12985 4.89 1.20999C0.669995 1.30999 -0.410004 5.45999 0.139996 7.35999C0.158768 7.42484 0.177751 7.49144 0.197247 7.55984C0.748962 9.4955 1.71251 12.876 9.99 18.99ZM9.74449 5.73716L9.74417 5.73558L9.74254 5.72755C9.74099 5.72009 9.73853 5.70848 9.73508 5.69299C9.72817 5.66202 9.7173 5.61558 9.70189 5.55592C9.67105 5.43654 9.62209 5.26458 9.55037 5.05788C9.40664 4.64361 9.17304 4.09441 8.81385 3.55021C8.09838 2.46623 6.89518 1.41254 4.89592 1.45992C2.88252 1.50763 1.63367 2.51434 0.943811 3.73313C0.244731 4.96822 0.125725 6.4116 0.380137 7.29047C0.398969 7.35553 0.417976 7.42222 0.437466 7.4906C0.701466 8.41682 1.05409 9.65398 2.26193 11.3698C3.54876 13.1979 5.81322 15.5775 9.99033 18.6791C10.0604 18.6271 10.154 18.5569 10.2685 18.4699C10.5403 18.2635 10.929 17.9629 11.3957 17.587C12.3294 16.8349 13.5733 15.7828 14.8163 14.5815C16.0603 13.3791 17.2974 12.033 18.2217 10.6932C19.151 9.34625 19.74 8.0398 19.74 6.90999C19.74 4.56802 18.8549 3.22455 17.8757 2.45671C16.8844 1.67934 15.7727 1.47399 15.3137 1.45991C14.8289 1.4503 13.8441 1.47596 12.8417 2.01974C11.8476 2.55901 10.8053 3.62467 10.2314 5.75502C10.2011 5.86746 10.0972 5.94409 9.98083 5.93982C9.86452 5.93555 9.76655 5.85159 9.74452 5.73732C9.74452 5.73731 9.74451 5.7373 9.74451 5.73729L9.74449 5.73719L9.74449 5.73716Z" fill="#151526"/>
<path fill-rule="evenodd" clip-rule="evenodd" d="M2.95701 7.8826C3.02183 7.85885 3.09363 7.89216 3.11737 7.95698C3.13399 8.00233 3.15074 8.04877 3.1679 8.09635C3.33513 8.55989 3.54131 9.1314 4.03583 9.85902C4.5819 10.6625 5.48291 11.6605 7.07679 12.9013C7.13126 12.9437 7.14104 13.0223 7.09863 13.0768C7.05622 13.1312 6.97768 13.141 6.92321 13.0986C5.3144 11.8461 4.39334 10.8298 3.82906 9.99954C3.31637 9.24518 3.10095 8.64775 2.93293 8.18176C2.91575 8.13413 2.89908 8.08787 2.88263 8.04297C2.85888 7.97814 2.89218 7.90634 2.95701 7.8826Z" fill="#151526"/>
</svg>
