<svg width="208" height="48" viewBox="0 0 208 48" fill="none" xmlns="http://www.w3.org/2000/svg">
<path d="M35.0811 0.135135C35.0811 0.0605021 35.1416 0 35.2162 0H39.8108C39.8854 0 39.9459 0.0605021 39.9459 0.135135V2.02703C39.9459 2.10166 39.8854 2.16216 39.8108 2.16216H35.2162C35.1416 2.16216 35.0811 2.10166 35.0811 2.02703V0.135135Z" fill="#FF8CEC"/>
<path d="M29.4054 3.78378C26.4201 3.78378 24 6.20387 24 9.18919V14.5946C24 17.5799 26.4201 20 29.4054 20H38.5946C41.5799 20 44 17.5799 44 14.5946V9.18919C44 6.20387 41.5799 3.78378 38.5946 3.78378H29.4054Z" fill="#FF8CEC"/>
<path d="M28.1892 0C28.1146 0 28.0541 0.0605021 28.0541 0.135135V2.02703C28.0541 2.10166 28.1146 2.16216 28.1892 2.16216H32.7838C32.8584 2.16216 32.9189 2.10166 32.9189 2.02703V0.135135C32.9189 0.0605021 32.8584 0 32.7838 0H28.1892Z" fill="#FF8CEC"/>
<path fill-rule="evenodd" clip-rule="evenodd" d="M35.3311 0.25V1.91216H39.6959V0.25H35.3311ZM29.4054 4.03378C26.5582 4.03378 24.25 6.34194 24.25 9.18919V14.5946C24.25 17.4418 26.5582 19.75 29.4054 19.75H38.5946C41.4418 19.75 43.75 17.4418 43.75 14.5946V9.18919C43.75 6.34194 41.4418 4.03378 38.5946 4.03378H29.4054ZM28.3041 0.25V1.91216H32.6689V0.25H28.3041ZM35.0811 0.135135C35.0811 0.0605021 35.1416 0 35.2162 0H39.8108C39.8854 0 39.9459 0.0605021 39.9459 0.135135V2.02703C39.9459 2.10166 39.8854 2.16216 39.8108 2.16216H35.2162C35.1416 2.16216 35.0811 2.10166 35.0811 2.02703V0.135135ZM29.4054 3.78378C26.4201 3.78378 24 6.20387 24 9.18919V14.5946C24 17.5799 26.4201 20 29.4054 20H38.5946C41.5799 20 44 17.5799 44 14.5946V9.18919C44 6.20387 41.5799 3.78378 38.5946 3.78378H29.4054ZM28.0541 0.135135C28.0541 0.0605021 28.1146 0 28.1892 0H32.7838C32.8584 0 32.9189 0.0605021 32.9189 0.135135V2.02703C32.9189 2.10166 32.8584 2.16216 32.7838 2.16216H28.1892C28.1146 2.16216 28.0541 2.10166 28.0541 2.02703V0.135135Z" fill="#151526"/>
<path d="M29.4054 5.94592H38.5946C40.3858 5.94592 41.8378 7.39797 41.8378 9.18917V14.5946C41.8378 16.3858 40.3858 17.8378 38.5946 17.8378H29.4054C27.6142 17.8378 26.1622 16.3858 26.1622 14.5946V9.18917C26.1622 7.39797 27.6142 5.94592 29.4054 5.94592Z" fill="#232340"/>
<path d="M29.8108 8.91895C29.7362 8.91895 29.6757 8.97945 29.6757 9.05408V13.6487C29.6757 13.7233 29.7362 13.7838 29.8108 13.7838H31.7027C31.7773 13.7838 31.8378 13.7233 31.8378 13.6487V9.05408C31.8378 8.97945 31.7773 8.91895 31.7027 8.91895H29.8108Z" fill="#FF8CEC"/>
<path d="M36.2973 8.91895C36.2226 8.91895 36.1621 8.97945 36.1621 9.05408V13.6487C36.1621 13.7233 36.2226 13.7838 36.2973 13.7838H38.1892C38.2638 13.7838 38.3243 13.7233 38.3243 13.6487V9.05408C38.3243 8.97945 38.2638 8.91895 38.1892 8.91895H36.2973Z" fill="#FF8CEC"/>
<path d="M39.32 29.21C38.32 29.19 35.17 29.31 33.99 33.69C33.99 33.69 33.11 29.11 28.89 29.21C24.67 29.31 23.59 33.46 24.14 35.36C24.69 37.26 25.42 40.66 33.99 46.99C33.99 46.99 43.99 39.74 43.99 34.91C43.99 30.08 40.32 29.24 39.32 29.21Z" fill="#00FFD4"/>
<path fill-rule="evenodd" clip-rule="evenodd" d="M33.99 46.99C33.99 46.99 43.99 39.74 43.99 34.91C43.99 30.08 40.32 29.24 39.32 29.21C38.3569 29.1907 35.3993 29.3013 34.1283 33.2227C34.0797 33.3728 34.0335 33.5285 33.99 33.69C33.99 33.69 33.9553 33.5093 33.8666 33.2205C33.5087 32.0553 32.2719 29.1298 28.89 29.21C24.67 29.31 23.59 33.46 24.14 35.36C24.1588 35.4248 24.1778 35.4914 24.1972 35.5598C24.749 37.4955 25.7125 40.876 33.99 46.99ZM33.7445 33.7372L33.7442 33.7356L33.7425 33.7275C33.741 33.7201 33.7385 33.7085 33.7351 33.693C33.7282 33.662 33.7173 33.6156 33.7019 33.5559C33.671 33.4365 33.6221 33.2646 33.5504 33.0579C33.4066 32.6436 33.173 32.0944 32.8138 31.5502C32.0984 30.4662 30.8952 29.4125 28.8959 29.4599C26.8825 29.5076 25.6337 30.5143 24.9438 31.7331C24.2447 32.9682 24.1257 34.4116 24.3801 35.2905C24.399 35.3555 24.418 35.4222 24.4375 35.4906C24.7015 36.4168 25.0541 37.654 26.2619 39.3698C27.5488 41.1979 29.8132 43.5775 33.9903 46.6791C34.0604 46.6271 34.154 46.5569 34.2685 46.4699C34.5403 46.2635 34.929 45.9629 35.3957 45.587C36.3294 44.8349 37.5733 43.7828 38.8163 42.5815C40.0603 41.3791 41.2974 40.033 42.2217 38.6932C43.151 37.3462 43.74 36.0398 43.74 34.91C43.74 32.568 42.8549 31.2245 41.8757 30.4567C40.8844 29.6793 39.7727 29.474 39.3137 29.4599C38.8289 29.4503 37.8441 29.476 36.8417 30.0197C35.8476 30.559 34.8053 31.6247 34.2314 33.755C34.2011 33.8675 34.0972 33.9441 33.9808 33.9398C33.8645 33.9356 33.7666 33.8516 33.7445 33.7373C33.7445 33.7373 33.7445 33.7373 33.7445 33.7373L33.7445 33.7372L33.7445 33.7372Z" fill="#151526"/>
<path fill-rule="evenodd" clip-rule="evenodd" d="M26.957 35.8826C27.0218 35.8589 27.0936 35.8922 27.1174 35.957C27.134 36.0024 27.1507 36.0488 27.1679 36.0964C27.3351 36.5599 27.5413 37.1314 28.0358 37.859C28.5819 38.6625 29.4829 39.6605 31.0768 40.9014C31.1313 40.9438 31.141 41.0223 31.0986 41.0768C31.0562 41.1313 30.9777 41.141 30.9232 41.0986C29.3144 39.8461 28.3933 38.8299 27.8291 37.9996C27.3164 37.2452 27.101 36.6478 26.9329 36.1818C26.9158 36.1342 26.8991 36.0879 26.8826 36.043C26.8589 35.9782 26.8922 35.9064 26.957 35.8826Z" fill="#151526"/>
<path d="M58.125 7C58.056 7 58 7.07462 58 7.16667V12.8333C58 12.9254 58.056 13 58.125 13H59.875C59.944 13 60 12.9254 60 12.8333V7.16667C60 7.07462 59.944 7 59.875 7H58.125Z" fill="white"/>
<path d="M64.125 7C64.056 7 64 7.07462 64 7.16667V12.8333C64 12.9254 64.056 13 64.125 13H65.875C65.944 13 66 12.9254 66 12.8333V7.16667C66 7.07462 65.944 7 65.875 7H64.125Z" fill="white"/>
<path fill-rule="evenodd" clip-rule="evenodd" d="M58.25 7.25V12.75H59.75V7.25H58.25ZM64.25 7.25V12.75H65.75V7.25H64.25ZM58 7.16667C58 7.07462 58.056 7 58.125 7H59.875C59.944 7 60 7.07462 60 7.16667V12.8333C60 12.9254 59.944 13 59.875 13H58.125C58.056 13 58 12.9254 58 12.8333V7.16667ZM64 7.16667C64 7.07462 64.056 7 64.125 7H65.875C65.944 7 66 7.07462 66 7.16667V12.8333C66 12.9254 65.944 13 65.875 13H64.125C64.056 13 64 12.9254 64 12.8333V7.16667Z" fill="#151526"/>
<path d="M63.0811 28.1351C63.0811 28.0605 63.1416 28 63.2162 28H67.8108C67.8854 28 67.9459 28.0605 67.9459 28.1351V30.027C67.9459 30.1017 67.8854 30.1622 67.8108 30.1622L63.2162 30.1622C63.1416 30.1622 63.0811 30.1017 63.0811 30.027V28.1351Z" fill="#FF8CEC"/>
<path d="M57.4054 31.7838C54.4201 31.7838 52 34.2039 52 37.1892V42.5946C52 45.5799 54.4201 48 57.4054 48H66.5946C69.5799 48 72 45.5799 72 42.5946V37.1892C72 34.2039 69.5799 31.7838 66.5946 31.7838L57.4054 31.7838Z" fill="#FF8CEC"/>
<path d="M56.1892 28C56.1146 28 56.0541 28.0605 56.0541 28.1351V30.027C56.0541 30.1017 56.1146 30.1622 56.1892 30.1622H60.7838C60.8584 30.1622 60.9189 30.1017 60.9189 30.027V28.1351C60.9189 28.0605 60.8584 28 60.7838 28H56.1892Z" fill="#FF8CEC"/>
<path fill-rule="evenodd" clip-rule="evenodd" d="M63.3311 28.25V29.9122L67.6959 29.9122V28.25H63.3311ZM57.4054 32.0338C54.5582 32.0338 52.25 34.3419 52.25 37.1892V42.5946C52.25 45.4418 54.5582 47.75 57.4054 47.75H66.5946C69.4418 47.75 71.75 45.4418 71.75 42.5946V37.1892C71.75 34.3419 69.4418 32.0338 66.5946 32.0338H57.4054ZM56.3041 28.25V29.9122H60.6689V28.25H56.3041ZM63.0811 28.1351C63.0811 28.0605 63.1416 28 63.2162 28H67.8108C67.8854 28 67.9459 28.0605 67.9459 28.1351V30.027C67.9459 30.1017 67.8854 30.1622 67.8108 30.1622L63.2162 30.1622C63.1416 30.1622 63.0811 30.1017 63.0811 30.027V28.1351ZM57.4054 31.7838C54.4201 31.7838 52 34.2039 52 37.1892V42.5946C52 45.5799 54.4201 48 57.4054 48H66.5946C69.5799 48 72 45.5799 72 42.5946V37.1892C72 34.2039 69.5799 31.7838 66.5946 31.7838L57.4054 31.7838ZM56.0541 28.1351C56.0541 28.0605 56.1146 28 56.1892 28H60.7838C60.8584 28 60.9189 28.0605 60.9189 28.1351V30.027C60.9189 30.1017 60.8584 30.1622 60.7838 30.1622H56.1892C56.1146 30.1622 56.0541 30.1017 56.0541 30.027V28.1351Z" fill="#151526"/>
<path d="M57.4054 33.9459H66.5946C68.3858 33.9459 69.8378 35.398 69.8378 37.1892V42.5946C69.8378 44.3858 68.3858 45.8378 66.5946 45.8378H57.4054C55.6142 45.8378 54.1622 44.3858 54.1622 42.5946V37.1892C54.1622 35.398 55.6142 33.9459 57.4054 33.9459Z" fill="#3939E6"/>
<path d="M57.8108 36.9189C57.7362 36.9189 57.6757 36.9794 57.6757 37.0541V41.6487C57.6757 41.7233 57.7362 41.7838 57.8108 41.7838H59.7027C59.7773 41.7838 59.8378 41.7233 59.8378 41.6487V37.0541C59.8378 36.9794 59.7773 36.9189 59.7027 36.9189H57.8108Z" fill="#F0F2FF"/>
<path d="M64.2973 36.9189C64.2226 36.9189 64.1621 36.9794 64.1621 37.0541V41.6487C64.1621 41.7233 64.2226 41.7838 64.2973 41.7838H66.1892C66.2638 41.7838 66.3243 41.7233 66.3243 41.6487V37.0541C66.3243 36.9794 66.2638 36.9189 66.1892 36.9189H64.2973Z" fill="#F0F2FF"/>
<g opacity="0.7">
<path d="M99.8649 11.0811C99.9395 11.0811 100 11.1416 100 11.2162L100 15.8108C100 15.8854 99.9395 15.9459 99.8649 15.9459L97.973 15.9459C97.8983 15.9459 97.8378 15.8854 97.8378 15.8108L97.8378 11.2162C97.8378 11.1416 97.8983 11.0811 97.973 11.0811L99.8649 11.0811Z" fill="#FF8CEC"/>
<path d="M96.2162 5.4054C96.2162 2.42008 93.7961 -2.7118e-07 90.8108 -4.01672e-07L85.4054 -6.3795e-07C82.4201 -7.68443e-07 80 2.42008 80 5.4054L80 14.5946C80 17.5799 82.4201 20 85.4054 20L90.8108 20C93.7961 20 96.2162 17.5799 96.2162 14.5946L96.2162 5.4054Z" fill="#FF8CEC"/>
<path d="M100 4.18919C100 4.11456 99.9395 4.05405 99.8649 4.05405L97.973 4.05405C97.8983 4.05405 97.8378 4.11456 97.8378 4.18919L97.8378 8.78378C97.8378 8.85842 97.8983 8.91892 97.973 8.91892L99.8649 8.91892C99.9395 8.91892 100 8.85842 100 8.78378L100 4.18919Z" fill="#FF8CEC"/>
<path fill-rule="evenodd" clip-rule="evenodd" d="M99.75 11.3311L98.0878 11.3311L98.0878 15.6959L99.75 15.6959L99.75 11.3311ZM95.9662 5.4054C95.9662 2.55815 93.6581 0.25 90.8108 0.25L85.4054 0.249999C82.5582 0.249999 80.25 2.55815 80.25 5.4054L80.25 14.5946C80.25 17.4418 82.5582 19.75 85.4054 19.75L90.8108 19.75C93.6581 19.75 95.9662 17.4418 95.9662 14.5946L95.9662 5.4054ZM99.75 4.30405L98.0878 4.30405L98.0878 8.66892L99.75 8.66892L99.75 4.30405ZM99.8649 11.0811C99.9395 11.0811 100 11.1416 100 11.2162L100 15.8108C100 15.8854 99.9395 15.9459 99.8649 15.9459L97.973 15.9459C97.8983 15.9459 97.8378 15.8854 97.8378 15.8108L97.8378 11.2162C97.8378 11.1416 97.8983 11.0811 97.973 11.0811L99.8649 11.0811ZM96.2162 5.4054C96.2162 2.42008 93.7961 -2.7118e-07 90.8108 -4.01672e-07L85.4054 -6.3795e-07C82.4201 -7.68443e-07 80 2.42008 80 5.4054L80 14.5946C80 17.5799 82.4201 20 85.4054 20L90.8108 20C93.7961 20 96.2162 17.5799 96.2162 14.5946L96.2162 5.4054ZM99.8649 4.05405C99.9395 4.05405 100 4.11456 100 4.18919L100 8.78378C100 8.85842 99.9395 8.91892 99.8649 8.91892L97.973 8.91892C97.8983 8.91892 97.8378 8.85842 97.8378 8.78378L97.8378 4.18919C97.8378 4.11456 97.8983 4.05405 97.973 4.05405L99.8649 4.05405Z" fill="#151526"/>
<path d="M94.0541 5.40541L94.0541 14.5946C94.0541 16.3858 92.602 17.8378 90.8108 17.8378L85.4054 17.8378C83.6142 17.8378 82.1622 16.3858 82.1622 14.5946L82.1622 5.40541C82.1622 3.61422 83.6142 2.16217 85.4054 2.16217L90.8108 2.16217C92.602 2.16217 94.0541 3.61422 94.0541 5.40541Z" fill="#232340"/>
<path d="M91.081 5.81079C91.081 5.73616 91.0205 5.67566 90.9459 5.67566L86.3513 5.67566C86.2767 5.67566 86.2162 5.73616 86.2162 5.81079L86.2162 7.70269C86.2162 7.77732 86.2767 7.83782 86.3513 7.83782L90.9459 7.83782C91.0205 7.83782 91.081 7.77732 91.081 7.70269L91.081 5.81079Z" fill="white"/>
<path d="M91.081 12.2973C91.081 12.2226 91.0205 12.1621 90.9459 12.1621L86.3513 12.1621C86.2767 12.1621 86.2162 12.2226 86.2162 12.2973L86.2162 14.1892C86.2162 14.2638 86.2767 14.3243 86.3513 14.3243L90.9459 14.3243C91.0205 14.3243 91.081 14.2638 91.081 14.1892L91.081 12.2973Z" fill="white"/>
<path d="M95.32 29.21C94.32 29.19 91.17 29.31 89.99 33.69C89.99 33.69 89.11 29.11 84.89 29.21C80.67 29.31 79.59 33.46 80.14 35.36C80.69 37.26 81.42 40.66 89.99 46.99C89.99 46.99 99.99 39.74 99.99 34.91C99.99 30.08 96.32 29.24 95.32 29.21Z" fill="#FF8CEC"/>
<path fill-rule="evenodd" clip-rule="evenodd" d="M89.99 46.99C89.99 46.99 99.99 39.74 99.99 34.91C99.99 30.08 96.32 29.24 95.32 29.21C94.3569 29.1907 91.3993 29.3013 90.1283 33.2227C90.0797 33.3728 90.0335 33.5285 89.99 33.69C89.99 33.69 89.9553 33.5093 89.8666 33.2205C89.5087 32.0553 88.2719 29.1298 84.89 29.21C80.67 29.31 79.59 33.46 80.14 35.36C80.1588 35.4248 80.1778 35.4914 80.1972 35.5598C80.749 37.4955 81.7125 40.876 89.99 46.99ZM89.7445 33.7372L89.7442 33.7356L89.7425 33.7275C89.741 33.7201 89.7385 33.7085 89.7351 33.693C89.7282 33.662 89.7173 33.6156 89.7019 33.5559C89.671 33.4365 89.6221 33.2646 89.5504 33.0579C89.4066 32.6436 89.173 32.0944 88.8138 31.5502C88.0984 30.4662 86.8952 29.4125 84.8959 29.4599C82.8825 29.5076 81.6337 30.5143 80.9438 31.7331C80.2447 32.9682 80.1257 34.4116 80.3801 35.2905C80.399 35.3555 80.418 35.4222 80.4375 35.4906C80.7015 36.4168 81.0541 37.654 82.2619 39.3698C83.5488 41.1979 85.8132 43.5775 89.9903 46.6791C90.0604 46.6271 90.154 46.5569 90.2685 46.4699C90.5403 46.2635 90.929 45.9629 91.3957 45.587C92.3294 44.8349 93.5733 43.7828 94.8163 42.5815C96.0603 41.3791 97.2974 40.033 98.2217 38.6932C99.151 37.3462 99.74 36.0398 99.74 34.91C99.74 32.568 98.8549 31.2245 97.8757 30.4567C96.8844 29.6793 95.7727 29.474 95.3137 29.4599C94.8289 29.4503 93.8441 29.476 92.8417 30.0197C91.8476 30.559 90.8053 31.6247 90.2314 33.755C90.2011 33.8675 90.0972 33.9441 89.9808 33.9398C89.8645 33.9356 89.7666 33.8516 89.7445 33.7373C89.7445 33.7373 89.7445 33.7373 89.7445 33.7373L89.7445 33.7372L89.7445 33.7372Z" fill="#151526"/>
<path fill-rule="evenodd" clip-rule="evenodd" d="M82.957 35.8826C83.0218 35.8589 83.0936 35.8922 83.1174 35.957C83.134 36.0024 83.1507 36.0488 83.1679 36.0964C83.3351 36.5599 83.5413 37.1314 84.0358 37.859C84.5819 38.6625 85.4829 39.6605 87.0768 40.9014C87.1313 40.9438 87.141 41.0223 87.0986 41.0768C87.0562 41.1313 86.9777 41.141 86.9232 41.0986C85.3144 39.8461 84.3933 38.8299 83.8291 37.9996C83.3164 37.2452 83.101 36.6478 82.9329 36.1818C82.9158 36.1342 82.8991 36.0879 82.8826 36.043C82.8589 35.9782 82.8922 35.9064 82.957 35.8826Z" fill="#151526"/>
</g>
<g opacity="0.5">
<path d="M119.081 28.1351C119.081 28.0605 119.142 28 119.216 28H123.811C123.885 28 123.946 28.0605 123.946 28.1351V30.027C123.946 30.1017 123.885 30.1622 123.811 30.1622H119.216C119.142 30.1622 119.081 30.1017 119.081 30.027V28.1351Z" fill="#FF8CEC"/>
<path d="M113.405 31.7838C110.42 31.7838 108 34.2039 108 37.1892V42.5946C108 45.5799 110.42 48 113.405 48H122.595C125.58 48 128 45.5799 128 42.5946V37.1892C128 34.2039 125.58 31.7838 122.595 31.7838H113.405Z" fill="#FF8CEC"/>
<path d="M112.189 28C112.115 28 112.054 28.0605 112.054 28.1351V30.027C112.054 30.1017 112.115 30.1622 112.189 30.1622H116.784C116.858 30.1622 116.919 30.1017 116.919 30.027V28.1351C116.919 28.0605 116.858 28 116.784 28H112.189Z" fill="#FF8CEC"/>
<path fill-rule="evenodd" clip-rule="evenodd" d="M119.331 28.25V29.9122H123.696V28.25H119.331ZM113.405 32.0338C110.558 32.0338 108.25 34.3419 108.25 37.1892V42.5946C108.25 45.4418 110.558 47.75 113.405 47.75H122.595C125.442 47.75 127.75 45.4418 127.75 42.5946V37.1892C127.75 34.3419 125.442 32.0338 122.595 32.0338H113.405ZM112.304 28.25V29.9122H116.669V28.25H112.304ZM119.081 28.1351C119.081 28.0605 119.142 28 119.216 28H123.811C123.885 28 123.946 28.0605 123.946 28.1351V30.027C123.946 30.1017 123.885 30.1622 123.811 30.1622H119.216C119.142 30.1622 119.081 30.1017 119.081 30.027V28.1351ZM113.405 31.7838C110.42 31.7838 108 34.2039 108 37.1892V42.5946C108 45.5799 110.42 48 113.405 48H122.595C125.58 48 128 45.5799 128 42.5946V37.1892C128 34.2039 125.58 31.7838 122.595 31.7838H113.405ZM112.054 28.1351C112.054 28.0605 112.115 28 112.189 28H116.784C116.858 28 116.919 28.0605 116.919 28.1351V30.027C116.919 30.1017 116.858 30.1622 116.784 30.1622H112.189C112.115 30.1622 112.054 30.1017 112.054 30.027V28.1351Z" fill="#151526"/>
<path d="M113.405 33.9459H122.595C124.386 33.9459 125.838 35.398 125.838 37.1892V42.5946C125.838 44.3858 124.386 45.8378 122.595 45.8378H113.405C111.614 45.8378 110.162 44.3858 110.162 42.5946V37.1892C110.162 35.398 111.614 33.9459 113.405 33.9459Z" fill="white"/>
<path d="M113.811 36.9189C113.736 36.9189 113.676 36.9794 113.676 37.0541V41.6487C113.676 41.7233 113.736 41.7838 113.811 41.7838H115.703C115.777 41.7838 115.838 41.7233 115.838 41.6487V37.0541C115.838 36.9794 115.777 36.9189 115.703 36.9189H113.811Z" fill="#FF8CEC"/>
<path d="M120.297 36.9189C120.223 36.9189 120.162 36.9794 120.162 37.0541V41.6487C120.162 41.7233 120.223 41.7838 120.297 41.7838H122.189C122.264 41.7838 122.324 41.7233 122.324 41.6487V37.0541C122.324 36.9794 122.264 36.9189 122.189 36.9189H120.297Z" fill="#FF8CEC"/>
</g>
<g opacity="0.3">
<path d="M147.081 0.135135C147.081 0.0605021 147.142 0 147.216 0H151.811C151.885 0 151.946 0.0605021 151.946 0.135135V2.02703C151.946 2.10166 151.885 2.16216 151.811 2.16216H147.216C147.142 2.16216 147.081 2.10166 147.081 2.02703V0.135135Z" fill="#FF8CEC"/>
<path d="M141.405 3.78378C138.42 3.78378 136 6.20387 136 9.18919V14.5946C136 17.5799 138.42 20 141.405 20H150.595C153.58 20 156 17.5799 156 14.5946V9.18919C156 6.20387 153.58 3.78378 150.595 3.78378H141.405Z" fill="#FF8CEC"/>
<path d="M140.189 0C140.115 0 140.054 0.0605021 140.054 0.135135V2.02703C140.054 2.10166 140.115 2.16216 140.189 2.16216H144.784C144.858 2.16216 144.919 2.10166 144.919 2.02703V0.135135C144.919 0.0605021 144.858 0 144.784 0H140.189Z" fill="#FF8CEC"/>
<path fill-rule="evenodd" clip-rule="evenodd" d="M147.331 0.25V1.91216H151.696V0.25H147.331ZM141.405 4.03378C138.558 4.03378 136.25 6.34194 136.25 9.18919V14.5946C136.25 17.4418 138.558 19.75 141.405 19.75H150.595C153.442 19.75 155.75 17.4418 155.75 14.5946V9.18919C155.75 6.34194 153.442 4.03378 150.595 4.03378H141.405ZM140.304 0.25V1.91216H144.669V0.25H140.304ZM147.081 0.135135C147.081 0.0605021 147.142 0 147.216 0H151.811C151.885 0 151.946 0.0605021 151.946 0.135135V2.02703C151.946 2.10166 151.885 2.16216 151.811 2.16216H147.216C147.142 2.16216 147.081 2.10166 147.081 2.02703V0.135135ZM141.405 3.78378C138.42 3.78378 136 6.20387 136 9.18919V14.5946C136 17.5799 138.42 20 141.405 20H150.595C153.58 20 156 17.5799 156 14.5946V9.18919C156 6.20387 153.58 3.78378 150.595 3.78378H141.405ZM140.054 0.135135C140.054 0.0605021 140.115 0 140.189 0H144.784C144.858 0 144.919 0.0605021 144.919 0.135135V2.02703C144.919 2.10166 144.858 2.16216 144.784 2.16216H140.189C140.115 2.16216 140.054 2.10166 140.054 2.02703V0.135135Z" fill="#151526"/>
<path d="M141.405 5.94592H150.595C152.386 5.94592 153.838 7.39797 153.838 9.18917V14.5946C153.838 16.3858 152.386 17.8378 150.595 17.8378H141.405C139.614 17.8378 138.162 16.3858 138.162 14.5946V9.18917C138.162 7.39797 139.614 5.94592 141.405 5.94592Z" fill="#232340"/>
<path d="M141.811 8.91895C141.736 8.91895 141.676 8.97945 141.676 9.05408V13.6487C141.676 13.7233 141.736 13.7838 141.811 13.7838H143.703C143.777 13.7838 143.838 13.7233 143.838 13.6487V9.05408C143.838 8.97945 143.777 8.91895 143.703 8.91895H141.811Z" fill="#00FFD4"/>
<path d="M148.297 8.91895C148.223 8.91895 148.162 8.97945 148.162 9.05408V13.6487C148.162 13.7233 148.223 13.7838 148.297 13.7838H150.189C150.264 13.7838 150.324 13.7233 150.324 13.6487V9.05408C150.324 8.97945 150.264 8.91895 150.189 8.91895H148.297Z" fill="#00FFD4"/>
<path d="M148.833 34.125C148.854 34.125 148.868 34.131 148.875 34.1358L148.875 35.8642C148.868 35.869 148.854 35.875 148.833 35.875L143.167 35.875C143.146 35.875 143.132 35.869 143.125 35.8642L143.125 34.1358C143.132 34.131 143.146 34.125 143.167 34.125L148.833 34.125ZM148.833 40.125C148.854 40.125 148.868 40.131 148.875 40.1358L148.875 41.8642C148.868 41.869 148.854 41.875 148.833 41.875L143.167 41.875C143.146 41.875 143.132 41.869 143.125 41.8642L143.125 40.1358C143.132 40.131 143.146 40.125 143.167 40.125L148.833 40.125Z" fill="white" stroke="#151526" stroke-width="0.25"/>
</g>
<g opacity="0.15">
<path d="M164.135 36.9189C164.061 36.9189 164 36.8584 164 36.7838L164 32.1892C164 32.1146 164.061 32.0541 164.135 32.0541L166.027 32.0541C166.102 32.0541 166.162 32.1146 166.162 32.1892L166.162 36.7838C166.162 36.8584 166.102 36.9189 166.027 36.9189L164.135 36.9189Z" fill="#FF8CEC"/>
<path d="M167.784 42.5946C167.784 45.5799 170.204 48 173.189 48L178.595 48C181.58 48 184 45.5799 184 42.5946L184 33.4054C184 30.4201 181.58 28 178.595 28L173.189 28C170.204 28 167.784 30.4201 167.784 33.4054L167.784 42.5946Z" fill="#FF8CEC"/>
<path d="M164 43.8108C164 43.8854 164.061 43.9459 164.135 43.9459L166.027 43.9459C166.102 43.9459 166.162 43.8854 166.162 43.8108L166.162 39.2162C166.162 39.1416 166.102 39.0811 166.027 39.0811L164.135 39.0811C164.061 39.0811 164 39.1416 164 39.2162L164 43.8108Z" fill="#FF8CEC"/>
<path fill-rule="evenodd" clip-rule="evenodd" d="M164.25 36.6689L165.912 36.6689L165.912 32.3041L164.25 32.3041L164.25 36.6689ZM168.034 42.5946C168.034 45.4418 170.342 47.75 173.189 47.75L178.595 47.75C181.442 47.75 183.75 45.4418 183.75 42.5946L183.75 33.4054C183.75 30.5582 181.442 28.25 178.595 28.25L173.189 28.25C170.342 28.25 168.034 30.5582 168.034 33.4054L168.034 42.5946ZM164.25 43.6959L165.912 43.6959L165.912 39.3311L164.25 39.3311L164.25 43.6959ZM164.135 36.9189C164.061 36.9189 164 36.8584 164 36.7838L164 32.1892C164 32.1146 164.061 32.0541 164.135 32.0541L166.027 32.0541C166.102 32.0541 166.162 32.1146 166.162 32.1892L166.162 36.7838C166.162 36.8584 166.102 36.9189 166.027 36.9189L164.135 36.9189ZM167.784 42.5946C167.784 45.5799 170.204 48 173.189 48L178.595 48C181.58 48 184 45.5799 184 42.5946L184 33.4054C184 30.4201 181.58 28 178.595 28L173.189 28C170.204 28 167.784 30.4201 167.784 33.4054L167.784 42.5946ZM164.135 43.9459C164.061 43.9459 164 43.8854 164 43.8108L164 39.2162C164 39.1416 164.061 39.0811 164.135 39.0811L166.027 39.0811C166.102 39.0811 166.162 39.1416 166.162 39.2162L166.162 43.8108C166.162 43.8854 166.102 43.9459 166.027 43.9459L164.135 43.9459Z" fill="#151526"/>
<path d="M169.946 42.5946L169.946 33.4054C169.946 31.6142 171.398 30.1622 173.189 30.1622L178.595 30.1622C180.386 30.1622 181.838 31.6142 181.838 33.4054L181.838 42.5946C181.838 44.3858 180.386 45.8378 178.595 45.8378L173.189 45.8378C171.398 45.8378 169.946 44.3858 169.946 42.5946Z" fill="#F0F2FF"/>
<path d="M172.919 42.1892C172.919 42.2638 172.979 42.3243 173.054 42.3243L177.649 42.3243C177.723 42.3243 177.784 42.2638 177.784 42.1892L177.784 40.2973C177.784 40.2227 177.723 40.1622 177.649 40.1622L173.054 40.1622C172.979 40.1622 172.919 40.2227 172.919 40.2973L172.919 42.1892Z" fill="#3939E6"/>
<path d="M172.919 35.7027C172.919 35.7774 172.979 35.8379 173.054 35.8379L177.649 35.8379C177.723 35.8379 177.784 35.7774 177.784 35.7027L177.784 33.8108C177.784 33.7362 177.723 33.6757 177.649 33.6757L173.054 33.6757C172.979 33.6757 172.919 33.7362 172.919 33.8108L172.919 35.7027Z" fill="#3939E6"/>
</g>
</svg>
