<svg width="20" height="20" viewBox="0 0 20 20" fill="none" xmlns="http://www.w3.org/2000/svg">
<path d="M10 2.73438C5.98828 2.73438 2.73438 5.98828 2.73438 10C2.73438 14.0117 5.98828 17.2656 10 17.2656C14.0117 17.2656 17.2656 14.0117 17.2656 10C17.2656 5.98828 14.0117 2.73438 10 2.73438ZM5.625 8.22266C5.63001 7.97733 5.73098 7.74374 5.90625 7.57201C6.08152 7.40028 6.31712 7.3041 6.5625 7.3041C6.80788 7.3041 7.04348 7.40028 7.21875 7.57201C7.39402 7.74374 7.49499 7.97733 7.5 8.22266C7.49499 8.46798 7.39402 8.70157 7.21875 8.8733C7.04348 9.04503 6.80788 9.14121 6.5625 9.14121C6.31712 9.14121 6.08152 9.04503 5.90625 8.8733C5.73098 8.70157 5.63001 8.46798 5.625 8.22266ZM10 13.5352C8.33008 13.5352 6.96094 12.2207 6.875 10.5742C6.87394 10.5531 6.8772 10.5319 6.88457 10.512C6.89195 10.4922 6.90329 10.474 6.91791 10.4586C6.93252 10.4433 6.95011 10.4311 6.96959 10.4228C6.98908 10.4144 7.01006 10.4101 7.03125 10.4102H7.9707C8.05273 10.4102 8.12305 10.4727 8.12891 10.5547C8.20312 11.5215 9.01367 12.2852 10 12.2852C10.9863 12.2852 11.7988 11.5215 11.8711 10.5547C11.877 10.4727 11.9473 10.4102 12.0293 10.4102H12.9688C12.9899 10.4101 13.0109 10.4144 13.0304 10.4228C13.0499 10.4311 13.0675 10.4433 13.0821 10.4586C13.0967 10.474 13.108 10.4922 13.1154 10.512C13.1228 10.5319 13.1261 10.5531 13.125 10.5742C13.0391 12.2207 11.6699 13.5352 10 13.5352ZM13.4375 9.16016C13.1922 9.15515 12.9586 9.05418 12.7869 8.87891C12.6151 8.70364 12.5189 8.46803 12.5189 8.22266C12.5189 7.97728 12.6151 7.74168 12.7869 7.56641C12.9586 7.39114 13.1922 7.29016 13.4375 7.28516C13.6828 7.29016 13.9164 7.39114 14.0881 7.56641C14.2599 7.74168 14.3561 7.97728 14.3561 8.22266C14.3561 8.46803 14.2599 8.70364 14.0881 8.87891C13.9164 9.05418 13.6828 9.15515 13.4375 9.16016Z" fill="#F0F2FF"/>
<path d="M10 1.25C5.16797 1.25 1.25 5.16797 1.25 10C1.25 14.832 5.16797 18.75 10 18.75C14.832 18.75 18.75 14.832 18.75 10C18.75 5.16797 14.832 1.25 10 1.25ZM10 17.2656C5.98828 17.2656 2.73438 14.0117 2.73438 10C2.73438 5.98828 5.98828 2.73438 10 2.73438C14.0117 2.73438 17.2656 5.98828 17.2656 10C17.2656 14.0117 14.0117 17.2656 10 17.2656Z" fill="#3939E6"/>
<path d="M5.625 8.22266C5.625 8.4713 5.72377 8.70975 5.89959 8.88557C6.0754 9.06138 6.31386 9.16016 6.5625 9.16016C6.81114 9.16016 7.0496 9.06138 7.22541 8.88557C7.40123 8.70975 7.5 8.4713 7.5 8.22266C7.5 7.97402 7.40123 7.73556 7.22541 7.55974C7.0496 7.38393 6.81114 7.28516 6.5625 7.28516C6.31386 7.28516 6.0754 7.38393 5.89959 7.55974C5.72377 7.73556 5.625 7.97402 5.625 8.22266ZM12.9688 10.4102H12.0293C11.9473 10.4102 11.877 10.4727 11.8711 10.5547C11.7988 11.5215 10.9863 12.2852 10 12.2852C9.01367 12.2852 8.20313 11.5215 8.12891 10.5547C8.12305 10.4727 8.05273 10.4102 7.9707 10.4102H7.03125C7.01006 10.4101 6.98908 10.4144 6.96959 10.4228C6.95011 10.4311 6.93252 10.4433 6.91791 10.4586C6.90329 10.474 6.89195 10.4922 6.88457 10.512C6.8772 10.5319 6.87394 10.5531 6.875 10.5742C6.96094 12.2207 8.33008 13.5352 10 13.5352C11.6699 13.5352 13.0391 12.2207 13.125 10.5742C13.1261 10.5531 13.1228 10.5319 13.1154 10.512C13.1081 10.4922 13.0967 10.474 13.0821 10.4586C13.0675 10.4433 13.0499 10.4311 13.0304 10.4228C13.0109 10.4144 12.9899 10.4101 12.9688 10.4102ZM12.5 8.22266C12.5 8.4713 12.5988 8.70975 12.7746 8.88557C12.9504 9.06138 13.1889 9.16016 13.4375 9.16016C13.6861 9.16016 13.9246 9.06138 14.1004 8.88557C14.2762 8.70975 14.375 8.4713 14.375 8.22266C14.375 7.97402 14.2762 7.73556 14.1004 7.55974C13.9246 7.38393 13.6861 7.28516 13.4375 7.28516C13.1889 7.28516 12.9504 7.38393 12.7746 7.55974C12.5988 7.73556 12.5 7.97402 12.5 8.22266Z" fill="#3939E6"/>
</svg>
