<svg width="20" height="20" viewBox="0 0 20 20" fill="none" xmlns="http://www.w3.org/2000/svg">
<path d="M10.0018 3.37109L2.77528 10.5918H4.65028V16.9531H7.65614V12.5C7.65614 12.0684 8.00575 11.7188 8.43739 11.7188H11.5624C11.994 11.7188 12.3436 12.0684 12.3436 12.5V16.9531H15.3495V10.5918H17.2265L10.453 3.82227L10.0018 3.37109ZM18.4882 11.6309C18.371 11.748 18.2323 11.8418 18.0819 11.9023C18.2323 11.8398 18.371 11.748 18.4882 11.6309ZM1.16396 10.9531C1.26161 11.5449 1.77724 11.998 2.39638 11.998H2.41396C1.79091 11.998 1.26357 11.5488 1.16396 10.9531ZM1.14638 10.748V10.7109V10.748ZM1.14833 10.6973C1.15028 10.6367 1.1581 10.5781 1.16786 10.5195C1.15614 10.5762 1.15028 10.6367 1.14833 10.6973Z" fill="#F0F2FF"/>
<path d="M18.5743 9.96093C18.5743 9.95897 18.5724 9.95897 18.5724 9.95702L18.5372 9.916C18.5353 9.91405 18.5333 9.91014 18.5294 9.90819C18.5157 9.89257 18.5001 9.87694 18.4864 9.86132L10.9396 2.3203L10.4337 1.81444C10.3184 1.69994 10.1626 1.63568 10.0001 1.63568C9.83764 1.63568 9.68177 1.69994 9.56651 1.81444L1.51378 9.86327C1.3683 10.008 1.26094 10.1865 1.20128 10.3828L1.18956 10.4238L1.1837 10.4453L1.17784 10.4687C1.17393 10.4824 1.17198 10.4961 1.17003 10.5098C1.17003 10.5117 1.17003 10.5156 1.16808 10.5176C1.15636 10.5762 1.1505 10.6348 1.14854 10.6953V10.7598C1.14854 10.7695 1.14854 10.7793 1.1505 10.7891C1.1505 10.7988 1.1505 10.8066 1.15245 10.8164C1.15245 10.8262 1.1544 10.8359 1.1544 10.8457C1.1544 10.8574 1.15636 10.8691 1.15831 10.8808C1.15831 10.8867 1.16026 10.8926 1.16026 10.8984L1.16612 10.9473V10.9492C1.26573 11.5449 1.79503 11.9941 2.41612 11.9941H3.2462V18.3594H16.756V11.998H17.6036C17.7716 11.998 17.9337 11.9648 18.0821 11.9023C18.2306 11.8398 18.3692 11.748 18.4884 11.6308C18.6048 11.5149 18.697 11.3769 18.7596 11.2251C18.8223 11.0732 18.8543 10.9104 18.8536 10.7461C18.8536 10.459 18.756 10.1836 18.5743 9.96093ZM11.0939 16.9531H8.90636V12.9687H11.0939V16.9531ZM15.3497 10.5918V16.9531H12.3439V12.5C12.3439 12.0683 11.9942 11.7187 11.5626 11.7187H8.43761C8.00597 11.7187 7.65636 12.0683 7.65636 12.5V16.9531H4.6505V10.5918H2.7755L10.0021 3.37108L10.4532 3.82225L17.2267 10.5918H15.3497Z" fill="#3939E6"/>
</svg>
