<svg width="20" height="20" viewBox="0 0 20 20" fill="none" xmlns="http://www.w3.org/2000/svg">
<path d="M10 20C15.5228 20 20 15.5228 20 10C20 4.47715 15.5228 0 10 0C4.47715 0 0 4.47715 0 10C0 15.5228 4.47715 20 10 20Z" fill="#0D74F6"/>
<path d="M8.22087 4.4899C7.47057 4.48933 6.72027 4.48876 5.97 4.49389C5.948 5.50709 5.95171 6.52089 5.95543 7.53478C5.95864 8.41017 5.96185 9.28562 5.9485 10.1608C4.7529 10.3953 3.5291 10.3611 2.3244 10.2343C2.85451 10.5409 3.45549 10.6898 4.04702 10.8364C4.0979 10.849 4.14871 10.8616 4.1994 10.8743C6.6752 11.4198 9.3492 10.9979 11.5372 9.71789C13.543 8.54789 15.1704 6.68889 15.9624 4.49789C15.0002 4.48741 14.0376 4.48888 13.0751 4.49035C12.5597 4.49115 12.0444 4.49194 11.5292 4.49089C11.6535 4.7317 11.792 4.96477 11.9305 5.19779C12.0831 5.45459 12.2357 5.71133 12.3692 5.97829C12.3459 6.09259 12.2736 6.18376 12.2019 6.27416C12.1732 6.31038 12.1445 6.34648 12.1192 6.38389C11.3968 7.28869 10.5432 8.10589 9.5468 8.70469C9.5374 8.13337 9.54115 7.56154 9.5449 6.98961C9.55036 6.15613 9.55583 5.32243 9.5206 4.48979C9.08737 4.49056 8.65412 4.49023 8.22087 4.4899Z" fill="white"/>
<path d="M12.4121 9.97287C11.9669 10.2496 11.5212 10.5267 11.0416 10.7417C9.4646 11.5 7.7054 11.8166 5.9622 11.7944C5.9522 13.0344 5.9461 14.2752 5.9653 15.5152C6.82032 15.5232 7.6754 15.5217 8.53048 15.5203C8.86399 15.5197 9.19749 15.5192 9.531 15.5192C9.55219 14.9013 9.54857 14.2831 9.54496 13.6647C9.5424 13.2265 9.53984 12.7882 9.5461 12.35C9.86289 12.2241 10.1873 12.1183 10.5173 12.033C10.823 12.5622 11.1084 13.1031 11.3938 13.6439C11.727 14.2753 12.0601 14.9067 12.4255 15.5192C12.7865 15.5189 13.1475 15.5196 13.5085 15.5203C14.328 15.522 15.1475 15.5237 15.9671 15.5132C15.0825 13.9071 14.1656 12.3172 13.2492 10.7282C13.0688 10.4153 12.8884 10.1026 12.7083 9.78969C12.6094 9.85028 12.5108 9.91157 12.4121 9.97287Z" fill="white"/>
</svg>
