<svg width="120" height="48" viewBox="0 0 120 48" fill="none" xmlns="http://www.w3.org/2000/svg">
<path d="M0 41.0001L4.36032 7.06494L13.0159 20.6909L0 41.0001Z" fill="#418085"/>
<path d="M0 41.0001L4.36032 7.06494L7.5492 20.6909L0 41.0001Z" fill="#091E1F"/>
<path d="M0 41L13.0159 20.6908H7.5492L0 41Z" fill="#214F4F"/>
<path d="M41 40.9352L36.6397 7L27.9841 20.626L41 40.9352Z" fill="#418085"/>
<path d="M41 40.9352L36.6397 7L33.4508 20.626L41 40.9352Z" fill="#091E1F"/>
<path d="M41 40.9349L27.9841 20.6257H33.4508L41 40.9349Z" fill="#214F4F"/>
<path d="M13.0159 20.6912L20.5001 8.81714V18.0309L13.0159 20.6912Z" fill="#4E9EA7"/>
<path d="M27.9841 20.691L20.4999 8.81689V18.0307L27.9841 20.691Z" fill="#418085"/>
<path d="M20.5 18.0305L27.9841 20.6259L20.5 32.3054V18.0305Z" fill="#091E1F"/>
<path d="M13.0159 20.6908L20.5001 18.0305V32.3054L13.0159 20.6908Z" fill="#214F4F"/>
<path d="M70.7955 11.9851L76.4034 22.9546L82.0114 11.9851H85.8296L85.75 12.1408V28.3227H82.25V18.987L77.4773 28.3227H75.3296L70.4773 18.8313V28.3227H66.9773V11.9851H70.7955Z" fill="#0E2223"/>
<path d="M89.7272 11.9851H101.182V14.9988H93.2272V18.3299H100.227V21.3436H93.2272V25.3091H101.182V28.3228L89.7272 28.3227V11.9851Z" fill="#0E2223"/>
<path d="M115.182 22.7713L113.356 20.1382H113.348L111.523 22.7713H111.045L109.22 20.1382H109.212L107.387 22.7711L109.216 20.1321L103.568 11.9853L107.705 11.9853L111.284 17.1488L114.864 11.9852L119 11.9852L113.352 20.1321L115.182 22.7713Z" fill="#0E2223"/>
<path d="M55.2841 15.4748H52.5V11.9852H55.2841C59.8091 11.9852 63.4773 15.6425 63.4773 20.154C63.4773 24.6655 59.8091 28.3228 55.2841 28.3228H52.5V24.8332H55.2841C57.8761 24.8332 59.9773 22.7382 59.9773 20.154C59.9773 17.5697 57.8761 15.4748 55.2841 15.4748Z" fill="#0E2223"/>
<path d="M49 11.9857L52.5 11.9852V28.3228L49 28.3233V11.9857Z" fill="#0E2223"/>
<path fill-rule="evenodd" clip-rule="evenodd" d="M107.387 17.5366L109.212 20.1697H109.22L111.045 17.5367H111.523L111.523 17.5369H111.523L113.348 20.1697H113.357L115.182 17.5369H115.182L113.352 20.1758L119 28.3226H114.864L111.284 23.1592L107.704 28.3229H103.568L109.216 20.1758L107.386 17.5366H107.387Z" fill="#4E9EA7"/>
</svg>
