<svg fill="none" xmlns="http://www.w3.org/2000/svg" viewBox="0 0 32 32">
  <path fill-rule="evenodd" clip-rule="evenodd" d="M27.5 9.69h-4.61A4.3 4.3 0 0016 4.54 4.3 4.3 0 009.11 9.7H4.5a1 1 0 00-1 1v6.25c0 .13.11.25.25.25H5v10.75a1 1 0 001 1h20a1 1 0 001-1V17.19h1.25c.14 0 .25-.12.25-.25v-6.25a1 1 0 00-1-1zm-12.56-.13h-2.19a2.19 2.19 0 112.19-2.19v2.2zm2.12-2.19a2.19 2.19 0 112.19 2.2h-2.19v-2.2zM14.78 21.5a.32.32 0 01-.32-.28c-.18-1.48.69-2.38 1.5-3.07l.35-.3c.28-.23.52-.43.73-.65.28-.3.42-.56.42-.84 0-.41-.15-.7-.4-.9-.27-.22-.69-.35-1.26-.35-.85 0-1.54.38-2.27 1.2a.32.32 0 01-.47.02l-1.28-1.26a.32.32 0 01-.03-.43 5.44 5.44 0 014.3-2.15c1.2 0 2.26.29 3.03.9a3.35 3.35 0 011.24 2.75c0 1.37-.96 2.14-1.75 2.78l-.05.04c-.86.69-1.49 1.23-1.4 2.19a.32.32 0 01-.31.35h-2.03zm2.25 3.92c-.31.33-.74.51-1.23.51-.48 0-.91-.18-1.22-.5-.3-.33-.48-.78-.48-1.28 0-1.05.73-1.8 1.7-1.8.49 0 .92.18 1.23.5.3.33.48.78.48 1.3 0 .5-.17.95-.48 1.27z" fill="#3939E6"/>
</svg>
