<svg width="20" height="20" viewBox="0 0 20 20" fill="none" xmlns="http://www.w3.org/2000/svg">
<path fill-rule="evenodd" clip-rule="evenodd" d="M13.2268 14.879C13.6834 15.457 14.2314 16.1111 14.2314 16.1111C17.5951 16.0046 18.8889 13.7989 18.8889 13.7989C18.8889 8.90084 16.6971 4.93065 16.6971 4.93065C14.5053 3.2878 12.4201 3.33344 12.4201 3.33344L12.207 3.57682C14.7945 4.36782 15.997 5.50868 15.997 5.50868C14.414 4.64163 12.8615 4.21571 11.4155 4.04838C10.3196 3.92669 9.26941 3.95711 8.34095 4.0788C8.26122 4.0788 8.1931 4.09039 8.11632 4.10346L8.0822 4.10923C7.54947 4.15486 6.25571 4.35261 4.6271 5.06755C4.06393 5.32614 3.72908 5.50868 3.72908 5.50868C3.72908 5.50868 4.99239 4.30697 7.73212 3.51598L7.57991 3.33344C7.57991 3.33344 5.49468 3.2878 3.3029 4.93065C3.3029 4.93065 1.11111 8.90084 1.11111 13.7989C1.11111 13.7989 2.38965 16.0046 5.75343 16.1111C5.75343 16.1111 6.31659 15.4266 6.77322 14.8485C4.84019 14.2705 4.10959 13.0536 4.10959 13.0536C4.10959 13.0536 4.2618 13.1601 4.53577 13.3122C4.55099 13.3274 4.56621 13.3426 4.59665 13.3578C4.61949 13.373 4.64232 13.3844 4.66515 13.3958C4.68798 13.4072 4.71081 13.4187 4.73364 13.4339C5.11416 13.6468 5.49468 13.8142 5.84475 13.9511C6.4688 14.1944 7.21462 14.4378 8.0822 14.6052C9.22375 14.8181 10.5632 14.8942 12.0244 14.6204C12.7397 14.4987 13.4703 14.2857 14.2314 13.9663C14.7641 13.7685 15.3577 13.4795 15.9817 13.0688C15.9817 13.0688 15.2207 14.3161 13.2268 14.879ZM7.1537 9.00733C6.28612 9.00733 5.60118 9.76791 5.60118 10.6958C5.60118 11.6237 6.30134 12.3843 7.1537 12.3843C8.02128 12.3843 8.70621 11.6237 8.70621 10.6958C8.72143 9.76791 8.02128 9.00733 7.1537 9.00733ZM12.7093 9.00733C11.8417 9.00733 11.1567 9.76791 11.1567 10.6958C11.1567 11.6237 11.8569 12.3843 12.7093 12.3843C13.5768 12.3843 14.2618 11.6237 14.2618 10.6958C14.2618 9.76791 13.5768 9.00733 12.7093 9.00733Z" fill="black"/>
</svg>
