<svg width="20" height="20" viewBox="0 0 20 20" fill="none" xmlns="http://www.w3.org/2000/svg">
<path fill-rule="evenodd" clip-rule="evenodd" d="M1.66667 10C1.66667 5.40002 5.4 1.66669 10 1.66669C14.6 1.66669 18.3333 5.40002 18.3333 10C18.3333 14.6 14.6 18.3334 10 18.3334C5.4 18.3334 1.66667 14.6 1.66667 10ZM10.8333 13.3334V15H9.16667V13.3334H10.8333ZM10 16.6667C6.325 16.6667 3.33333 13.675 3.33333 10C3.33333 6.32502 6.325 3.33335 10 3.33335C13.675 3.33335 16.6667 6.32502 16.6667 10C16.6667 13.675 13.675 16.6667 10 16.6667ZM6.66667 8.33335C6.66667 6.49169 8.15833 5.00002 10 5.00002C11.8417 5.00002 13.3333 6.49169 13.3333 8.33335C13.3333 9.40245 12.675 9.97779 12.034 10.538C11.4258 11.0694 10.8333 11.5872 10.8333 12.5H9.16667C9.16667 10.9823 9.95176 10.3805 10.642 9.85142C11.1835 9.43636 11.6667 9.06603 11.6667 8.33335C11.6667 7.41669 10.9167 6.66669 10 6.66669C9.08333 6.66669 8.33333 7.41669 8.33333 8.33335H6.66667Z" fill="#606080"/>
</svg>
