<svg width="20" height="20" viewBox="0 0 20 20" fill="none" xmlns="http://www.w3.org/2000/svg">
<path fill-rule="evenodd" clip-rule="evenodd" d="M3.33334 10C3.33334 5.85833 6.69167 2.5 10.8333 2.5C14.975 2.5 18.3333 5.85833 18.3333 10C18.3333 14.1417 14.975 17.5 10.8333 17.5C8.75834 17.5 6.89167 16.6583 5.53334 15.3L6.71667 14.1167C7.76667 15.175 9.225 15.8333 10.8333 15.8333C14.0583 15.8333 16.6667 13.225 16.6667 10C16.6667 6.775 14.0583 4.16667 10.8333 4.16667C7.60834 4.16667 5 6.775 5 10H7.5L4.16667 13.325L0.833336 10H3.33334ZM10 10.8333V6.66667H11.25V10.125L14.1833 11.8667L13.5417 12.9333L10 10.8333Z" fill="#00BFA0"/>
</svg>
