<svg width="20" height="20" viewBox="0 0 20 20" fill="none" xmlns="http://www.w3.org/2000/svg">
<path d="M10.002 3.37109L2.77539 10.5918H4.65039V16.9531H7.65625V12.5C7.65625 12.0684 8.00586 11.7188 8.4375 11.7188H11.5625C11.9941 11.7188 12.3438 12.0684 12.3438 12.5V16.9531H15.3496V10.5918H17.2266L10.4531 3.82227L10.002 3.37109ZM18.4883 11.6309C18.3711 11.748 18.2324 11.8418 18.082 11.9023C18.2324 11.8398 18.3711 11.748 18.4883 11.6309ZM1.16406 10.9531C1.26172 11.5449 1.77734 11.998 2.39648 11.998H2.41406C1.79102 11.998 1.26367 11.5488 1.16406 10.9531ZM1.14648 10.748V10.7109V10.748ZM1.14844 10.6973C1.15039 10.6367 1.1582 10.5781 1.16797 10.5195C1.15625 10.5762 1.15039 10.6367 1.14844 10.6973Z" fill="#F0F0FF"/>
<path d="M18.5742 9.96093C18.5742 9.95897 18.5723 9.95897 18.5723 9.95702L18.5371 9.916C18.5352 9.91405 18.5332 9.91014 18.5293 9.90819C18.5156 9.89257 18.5 9.87694 18.4863 9.86132L10.9395 2.3203L10.4336 1.81444C10.3183 1.69994 10.1625 1.63568 10 1.63568C9.83754 1.63568 9.68167 1.69994 9.56641 1.81444L1.51367 9.86327C1.36819 10.008 1.26083 10.1865 1.20117 10.3828L1.18945 10.4238L1.18359 10.4453L1.17773 10.4687C1.17383 10.4824 1.17188 10.4961 1.16992 10.5098C1.16992 10.5117 1.16992 10.5156 1.16797 10.5176C1.15625 10.5762 1.15039 10.6348 1.14844 10.6953V10.7598C1.14844 10.7695 1.14844 10.7793 1.15039 10.7891C1.15039 10.7988 1.15039 10.8066 1.15234 10.8164C1.15234 10.8262 1.1543 10.8359 1.1543 10.8457C1.1543 10.8574 1.15625 10.8691 1.1582 10.8808C1.1582 10.8867 1.16016 10.8926 1.16016 10.8984L1.16602 10.9473V10.9492C1.26563 11.5449 1.79492 11.9941 2.41602 11.9941H3.24609V18.3594H16.7559V11.998H17.6035C17.7715 11.998 17.9336 11.9648 18.082 11.9023C18.2305 11.8398 18.3691 11.748 18.4883 11.6308C18.6046 11.5149 18.6968 11.3769 18.7595 11.2251C18.8222 11.0732 18.8542 10.9104 18.8535 10.7461C18.8535 10.459 18.7559 10.1836 18.5742 9.96093ZM11.0938 16.9531H8.90625V12.9687H11.0938V16.9531ZM15.3496 10.5918V16.9531H12.3438V12.5C12.3438 12.0683 11.9941 11.7187 11.5625 11.7187H8.4375C8.00586 11.7187 7.65625 12.0683 7.65625 12.5V16.9531H4.65039V10.5918H2.77539L10.002 3.37108L10.4531 3.82225L17.2266 10.5918H15.3496Z" fill="#606080"/>
</svg>
