<svg width="20" height="20" viewBox="0 0 20 20" fill="none" xmlns="http://www.w3.org/2000/svg">
<path fill-rule="evenodd" clip-rule="evenodd" d="M1.66666 10C1.66666 5.40002 5.39166 1.66669 9.99166 1.66669C14.6 1.66669 18.3333 5.40002 18.3333 10C18.3333 14.6 14.6 18.3334 9.99166 18.3334C5.39166 18.3334 1.66666 14.6 1.66666 10ZM13.3083 6.66669H15.7667C14.9667 5.29169 13.6917 4.22502 12.1583 3.70002C12.6583 4.62502 13.0417 5.62502 13.3083 6.66669ZM10 3.36669C10.6917 4.36669 11.2333 5.47502 11.5917 6.66669H8.40833C8.76666 5.47502 9.30833 4.36669 10 3.36669ZM3.33333 10C3.33333 10.575 3.41666 11.1334 3.55 11.6667H6.36666C6.3 11.1167 6.25 10.5667 6.25 10C6.25 9.43335 6.3 8.88335 6.36666 8.33335H3.55C3.41666 8.86669 3.33333 9.42502 3.33333 10ZM4.23333 13.3334H6.69166C6.95833 14.375 7.34166 15.375 7.84166 16.3C6.30833 15.775 5.03333 14.7167 4.23333 13.3334ZM4.23333 6.66669H6.69166C6.95833 5.62502 7.34166 4.62502 7.84166 3.70002C6.30833 4.22502 5.03333 5.28335 4.23333 6.66669ZM10 16.6334C9.30833 15.6334 8.76666 14.525 8.40833 13.3334H11.5917C11.2333 14.525 10.6917 15.6334 10 16.6334ZM7.91666 10C7.91666 10.5667 7.975 11.1167 8.05 11.6667H11.95C12.025 11.1167 12.0833 10.5667 12.0833 10C12.0833 9.43335 12.025 8.87502 11.95 8.33335H8.05C7.975 8.87502 7.91666 9.43335 7.91666 10ZM12.1583 16.3C12.6583 15.375 13.0417 14.375 13.3083 13.3334H15.7667C14.9667 14.7084 13.6917 15.775 12.1583 16.3ZM13.75 10C13.75 10.5667 13.7 11.1167 13.6333 11.6667H16.45C16.5833 11.1334 16.6667 10.575 16.6667 10C16.6667 9.42502 16.5833 8.86669 16.45 8.33335H13.6333C13.7 8.88335 13.75 9.43335 13.75 10Z" fill="#3939E6"/>
</svg>
