<svg width="20" height="20" viewBox="0 0 20 20" fill="none" xmlns="http://www.w3.org/2000/svg">
<path fill-rule="evenodd" clip-rule="evenodd" d="M16.25 10C16.25 10.2834 16.225 10.55 16.1917 10.8167L17.95 12.1917C18.1083 12.3167 18.15 12.5417 18.05 12.725L16.3833 15.6084C16.2833 15.7917 16.0667 15.8667 15.875 15.7917L13.8 14.9584C13.3667 15.2834 12.9 15.5667 12.3917 15.775L12.075 17.9834C12.05 18.1834 11.875 18.3334 11.6667 18.3334H8.33334C8.125 18.3334 7.95 18.1834 7.925 17.9834L7.60834 15.775C7.1 15.5667 6.63334 15.2917 6.2 14.9584L4.125 15.7917C3.94167 15.8584 3.71667 15.7917 3.61667 15.6084L1.95 12.725C1.85 12.5417 1.89167 12.3167 2.05 12.1917L3.80834 10.8167C3.775 10.55 3.75 10.275 3.75 10C3.75 9.72502 3.775 9.45002 3.80834 9.18335L2.05 7.80835C1.89167 7.68335 1.84167 7.45835 1.95 7.27502L3.61667 4.39169C3.71667 4.20835 3.93334 4.13335 4.125 4.20835L6.2 5.04169C6.63334 4.71669 7.1 4.43335 7.60834 4.22502L7.925 2.01669C7.95 1.81669 8.125 1.66669 8.33334 1.66669H11.6667C11.875 1.66669 12.05 1.81669 12.075 2.01669L12.3917 4.22502C12.9 4.43335 13.3667 4.70835 13.8 5.04169L15.875 4.20835C16.0583 4.14169 16.2833 4.20835 16.3833 4.39169L18.05 7.27502C18.15 7.45835 18.1083 7.68335 17.95 7.80835L16.1917 9.18335C16.225 9.45002 16.25 9.71669 16.25 10ZM7.08334 10C7.08334 11.6084 8.39167 12.9167 10 12.9167C11.6083 12.9167 12.9167 11.6084 12.9167 10C12.9167 8.39169 11.6083 7.08335 10 7.08335C8.39167 7.08335 7.08334 8.39169 7.08334 10Z" fill="#00BFA0"/>
</svg>
