<svg width="20" height="20" viewBox="0 0 20 20" fill="none" xmlns="http://www.w3.org/2000/svg">
<path d="M2.68848 9.82642L12.6163 5.70396C13.5962 5.27454 16.9197 3.90039 16.9197 3.90039C16.9197 3.90039 18.4536 3.29919 18.3258 4.75923C18.2832 5.36042 17.9423 7.4646 17.6014 9.74054L16.5362 16.4825C16.5362 16.4825 16.451 17.4702 15.7267 17.6419C15.0023 17.8137 13.8093 17.0407 13.5962 16.869C13.4258 16.7401 10.4006 14.8077 9.29279 13.863C8.99453 13.6053 8.65367 13.09 9.3354 12.4888C10.8693 11.0717 12.7015 9.31112 13.8093 8.19462C14.3206 7.67931 14.8319 6.47692 12.7015 7.93696L6.69367 12.0165C6.69367 12.0165 6.01194 12.4459 4.73369 12.0594C3.45543 11.6729 1.96413 11.1576 1.96413 11.1576C1.96413 11.1576 0.941531 10.5135 2.68848 9.82642Z" fill="black"/>
</svg>
