<svg width="20" height="20" viewBox="0 0 20 20" fill="none" xmlns="http://www.w3.org/2000/svg">
<path d="M4.09441 6.53997C7.35597 3.15334 12.6441 3.15334 15.9056 6.53997L16.2982 6.94755C16.4612 7.11689 16.4612 7.39143 16.2982 7.56076L14.9554 8.95503C14.8738 9.0397 14.7416 9.0397 14.6601 8.95503L14.1199 8.39414C11.8446 6.03155 8.15545 6.03155 5.88012 8.39414L5.30164 8.99481C5.2201 9.07947 5.0879 9.07947 5.00636 8.99481L3.66357 7.60054C3.5005 7.4312 3.5005 7.15666 3.66357 6.98733L4.09441 6.53997ZM18.6826 9.42347L19.8777 10.6644C20.0408 10.8337 20.0408 11.1083 19.8777 11.2776L14.489 16.873C14.3259 17.0423 14.0615 17.0423 13.8984 16.873L10.0738 12.9018C10.0331 12.8594 9.96701 12.8594 9.9262 12.9018L6.10172 16.873C5.93865 17.0423 5.67424 17.0423 5.51117 16.873H5.51116L0.122309 11.2775C-0.0407698 11.1082 -0.0407698 10.8336 0.122309 10.6643L1.31739 9.4234C1.48047 9.25407 1.74487 9.25407 1.90795 9.4234L5.73258 13.3946C5.77335 13.437 5.83945 13.437 5.88022 13.3946L9.70467 9.4234C9.86776 9.25407 10.1321 9.25406 10.2952 9.42339C10.2952 9.42339 10.2952 9.42339 10.2952 9.4234L14.1198 13.3946C14.1606 13.437 14.2267 13.437 14.2675 13.3946L18.0921 9.42347C18.2552 9.25414 18.5195 9.25414 18.6826 9.42347Z" fill="#5399F5"/>
</svg>
