<svg width="20" height="20" viewBox="0 0 20 20" fill="none" xmlns="http://www.w3.org/2000/svg">
<path fill-rule="evenodd" clip-rule="evenodd" d="M10 0C15.5228 0 20 4.47715 20 10C20 15.5228 15.5228 20 10 20C4.47715 20 0 15.5228 0 10C0 4.47715 4.47715 0 10 0Z" fill="#F3BA2F"/>
<path fill-rule="evenodd" clip-rule="evenodd" d="M6.31256 7.68628L9.99728 4L13.6833 7.68748L12.3279 9.04339L9.99728 6.712L7.66791 9.04219L6.31256 7.68628ZM11.3754 9.9993L10 8.62341L8.62396 9.99996L10 11.3766L11.3754 9.9993ZM12.3278 10.9567L9.99728 13.288L7.6679 10.9578L6.31052 12.3119L9.99728 16L13.6839 12.3119L12.3278 10.9567ZM13.2892 10.0006L14.6446 8.64465L16 10.0005L14.6445 11.3565L13.2892 10.0006ZM5.35544 8.64392L4 9.99987L5.35536 11.3557L6.7108 9.99979L5.35544 8.64392Z" fill="white"/>
</svg>
