<svg width="40" height="40" viewBox="0 0 40 40" fill="none" xmlns="http://www.w3.org/2000/svg">
<path fill-rule="evenodd" clip-rule="evenodd" d="M26.4535 29.7579C27.3668 30.914 28.4627 32.2222 28.4627 32.2222C35.1902 32.0092 37.7777 27.5979 37.7777 27.5979C37.7777 17.8017 33.3942 9.86129 33.3942 9.86129C29.0106 6.57561 24.8401 6.66688 24.8401 6.66688L24.414 7.15365C29.589 8.73564 31.9939 11.0174 31.9939 11.0174C28.828 9.28326 25.7229 8.43141 22.831 8.09676C20.6392 7.85338 18.5388 7.91422 16.6818 8.1576C16.5224 8.1576 16.3861 8.18079 16.2326 8.20692L16.1643 8.21845C15.0989 8.30972 12.5114 8.70522 9.25413 10.1351C8.1278 10.6523 7.45809 11.0174 7.45809 11.0174C7.45809 11.0174 9.98472 8.61395 15.4642 7.03196L15.1598 6.66688C15.1598 6.66688 10.9893 6.57561 6.60573 9.86129C6.60573 9.86129 2.22217 17.8017 2.22217 27.5979C2.22217 27.5979 4.77925 32.0092 11.5068 32.2222C11.5068 32.2222 12.6331 30.8531 13.5464 29.6971C9.68031 28.541 8.21912 26.1072 8.21912 26.1072C8.21912 26.1072 8.52354 26.3201 9.07149 26.6243C9.10192 26.6548 9.13237 26.6852 9.19325 26.7156C9.23891 26.746 9.28457 26.7689 9.33023 26.7917C9.3759 26.8145 9.42156 26.8373 9.46722 26.8677C10.2283 27.2937 10.9893 27.6283 11.6894 27.9021C12.9375 28.3889 14.4292 28.8756 16.1643 29.2103C18.4474 29.6362 21.1263 29.7883 24.0487 29.2407C25.4794 28.9973 26.9406 28.5714 28.4627 27.9325C29.5281 27.537 30.7153 26.959 31.9634 26.1376C31.9634 26.1376 30.4414 28.6323 26.4535 29.7579ZM14.3073 18.0147C12.5722 18.0147 11.2023 19.5358 11.2023 21.3916C11.2023 23.2474 12.6026 24.7686 14.3073 24.7686C16.0425 24.7686 17.4124 23.2474 17.4124 21.3916C17.4428 19.5358 16.0425 18.0147 14.3073 18.0147ZM25.4184 18.0147C23.6833 18.0147 22.3134 19.5358 22.3134 21.3916C22.3134 23.2474 23.7137 24.7686 25.4184 24.7686C27.1536 24.7686 28.5235 23.2474 28.5235 21.3916C28.5235 19.5358 27.1536 18.0147 25.4184 18.0147Z" fill="#7689D4"/>
</svg>
