<svg width="20" height="20" viewBox="0 0 20 20" fill="none" xmlns="http://www.w3.org/2000/svg">
<path fill-rule="evenodd" clip-rule="evenodd" d="M13.2268 14.879C13.6834 15.457 14.2313 16.1111 14.2313 16.1111C17.5951 16.0046 18.8889 13.799 18.8889 13.799C18.8889 8.90087 16.6971 4.93067 16.6971 4.93067C14.5053 3.28783 12.4201 3.33346 12.4201 3.33346L12.207 3.57685C14.7945 4.36784 15.9969 5.5087 15.9969 5.5087C14.414 4.64165 12.8615 4.21573 11.4155 4.0484C10.3196 3.92671 9.26938 3.95713 8.34092 4.07883C8.26119 4.07883 8.19307 4.09042 8.11629 4.10348L8.08217 4.10925C7.54944 4.15488 6.25568 4.35263 4.62707 5.06757C4.0639 5.32617 3.72905 5.5087 3.72905 5.5087C3.72905 5.5087 4.99236 4.307 7.73209 3.516L7.57988 3.33346C7.57988 3.33346 5.49465 3.28783 3.30287 4.93067C3.30287 4.93067 1.11108 8.90087 1.11108 13.799C1.11108 13.799 2.38962 16.0046 5.7534 16.1111C5.7534 16.1111 6.31656 15.4266 6.77319 14.8486C4.84016 14.2705 4.10956 13.0536 4.10956 13.0536C4.10956 13.0536 4.26177 13.1601 4.53574 13.3122C4.55096 13.3274 4.56618 13.3426 4.59662 13.3578C4.61946 13.373 4.64229 13.3845 4.66512 13.3959C4.68795 13.4073 4.71078 13.4187 4.73361 13.4339C5.11413 13.6469 5.49465 13.8142 5.84472 13.9511C6.46877 14.1945 7.21459 14.4378 8.08217 14.6052C9.22372 14.8181 10.5631 14.8942 12.0243 14.6204C12.7397 14.4987 13.4703 14.2857 14.2313 13.9663C14.7641 13.7685 15.3577 13.4795 15.9817 13.0688C15.9817 13.0688 15.2207 14.3162 13.2268 14.879ZM7.15367 9.00735C6.28608 9.00735 5.60115 9.76793 5.60115 10.6958C5.60115 11.6237 6.30131 12.3843 7.15367 12.3843C8.02125 12.3843 8.70618 11.6237 8.70618 10.6958C8.7214 9.76793 8.02125 9.00735 7.15367 9.00735ZM12.7092 9.00735C11.8416 9.00735 11.1567 9.76793 11.1567 10.6958C11.1567 11.6237 11.8569 12.3843 12.7092 12.3843C13.5768 12.3843 14.2617 11.6237 14.2617 10.6958C14.2617 9.76793 13.5768 9.00735 12.7092 9.00735Z" fill="#606080"/>
</svg>
