<svg width="37" height="20" viewBox="0 0 37 20" fill="none" xmlns="http://www.w3.org/2000/svg">
<path d="M20.8061 9.99987C20.8061 15.5227 16.2604 20 10.6529 20C5.04534 20 0.5 15.524 0.5 9.99987C0.5 4.47568 5.04569 0 10.6529 0C16.2601 0 20.8061 4.47699 20.8061 9.99987Z" fill="black"/>
<path d="M31.9444 9.99998C31.9444 15.1991 29.6714 19.4134 26.8678 19.4134C24.0642 19.4134 21.7911 15.1977 21.7911 9.99998C21.7911 4.80225 24.0642 0.586632 26.8678 0.586632C29.6714 0.586632 31.9444 4.80225 31.9444 9.99998Z" fill="black"/>
<path d="M34.7145 18.4339C35.7005 18.4339 36.5 14.6581 36.5 10C36.5 5.34222 35.7012 1.56603 34.7148 1.56603C33.7285 1.56603 32.9289 5.34323 32.9289 10C32.9289 14.6568 33.7285 18.4339 34.7145 18.4339Z" fill="black"/>
</svg>
