<svg width="41" height="40" viewBox="0 0 41 40" fill="none" xmlns="http://www.w3.org/2000/svg">
<path d="M5.87708 19.6528L25.7326 11.4079C27.6926 10.5491 34.3395 7.80077 34.3395 7.80077C34.3395 7.80077 37.4073 6.59839 37.1517 9.51847C37.0665 10.7208 36.3847 14.9292 35.703 19.4811L33.5726 32.965C33.5726 32.965 33.4022 34.9403 31.9535 35.2838C30.5048 35.6274 28.1187 34.0815 27.6926 33.7379C27.3518 33.4803 21.3013 29.6155 19.0857 27.726C18.4892 27.2107 17.8075 26.1801 19.1709 24.9777C22.2387 22.1435 25.9031 18.6222 28.1187 16.3892C29.1413 15.3586 30.1639 12.9538 25.9031 15.8739L13.8875 24.033C13.8875 24.033 12.524 24.8918 9.96749 24.1188C7.41098 23.3459 4.42839 22.3153 4.42839 22.3153C4.42839 22.3153 2.38318 21.027 5.87708 19.6528Z" fill="#52A3DE"/>
</svg>
