<svg width="20" height="20" viewBox="0 0 20 20" fill="none" xmlns="http://www.w3.org/2000/svg">
<path d="M2.68854 9.82642L12.6163 5.70396C13.5963 5.27454 16.9198 3.90039 16.9198 3.90039C16.9198 3.90039 18.4537 3.29919 18.3258 4.75923C18.2832 5.36042 17.9424 7.4646 17.6015 9.74054L16.5363 16.4825C16.5363 16.4825 16.4511 17.4702 15.7267 17.6419C15.0024 17.8137 13.8094 17.0407 13.5963 16.869C13.4259 16.7401 10.4007 14.8077 9.29285 13.863C8.99459 13.6053 8.65373 13.09 9.33546 12.4888C10.8694 11.0717 12.7015 9.31112 13.8094 8.19462C14.3207 7.67931 14.832 6.47692 12.7015 7.93696L6.69374 12.0165C6.69374 12.0165 6.012 12.4459 4.73375 12.0594C3.45549 11.6729 1.9642 11.1576 1.9642 11.1576C1.9642 11.1576 0.941592 10.5135 2.68854 9.82642Z" fill="#606080"/>
</svg>
