<svg width="20" height="20" viewBox="0 0 20 20" fill="none" xmlns="http://www.w3.org/2000/svg">
<path d="M19.2853 4.24845C18.6023 4.54309 17.859 4.75515 17.0934 4.83774C17.8883 4.3655 18.4835 3.61943 18.7675 2.73952C18.0216 3.18325 17.2044 3.4944 16.3523 3.65917C15.9961 3.27842 15.5654 2.9751 15.0869 2.76811C14.6084 2.56112 14.0924 2.45489 13.571 2.45604C11.4617 2.45604 9.76524 4.16586 9.76524 6.26408C9.76524 6.55872 9.80096 6.85336 9.85899 7.13685C6.70051 6.97167 3.88355 5.46274 2.01078 3.15247C1.66954 3.73532 1.49072 4.39896 1.49292 5.07434C1.49292 6.39577 2.16479 7.56095 3.18935 8.24622C2.58556 8.22244 1.99592 8.05648 1.46837 7.76185V7.80872C1.46837 9.65917 2.7764 11.1926 4.51971 11.5453C4.19238 11.6304 3.85566 11.6738 3.51747 11.6748C3.26971 11.6748 3.03533 11.6502 2.79872 11.6168C3.28087 13.1257 4.68488 14.2217 6.35676 14.2574C5.04872 15.2819 3.41033 15.8846 1.63131 15.8846C1.31212 15.8846 1.01747 15.8735 0.71167 15.8377C2.39917 16.9203 4.4014 17.5453 6.55765 17.5453C13.5577 17.5453 17.388 11.7462 17.388 6.71274C17.388 6.54756 17.388 6.38238 17.3769 6.2172C18.1179 5.67479 18.7675 5.00292 19.2853 4.24845Z" fill="#606080"/>
</svg>
