<svg width="20" height="20" viewBox="0 0 20 20" fill="none" xmlns="http://www.w3.org/2000/svg">
<path d="M19.2853 4.24847C18.6023 4.54312 17.859 4.75517 17.0934 4.83776C17.8883 4.36552 18.4835 3.61946 18.7675 2.73955C18.0216 3.18327 17.2044 3.49442 16.3523 3.65919C15.9962 3.27844 15.5654 2.97513 15.0869 2.76813C14.6084 2.56114 14.0924 2.45491 13.5711 2.45606C11.4617 2.45606 9.76526 4.16589 9.76526 6.2641C9.76526 6.55874 9.80097 6.85339 9.85901 7.13687C6.70053 6.97169 3.88356 5.46276 2.01079 3.15249C1.66955 3.73534 1.49073 4.39898 1.49294 5.07437C1.49294 6.3958 2.16481 7.56098 3.18936 8.24624C2.58558 8.22246 1.99593 8.05651 1.46838 7.76187V7.80874C1.46838 9.65919 2.77642 11.1927 4.51972 11.5454C4.1924 11.6304 3.85567 11.6739 3.51749 11.6748C3.26972 11.6748 3.03535 11.6503 2.79874 11.6168C3.28088 13.1257 4.6849 14.2217 6.35677 14.2574C5.04874 15.282 3.41035 15.8846 1.63133 15.8846C1.31213 15.8846 1.01749 15.8735 0.711685 15.8378C2.39919 16.9204 4.40142 17.5454 6.55767 17.5454C13.5577 17.5454 17.388 11.7462 17.388 6.71276C17.388 6.54758 17.388 6.3824 17.3769 6.21723C18.1179 5.67481 18.7675 5.00294 19.2853 4.24847Z" fill="black"/>
</svg>
