<svg width="40" height="40" viewBox="0 0 40 40" fill="none" xmlns="http://www.w3.org/2000/svg">
<path d="M38.5707 8.49695C37.2046 9.08624 35.718 9.51034 34.1867 9.67552C35.7765 8.73104 36.967 7.23891 37.535 5.47909C36.0431 6.36654 34.4088 6.98884 32.7046 7.31838C31.9923 6.55689 31.1308 5.95025 30.1738 5.53627C29.2168 5.12228 28.1848 4.90982 27.1421 4.91213C22.9233 4.91213 19.5305 8.33177 19.5305 12.5282C19.5305 13.1175 19.6019 13.7068 19.718 14.2737C13.401 13.9434 7.76709 10.9255 4.02155 6.30499C3.33908 7.47068 2.98144 8.79796 2.98584 10.1487C2.98584 12.7916 4.32959 15.122 6.3787 16.4925C5.17113 16.4449 3.99183 16.113 2.93673 15.5237V15.6175C2.93673 19.3184 5.5528 22.3853 9.03941 23.0907C8.38476 23.2607 7.71132 23.3477 7.03495 23.3496C6.53941 23.3496 6.07066 23.3005 5.59745 23.2336C6.56173 26.2514 9.36977 28.4434 12.7135 28.5148C10.0974 30.5639 6.82066 31.7693 3.26263 31.7693C2.62423 31.7693 2.03495 31.747 1.42334 31.6755C4.79834 33.8407 8.8028 35.0907 13.1153 35.0907C27.1153 35.0907 34.776 23.4925 34.776 13.4255C34.776 13.0952 34.776 12.7648 34.7537 12.4345C36.2358 11.3496 37.535 10.0059 38.5707 8.49695Z" fill="#1DA1F2"/>
</svg>
