<svg width="20" height="20" viewBox="0 0 20 20" fill="none" xmlns="http://www.w3.org/2000/svg">
<path d="M13.4785 7.37122C13.5938 7.37122 13.709 7.37512 13.8223 7.38098C13.3457 4.86731 10.7305 2.94543 7.57422 2.94543C4.08203 2.94543 1.25 5.3009 1.25 8.20715C1.25 9.79114 2.10156 11.2189 3.43555 12.1837C3.49057 12.2226 3.53544 12.2741 3.56637 12.3339C3.59731 12.3937 3.61339 12.4601 3.61328 12.5275C3.61328 12.5743 3.60352 12.6173 3.5918 12.6622C3.48438 13.0587 3.31445 13.6935 3.30664 13.7228C3.29297 13.7736 3.27344 13.8243 3.27344 13.8771C3.27344 13.9923 3.36719 14.088 3.48438 14.088C3.5293 14.088 3.56641 14.0704 3.60547 14.0489L4.99023 13.2501C5.09375 13.1896 5.20508 13.1525 5.32617 13.1525C5.38867 13.1525 5.45117 13.1622 5.51172 13.1798C6.1582 13.3654 6.85547 13.4689 7.57617 13.4689C7.69336 13.4689 7.80859 13.4669 7.92383 13.4611C7.78516 13.0509 7.71094 12.6193 7.71094 12.172C7.71094 9.51965 10.293 7.37122 13.4785 7.37122ZM9.68359 5.68176C10.1484 5.68176 10.5273 6.05872 10.5273 6.52356C10.5273 6.9884 10.1504 7.36536 9.68359 7.36536C9.21875 7.36536 8.83984 6.9884 8.83984 6.52356C8.83984 6.05872 9.21875 5.68176 9.68359 5.68176ZM5.4668 7.36536C5.00195 7.36536 4.62305 6.9884 4.62305 6.52356C4.62305 6.05872 5 5.68176 5.4668 5.68176C5.93359 5.68176 6.31055 6.05872 6.31055 6.52356C6.31055 6.9884 5.93164 7.36536 5.4668 7.36536ZM16.9277 15.4825C18.0391 14.6779 18.748 13.4904 18.748 12.1681C18.748 9.74622 16.3887 7.78332 13.4766 7.78332C10.5664 7.78332 8.20508 9.74622 8.20508 12.1681C8.20508 14.59 10.5645 16.5529 13.4766 16.5529C14.0781 16.5529 14.6602 16.4669 15.1973 16.3126C15.248 16.297 15.2988 16.2892 15.3516 16.2892C15.4531 16.2892 15.5449 16.3204 15.6309 16.3693L16.7852 17.0333C16.8184 17.0529 16.8496 17.0665 16.8867 17.0665C16.9099 17.0667 16.9328 17.0623 16.9543 17.0536C16.9757 17.0449 16.9953 17.032 17.0117 17.0157C17.028 16.9993 17.0409 16.9798 17.0496 16.9583C17.0583 16.9369 17.0627 16.9139 17.0625 16.8907C17.0625 16.8478 17.0449 16.8048 17.0352 16.7618C17.0293 16.7384 16.8867 16.2091 16.7969 15.8771C16.7871 15.84 16.7793 15.8029 16.7793 15.7657C16.7813 15.6505 16.8398 15.547 16.9277 15.4825ZM11.7227 11.4689C11.334 11.4689 11.0195 11.1544 11.0195 10.7677C11.0195 10.381 11.334 10.0665 11.7227 10.0665C12.1113 10.0665 12.4258 10.381 12.4258 10.7677C12.4258 11.1544 12.1094 11.4689 11.7227 11.4689ZM15.2363 11.4689C14.8477 11.4689 14.5332 11.1544 14.5332 10.7677C14.5332 10.381 14.8477 10.0665 15.2363 10.0665C15.625 10.0665 15.9395 10.381 15.9395 10.7677C15.9385 10.9537 15.8641 11.1318 15.7324 11.2632C15.6007 11.3945 15.4223 11.4685 15.2363 11.4689Z" fill="#606080"/>
</svg>
