<svg width="564" height="400" viewBox="0 0 564 400" fill="none" xmlns="http://www.w3.org/2000/svg">
<path d="M188 240.36C188 239.255 188.895 238.36 190 238.36H330C331.105 238.36 332 239.255 332 240.36V380.36C332 381.464 331.105 382.36 330 382.36H190C188.895 382.36 188 381.464 188 380.36V240.36Z" fill="url(#paint0_linear)"/>
<path fill-rule="evenodd" clip-rule="evenodd" d="M187 240.36C187 238.703 188.343 237.36 190 237.36H330C331.657 237.36 333 238.703 333 240.36V380.36C333 382.016 331.657 383.36 330 383.36H190C188.343 383.36 187 382.016 187 380.36V240.36ZM190 239.36C189.448 239.36 189 239.807 189 240.36V380.36C189 380.912 189.448 381.36 190 381.36H330C330.552 381.36 331 380.912 331 380.36V240.36C331 239.807 330.552 239.36 330 239.36H190Z" fill="#151526"/>
<path d="M44 112.36C44 111.255 44.8954 110.36 46 110.36H186C187.105 110.36 188 111.255 188 112.36V252.36C188 253.464 187.105 254.36 186 254.36H46C44.8954 254.36 44 253.464 44 252.36V112.36Z" fill="#00FFD4"/>
<path fill-rule="evenodd" clip-rule="evenodd" d="M43 112.36C43 110.703 44.3431 109.36 46 109.36H186C187.657 109.36 189 110.703 189 112.36V252.36C189 254.016 187.657 255.36 186 255.36H46C44.3431 255.36 43 254.016 43 252.36V112.36ZM46 111.36C45.4477 111.36 45 111.807 45 112.36V252.36C45 252.912 45.4477 253.36 46 253.36H186C186.552 253.36 187 252.912 187 252.36V112.36C187 111.807 186.552 111.36 186 111.36H46Z" fill="#151526"/>
<path d="M80 296.36C80 295.255 80.8954 294.36 82 294.36H150C151.105 294.36 152 295.255 152 296.36V364.36C152 365.464 151.105 366.36 150 366.36H82C80.8954 366.36 80 365.464 80 364.36V296.36Z" fill="#3939E6"/>
<path fill-rule="evenodd" clip-rule="evenodd" d="M79 296.36C79 294.703 80.3431 293.36 82 293.36H150C151.657 293.36 153 294.703 153 296.36V364.36C153 366.016 151.657 367.36 150 367.36H82C80.3431 367.36 79 366.016 79 364.36V296.36ZM82 295.36C81.4477 295.36 81 295.807 81 296.36V364.36C81 364.912 81.4477 365.36 82 365.36H150C150.552 365.36 151 364.912 151 364.36V296.36C151 295.807 150.552 295.36 150 295.36H82Z" fill="#151526"/>
<path d="M132 280.36C132 279.255 132.895 278.36 134 278.36H166C167.105 278.36 168 279.255 168 280.36V312.36C168 313.464 167.105 314.36 166 314.36H134C132.895 314.36 132 313.464 132 312.36V280.36Z" fill="#F0F0FF"/>
<path fill-rule="evenodd" clip-rule="evenodd" d="M131 280.36C131 278.703 132.343 277.36 134 277.36H166C167.657 277.36 169 278.703 169 280.36V312.36C169 314.016 167.657 315.36 166 315.36H134C132.343 315.36 131 314.016 131 312.36V280.36ZM134 279.36C133.448 279.36 133 279.807 133 280.36V312.36C133 312.912 133.448 313.36 134 313.36H166C166.552 313.36 167 312.912 167 312.36V280.36C167 279.807 166.552 279.36 166 279.36H134Z" fill="#151526"/>
<path d="M132 294.36H150C151.105 294.36 152 295.255 152 296.36V314.36H134C132.895 314.36 132 313.464 132 312.36V294.36Z" fill="#9999FF"/>
<path fill-rule="evenodd" clip-rule="evenodd" d="M131 293.36H150C151.657 293.36 153 294.703 153 296.36V315.36H134C132.343 315.36 131 314.016 131 312.36V293.36ZM133 295.36V312.36C133 312.912 133.448 313.36 134 313.36H151V296.36C151 295.807 150.552 295.36 150 295.36H133Z" fill="#151526"/>
<path d="M49.024 269.872C45.824 269.808 35.744 270.192 31.968 284.208C31.968 284.208 29.152 269.552 15.648 269.872C2.14399 270.192 -1.31201 283.472 0.447992 289.552C2.20799 295.632 4.54399 306.512 31.968 326.768C31.968 326.768 63.968 303.568 63.968 288.112C63.968 272.656 52.224 269.968 49.024 269.872Z" fill="#FF8CEC"/>
<path fill-rule="evenodd" clip-rule="evenodd" d="M31.968 326.768C31.968 326.768 63.968 303.568 63.968 288.112C63.968 272.656 52.224 269.968 49.024 269.872C46.0988 269.813 37.4248 270.129 33.0721 280.89C32.6632 281.901 32.2923 283.004 31.968 284.208C31.968 284.208 31.6992 282.809 30.9293 280.885C29.2075 276.581 24.9796 269.651 15.648 269.872C2.14399 270.192 -1.31201 283.472 0.447992 289.552C0.508064 289.76 0.568808 289.973 0.631197 290.192C2.39668 296.386 5.48003 307.203 31.968 326.768ZM30.0042 284.587L30.0011 284.571C29.9973 284.553 29.9907 284.522 29.981 284.479C29.9616 284.392 29.93 284.256 29.8842 284.079C29.7925 283.724 29.645 283.205 29.4275 282.579C28.9901 281.318 28.2824 279.657 27.2028 278.022C25.0671 274.786 21.5615 271.732 15.6954 271.871C9.71615 272.013 6.08542 274.967 4.06452 278.537C1.96988 282.238 1.65383 286.525 2.36912 288.996C2.4297 289.205 2.49066 289.419 2.55301 289.638C3.38759 292.566 4.47141 296.368 8.21943 301.693C12.167 307.301 19.1227 314.659 31.9666 324.275C32.0205 324.234 32.0761 324.192 32.1333 324.148C32.9952 323.494 34.2301 322.539 35.7134 321.344C38.6829 318.952 42.6342 315.61 46.5781 311.798C50.5308 307.978 54.4272 303.732 57.3218 299.537C60.2557 295.284 61.968 291.354 61.968 288.112C61.968 280.968 59.2912 277.024 56.4618 274.806C53.5354 272.511 50.2462 271.912 48.9734 271.871C47.495 271.842 44.5971 271.928 41.6656 273.518C38.8005 275.072 35.6586 278.197 33.8991 284.728C33.6568 285.628 32.8256 286.241 31.8947 286.207C30.9651 286.173 30.1819 285.502 30.0047 284.589C30.0045 284.589 30.0044 284.588 30.0043 284.587C30.0043 284.587 30.0042 284.587 30.0042 284.587Z" fill="#151526"/>
<path fill-rule="evenodd" clip-rule="evenodd" d="M9.29046 290.755C9.75719 290.584 10.2741 290.824 10.4451 291.29L9.97561 291.462M9.29046 290.755C8.82373 290.926 8.58396 291.443 8.75492 291.91L9.29046 290.755ZM10.6074 291.738L10.6076 291.739C11.1392 293.212 11.782 294.993 13.3282 297.268C15.0392 299.785 17.8823 302.942 22.9529 306.89C23.3451 307.195 23.4155 307.761 23.1102 308.153C22.8048 308.545 22.2393 308.615 21.8471 308.31C16.6691 304.279 13.6816 300.99 11.8395 298.28C10.1634 295.814 9.457 293.854 8.91584 292.354L8.91502 292.351C8.85999 292.199 8.80705 292.052 8.75492 291.91M10.6074 291.738C10.5527 291.586 10.4987 291.437 10.4451 291.29L10.6074 291.738Z" fill="#151526"/>
<path fill-rule="evenodd" clip-rule="evenodd" d="M69 130C69 128.895 68.1046 128 67 128L35 128C33.8954 128 33 128.895 33 130L33 138C33 139.105 33.8954 140 35 140L67 140C68.1046 140 69 139.105 69 138L69 130ZM69 166C69 164.895 68.1046 164 67 164L35 164C33.8954 164 33 164.895 33 166L33 174C33 175.105 33.8954 176 35 176L67 176C68.1046 176 69 175.105 69 174L69 166Z" fill="white"/>
<path fill-rule="evenodd" clip-rule="evenodd" d="M68 130C68 129.448 67.5523 129 67 129L35 129C34.4477 129 34 129.448 34 130L34 138C34 138.552 34.4477 139 35 139L67 139C67.5523 139 68 138.552 68 138L68 130ZM67 127C68.6569 127 70 128.343 70 130L70 138C70 139.657 68.6569 141 67 141L35 141C33.3431 141 32 139.657 32 138L32 130C32 128.343 33.3431 127 35 127L67 127ZM68 166C68 165.448 67.5523 165 67 165L35 165C34.4477 165 34 165.448 34 166L34 174C34 174.552 34.4477 175 35 175L67 175C67.5523 175 68 174.552 68 174L68 166ZM67 163C68.6569 163 70 164.343 70 166L70 174C70 175.657 68.6569 177 67 177L35 177C33.3431 177 32 175.657 32 174L32 166C32 164.343 33.3431 163 35 163L67 163Z" fill="#151526"/>
<path fill-rule="evenodd" clip-rule="evenodd" d="M479 91.3596C479 90.255 478.105 89.3596 477 89.3596L445 89.3596C443.895 89.3596 443 90.255 443 91.3596L443 99.3596C443 100.464 443.895 101.36 445 101.36L477 101.36C478.105 101.36 479 100.464 479 99.3596L479 91.3596ZM539 91.3596C539 90.2551 538.105 89.3596 537 89.3596L505 89.3596C503.896 89.3596 503 90.255 503 91.3596L503 99.3596C503 100.464 503.896 101.36 505 101.36L537 101.36C538.105 101.36 539 100.464 539 99.3596L539 91.3596Z" fill="#3939E6"/>
<path fill-rule="evenodd" clip-rule="evenodd" d="M445 90.3596C444.448 90.3596 444 90.8073 444 91.3596L444 99.3596C444 99.9119 444.448 100.36 445 100.36L477 100.36C477.552 100.36 478 99.9119 478 99.3596L478 91.3596C478 90.8073 477.552 90.3596 477 90.3596L445 90.3596ZM442 91.3596C442 89.7028 443.343 88.3596 445 88.3596L477 88.3596C478.657 88.3596 480 89.7028 480 91.3596L480 99.3596C480 101.016 478.657 102.36 477 102.36L445 102.36C443.343 102.36 442 101.016 442 99.3596L442 91.3596ZM505 90.3596C504.448 90.3596 504 90.8073 504 91.3596L504 99.3596C504 99.9119 504.448 100.36 505 100.36L537 100.36C537.552 100.36 538 99.9119 538 99.3596L538 91.3596C538 90.8073 537.552 90.3596 537 90.3596L505 90.3596ZM502 91.3596C502 89.7028 503.343 88.3596 505 88.3596L537 88.3596C538.657 88.3596 540 89.7028 540 91.3596L540 99.3596C540 101.016 538.657 102.36 537 102.36L505 102.36C503.343 102.36 502 101.016 502 99.3596L502 91.3596Z" fill="#151526"/>
<path fill-rule="evenodd" clip-rule="evenodd" d="M469 294.36C467.895 294.36 467 295.255 467 296.36V328.36C467 329.464 467.895 330.36 469 330.36H477C478.105 330.36 479 329.464 479 328.36V296.36C479 295.255 478.105 294.36 477 294.36H469ZM505 294.36C503.895 294.36 503 295.255 503 296.36V328.36C503 329.464 503.895 330.36 505 330.36H513C514.105 330.36 515 329.464 515 328.36V296.36C515 295.255 514.105 294.36 513 294.36H505Z" fill="#00FFD4"/>
<path fill-rule="evenodd" clip-rule="evenodd" d="M469 295.36C468.448 295.36 468 295.807 468 296.36V328.36C468 328.912 468.448 329.36 469 329.36H477C477.552 329.36 478 328.912 478 328.36V296.36C478 295.807 477.552 295.36 477 295.36H469ZM466 296.36C466 294.703 467.343 293.36 469 293.36H477C478.657 293.36 480 294.703 480 296.36V328.36C480 330.016 478.657 331.36 477 331.36H469C467.343 331.36 466 330.016 466 328.36V296.36ZM505 295.36C504.448 295.36 504 295.807 504 296.36V328.36C504 328.912 504.448 329.36 505 329.36H513C513.552 329.36 514 328.912 514 328.36V296.36C514 295.807 513.552 295.36 513 295.36H505ZM502 296.36C502 294.703 503.343 293.36 505 293.36H513C514.657 293.36 516 294.703 516 296.36V328.36C516 330.016 514.657 331.36 513 331.36H505C503.343 331.36 502 330.016 502 328.36V296.36Z" fill="#151526"/>
<path d="M458.024 56.872C454.824 56.808 444.744 57.192 440.968 71.208C440.968 71.208 438.152 56.552 424.648 56.872C411.144 57.192 407.688 70.472 409.448 76.552C411.208 82.632 413.544 93.512 440.968 113.768C440.968 113.768 472.968 90.568 472.968 75.112C472.968 59.656 461.224 56.968 458.024 56.872Z" fill="#00FFD4"/>
<path fill-rule="evenodd" clip-rule="evenodd" d="M440.968 113.768C440.968 113.768 472.968 90.568 472.968 75.112C472.968 59.656 461.224 56.968 458.024 56.872C455.099 56.8135 446.425 57.1293 442.072 67.8898C441.663 68.9008 441.292 70.0041 440.968 71.208C440.968 71.208 440.699 69.8088 439.929 67.8846C438.208 63.581 433.98 56.6509 424.648 56.872C411.144 57.192 407.688 70.472 409.448 76.552C409.508 76.7595 409.569 76.9726 409.631 77.1915C411.397 83.3856 414.48 94.2034 440.968 113.768ZM439.004 71.5869L439.001 71.5715C438.997 71.5534 438.991 71.5222 438.981 71.4788C438.962 71.3919 438.93 71.2563 438.884 71.0792C438.793 70.7243 438.645 70.2055 438.427 69.5786C437.99 68.318 437.282 66.6573 436.203 65.0217C434.067 61.786 430.562 58.7324 424.695 58.8714C418.716 59.0131 415.085 61.9668 413.065 65.5372C410.97 69.2378 410.654 73.5249 411.369 75.9959C411.43 76.2051 411.491 76.419 411.553 76.6378C412.388 79.5658 413.471 83.3683 417.219 88.6928C421.167 94.3007 428.123 101.659 440.967 111.275C441.021 111.234 441.076 111.192 441.133 111.148C441.995 110.494 443.23 109.539 444.713 108.344C447.683 105.952 451.634 102.61 455.578 98.7979C459.531 94.9776 463.427 90.7324 466.322 86.5368C469.256 82.284 470.968 78.3545 470.968 75.112C470.968 67.9682 468.291 64.0245 465.462 61.8058C462.535 59.5109 459.246 58.912 457.973 58.8714C456.495 58.8425 453.597 58.9278 450.666 60.518C447.801 62.0722 444.659 65.1974 442.899 71.7283C442.657 72.6277 441.826 73.2408 440.895 73.2066C439.965 73.1725 439.182 72.5021 439.005 71.5893C439.005 71.5886 439.004 71.5879 439.004 71.5873C439.004 71.5871 439.004 71.587 439.004 71.5869Z" fill="#151526"/>
<path fill-rule="evenodd" clip-rule="evenodd" d="M418.29 77.7549C418.757 77.5839 419.274 77.8237 419.445 78.2904L418.976 78.4624M418.29 77.7549C417.824 77.9258 417.584 78.4428 417.755 78.9095L418.29 77.7549ZM419.607 78.7381L419.608 78.7387C420.139 80.2122 420.782 81.9929 422.328 84.2678C424.039 86.7854 426.882 89.9422 431.953 93.8898C432.345 94.1951 432.416 94.7606 432.11 95.1528C431.805 95.545 431.239 95.6154 430.847 95.3101C425.669 91.2789 422.682 87.9901 420.839 85.2796C419.163 82.8135 418.457 80.8544 417.916 79.3535L417.915 79.3513C417.86 79.1986 417.807 79.0518 417.755 78.9095M419.607 78.7381C419.553 78.5863 419.499 78.4367 419.445 78.2904L419.607 78.7381Z" fill="#151526"/>
<path d="M419 138.36C419 137.255 419.895 136.36 421 136.36H561C562.105 136.36 563 137.255 563 138.36V278.36C563 279.464 562.105 280.36 561 280.36H421C419.895 280.36 419 279.464 419 278.36V138.36Z" fill="white"/>
<path fill-rule="evenodd" clip-rule="evenodd" d="M418 138.36C418 136.703 419.343 135.36 421 135.36H561C562.657 135.36 564 136.703 564 138.36V278.36C564 280.016 562.657 281.36 561 281.36H421C419.343 281.36 418 280.016 418 278.36V138.36ZM421 137.36C420.448 137.36 420 137.807 420 138.36V278.36C420 278.912 420.448 279.36 421 279.36H561C561.552 279.36 562 278.912 562 278.36V138.36C562 137.807 561.552 137.36 561 137.36H421Z" fill="#151526"/>
<path d="M275 188.36C275 187.255 275.895 186.36 277 186.36H417C418.105 186.36 419 187.255 419 188.36V328.36C419 329.464 418.105 330.36 417 330.36H277C275.895 330.36 275 329.464 275 328.36V188.36Z" fill="#3939E6"/>
<path fill-rule="evenodd" clip-rule="evenodd" d="M274 188.36C274 186.703 275.343 185.36 277 185.36H417C418.657 185.36 420 186.703 420 188.36V328.36C420 330.016 418.657 331.36 417 331.36H277C275.343 331.36 274 330.016 274 328.36V188.36ZM277 187.36C276.448 187.36 276 187.807 276 188.36V328.36C276 328.912 276.448 329.36 277 329.36H417C417.552 329.36 418 328.912 418 328.36V188.36C418 187.807 417.552 187.36 417 187.36H277Z" fill="#151526"/>
<path d="M275 238.36H330C331.105 238.36 332 239.255 332 240.36V330.36H277C275.895 330.36 275 329.464 275 328.36V238.36Z" fill="url(#paint1_linear)"/>
<path fill-rule="evenodd" clip-rule="evenodd" d="M274 237.36H330C331.657 237.36 333 238.703 333 240.36V331.36H277C275.343 331.36 274 330.016 274 328.36V237.36ZM276 239.36V328.36C276 328.912 276.448 329.36 277 329.36H331V240.36C331 239.807 330.552 239.36 330 239.36H276Z" fill="#151526"/>
<g filter="url(#filter0_d)">
<path d="M182.607 98.9782C145.12 109.023 122.874 147.555 132.918 185.041L151.106 252.917C161.15 290.404 199.682 312.65 237.169 302.606L352.558 271.688C390.045 261.643 412.291 223.111 402.246 185.624L384.059 117.748C374.015 80.2617 335.483 58.0153 297.996 68.0599L182.607 98.9782Z" fill="url(#paint2_linear)"/>
</g>
<g filter="url(#filter1_d)">
<path fill-rule="evenodd" clip-rule="evenodd" d="M183.125 100.91C146.705 110.669 125.092 148.104 134.85 184.524L153.038 252.4C162.796 288.82 200.231 310.433 236.651 300.674L352.04 269.756C388.46 259.997 410.073 222.562 400.315 186.142L382.127 118.266C372.369 81.8462 334.934 60.233 298.514 69.9917L183.125 100.91ZM132.918 185.041C122.874 147.555 145.12 109.023 182.607 98.9782L297.996 68.0599C335.483 58.0153 374.015 80.2617 384.059 117.748L402.246 185.624C412.291 223.111 390.045 261.643 352.558 271.688L237.169 302.606C199.682 312.65 161.15 290.404 151.106 252.917L132.918 185.041Z" fill="#151526"/>
</g>
<g filter="url(#filter2_d)">
<path d="M241.6 34.0655C241.349 33.1283 241.905 32.165 242.843 31.9139L300.537 16.4547C301.474 16.2036 302.437 16.7598 302.689 17.6969L309.054 41.4535C309.305 42.3907 308.749 43.3539 307.812 43.6051L250.117 59.0643C249.18 59.3154 248.217 58.7592 247.966 57.8221L241.6 34.0655Z" fill="url(#paint3_linear)"/>
<path d="M154.604 55.5574C153.667 55.8085 153.111 56.7718 153.362 57.709L159.727 81.4655C159.978 82.4027 160.942 82.9589 161.879 82.7078L219.573 67.2486C220.51 66.9974 221.067 66.0341 220.815 65.097L214.45 41.3404C214.199 40.4032 213.236 39.8471 212.298 40.0982L154.604 55.5574Z" fill="url(#paint4_linear)"/>
</g>
<g filter="url(#filter3_d)">
<path fill-rule="evenodd" clip-rule="evenodd" d="M243.595 33.7828L249.835 57.0695L307.059 41.7362L300.82 18.4495L243.595 33.7828ZM155.356 57.4263L161.596 80.7129L218.821 65.3797L212.581 42.093L155.356 57.4263ZM153.362 57.709C153.111 56.7718 153.667 55.8085 154.604 55.5574L212.298 40.0982C213.236 39.8471 214.199 40.4032 214.45 41.3404L220.815 65.097C221.067 66.0341 220.51 66.9974 219.573 67.2486L161.879 82.7078C160.942 82.9589 159.978 82.4027 159.727 81.4655L153.362 57.709ZM242.843 31.9139C241.905 32.165 241.349 33.1283 241.6 34.0655L247.966 57.8221C248.217 58.7592 249.18 59.3154 250.117 59.0643L307.812 43.6051C308.749 43.3539 309.305 42.3907 309.054 41.4535L302.689 17.6969C302.437 16.7598 301.474 16.2036 300.537 16.4547L242.843 31.9139Z" fill="#151526"/>
</g>
<g filter="url(#filter4_di)">
<path d="M189.882 126.129L305.271 95.2102C327.763 89.1835 350.882 102.531 356.909 125.023L375.096 192.899C381.123 215.391 367.775 238.51 345.283 244.537L229.894 275.456C207.402 281.482 184.283 268.134 178.256 245.642L160.069 177.767C154.042 155.274 167.39 132.155 189.882 126.129Z" fill="url(#paint5_linear)"/>
</g>
<g filter="url(#filter5_d)">
<path d="M204.975 162.097C204.038 162.348 203.482 163.311 203.733 164.248L219.192 221.943C219.443 222.88 220.407 223.436 221.344 223.185L245.1 216.82C246.038 216.568 246.594 215.605 246.343 214.668L230.883 156.973C230.632 156.036 229.669 155.48 228.732 155.731L204.975 162.097Z" fill="#00FFD4"/>
<path d="M286.426 140.272C285.489 140.523 284.933 141.486 285.184 142.424L300.643 200.118C300.894 201.055 301.858 201.611 302.795 201.36L326.551 194.995C327.489 194.744 328.045 193.78 327.794 192.843L312.334 135.149C312.083 134.212 311.12 133.655 310.183 133.906L286.426 140.272Z" fill="#00FFD4"/>
</g>
<defs>
<filter id="filter0_d" x="118.507" y="57.648" width="298.152" height="263.37" filterUnits="userSpaceOnUse" color-interpolation-filters="sRGB">
<feFlood flood-opacity="0" result="BackgroundImageFix"/>
<feColorMatrix in="SourceAlpha" type="matrix" values="0 0 0 0 0 0 0 0 0 0 0 0 0 0 0 0 0 0 127 0"/>
<feOffset dy="4"/>
<feGaussianBlur stdDeviation="6"/>
<feColorMatrix type="matrix" values="0 0 0 0 1 0 0 0 0 0.52549 0 0 0 0 0.898039 0 0 0 0.3 0"/>
<feBlend mode="normal" in2="BackgroundImageFix" result="effect1_dropShadow"/>
<feBlend mode="normal" in="SourceGraphic" in2="effect1_dropShadow" result="shape"/>
</filter>
<filter id="filter1_d" x="114.507" y="53.648" width="306.152" height="271.37" filterUnits="userSpaceOnUse" color-interpolation-filters="sRGB">
<feFlood flood-opacity="0" result="BackgroundImageFix"/>
<feColorMatrix in="SourceAlpha" type="matrix" values="0 0 0 0 0 0 0 0 0 0 0 0 0 0 0 0 0 0 127 0"/>
<feOffset dy="4"/>
<feGaussianBlur stdDeviation="8"/>
<feColorMatrix type="matrix" values="0 0 0 0 1 0 0 0 0 0.52549 0 0 0 0 0.898039 0 0 0 0.5 0"/>
<feBlend mode="normal" in2="BackgroundImageFix" result="effect1_dropShadow"/>
<feBlend mode="normal" in="SourceGraphic" in2="effect1_dropShadow" result="shape"/>
</filter>
<filter id="filter2_d" x="141.301" y="8.39441" width="179.813" height="90.3736" filterUnits="userSpaceOnUse" color-interpolation-filters="sRGB">
<feFlood flood-opacity="0" result="BackgroundImageFix"/>
<feColorMatrix in="SourceAlpha" type="matrix" values="0 0 0 0 0 0 0 0 0 0 0 0 0 0 0 0 0 0 127 0"/>
<feOffset dy="4"/>
<feGaussianBlur stdDeviation="6"/>
<feColorMatrix type="matrix" values="0 0 0 0 1 0 0 0 0 0.52549 0 0 0 0 0.898039 0 0 0 0.3 0"/>
<feBlend mode="normal" in2="BackgroundImageFix" result="effect1_dropShadow"/>
<feBlend mode="normal" in="SourceGraphic" in2="effect1_dropShadow" result="shape"/>
</filter>
<filter id="filter3_d" x="141.301" y="6.39441" width="179.813" height="90.3736" filterUnits="userSpaceOnUse" color-interpolation-filters="sRGB">
<feFlood flood-opacity="0" result="BackgroundImageFix"/>
<feColorMatrix in="SourceAlpha" type="matrix" values="0 0 0 0 0 0 0 0 0 0 0 0 0 0 0 0 0 0 127 0"/>
<feOffset dy="2"/>
<feGaussianBlur stdDeviation="6"/>
<feColorMatrix type="matrix" values="0 0 0 0 1 0 0 0 0 0.52549 0 0 0 0 0.898039 0 0 0 0.3 0"/>
<feBlend mode="normal" in2="BackgroundImageFix" result="effect1_dropShadow"/>
<feBlend mode="normal" in="SourceGraphic" in2="effect1_dropShadow" result="shape"/>
</filter>
<filter id="filter4_di" x="158.622" y="93.7631" width="217.922" height="184.14" filterUnits="userSpaceOnUse" color-interpolation-filters="sRGB">
<feFlood flood-opacity="0" result="BackgroundImageFix"/>
<feColorMatrix in="SourceAlpha" type="matrix" values="0 0 0 0 0 0 0 0 0 0 0 0 0 0 0 0 0 0 127 0"/>
<feOffset dy="1"/>
<feColorMatrix type="matrix" values="0 0 0 0 1 0 0 0 0 1 0 0 0 0 1 0 0 0 0.8 0"/>
<feBlend mode="normal" in2="BackgroundImageFix" result="effect1_dropShadow"/>
<feBlend mode="normal" in="SourceGraphic" in2="effect1_dropShadow" result="shape"/>
<feColorMatrix in="SourceAlpha" type="matrix" values="0 0 0 0 0 0 0 0 0 0 0 0 0 0 0 0 0 0 127 0" result="hardAlpha"/>
<feOffset dy="1"/>
<feComposite in2="hardAlpha" operator="arithmetic" k2="-1" k3="1"/>
<feColorMatrix type="matrix" values="0 0 0 0 0 0 0 0 0 1 0 0 0 0 0.831373 0 0 0 0.5 0"/>
<feBlend mode="normal" in2="shape" result="effect2_innerShadow"/>
</filter>
<filter id="filter5_d" x="195.673" y="125.846" width="140.181" height="105.399" filterUnits="userSpaceOnUse" color-interpolation-filters="sRGB">
<feFlood flood-opacity="0" result="BackgroundImageFix"/>
<feColorMatrix in="SourceAlpha" type="matrix" values="0 0 0 0 0 0 0 0 0 0 0 0 0 0 0 0 0 0 127 0"/>
<feOffset/>
<feGaussianBlur stdDeviation="4"/>
<feColorMatrix type="matrix" values="0 0 0 0 0 0 0 0 0 1 0 0 0 0 0.831373 0 0 0 0.5 0"/>
<feBlend mode="normal" in2="BackgroundImageFix" result="effect1_dropShadow"/>
<feBlend mode="normal" in="SourceGraphic" in2="effect1_dropShadow" result="shape"/>
</filter>
<linearGradient id="paint0_linear" x1="260" y1="238.36" x2="260" y2="382.36" gradientUnits="userSpaceOnUse">
<stop stop-color="#313159"/>
<stop offset="1" stop-color="#151526"/>
</linearGradient>
<linearGradient id="paint1_linear" x1="303.5" y1="238.36" x2="303.5" y2="330.36" gradientUnits="userSpaceOnUse">
<stop stop-color="#00AAFF"/>
<stop offset="1" stop-color="#1AD9FF"/>
</linearGradient>
<linearGradient id="paint2_linear" x1="240.302" y1="83.5191" x2="294.863" y2="287.147" gradientUnits="userSpaceOnUse">
<stop stop-color="#FF8CDF"/>
<stop offset="1" stop-color="#FF80EA"/>
</linearGradient>
<linearGradient id="paint3_linear" x1="227.57" y1="36.0061" x2="234.845" y2="63.1564" gradientUnits="userSpaceOnUse">
<stop stop-color="#FF8CDF"/>
<stop offset="1" stop-color="#FF80EA"/>
</linearGradient>
<linearGradient id="paint4_linear" x1="227.57" y1="36.0061" x2="234.845" y2="63.1564" gradientUnits="userSpaceOnUse">
<stop stop-color="#FF8CDF"/>
<stop offset="1" stop-color="#FF80EA"/>
</linearGradient>
<linearGradient id="paint5_linear" x1="247.577" y1="110.669" x2="287.589" y2="259.996" gradientUnits="userSpaceOnUse">
<stop stop-color="#313159"/>
<stop offset="1" stop-color="#2C2340"/>
</linearGradient>
</defs>
</svg>
