<svg width="100" height="180" viewBox="0 0 100 180" fill="none" xmlns="http://www.w3.org/2000/svg">
<rect x="22" y="14" width="22" height="70" rx="1" fill="#00FFD4" stroke="#151526" stroke-width="2"/>
<mask id="path-2-inside-1" fill="white">
<path fill-rule="evenodd" clip-rule="evenodd" d="M23 95C21.8954 95 21 95.8954 21 97V113C21 114.105 21.8954 115 23 115H73C74.1046 115 75 114.105 75 113V97C75 95.8954 74.1046 95 73 95H23ZM23 123C21.8954 123 21 123.895 21 125V141C21 142.105 21.8954 143 23 143H73C74.1046 143 75 142.105 75 141V125C75 123.895 74.1046 123 73 123H23Z"/>
</mask>
<path fill-rule="evenodd" clip-rule="evenodd" d="M23 95C21.8954 95 21 95.8954 21 97V113C21 114.105 21.8954 115 23 115H73C74.1046 115 75 114.105 75 113V97C75 95.8954 74.1046 95 73 95H23ZM23 123C21.8954 123 21 123.895 21 125V141C21 142.105 21.8954 143 23 143H73C74.1046 143 75 142.105 75 141V125C75 123.895 74.1046 123 73 123H23Z" fill="white"/>
<path d="M23 97V97V93C20.7909 93 19 94.7909 19 97H23ZM23 113V97H19V113H23ZM23 113H23H19C19 115.209 20.7909 117 23 117V113ZM73 113H23V117H73V113ZM73 113V117C75.2091 117 77 115.209 77 113H73ZM73 97V113H77V97H73ZM73 97H77C77 94.7909 75.2091 93 73 93V97ZM23 97H73V93H23V97ZM23 125V121C20.7909 121 19 122.791 19 125H23ZM23 141V125H19V141H23ZM23 141H23H19C19 143.209 20.7909 145 23 145V141ZM73 141H23V145H73V141ZM73 141V145C75.2091 145 77 143.209 77 141H73ZM73 125V141H77V125H73ZM73 125H77C77 122.791 75.2091 121 73 121V125ZM23 125H73V121H23V125Z" fill="#151526" mask="url(#path-2-inside-1)"/>
<path d="M78 49C78 67.9955 62.8675 83.4567 44 83.986V65.9711C52.9234 65.4535 60 58.0531 60 49C60 39.9469 52.9234 32.5465 44 32.0289V14.014C62.8675 14.5433 78 30.0045 78 49Z" fill="white" stroke="black" stroke-width="2"/>
<rect x="22" y="96" width="22" height="70" rx="1" fill="#00FFD4" stroke="#151526" stroke-width="2"/>
</svg>
