<svg width="100" height="180" viewBox="0 0 100 180" fill="none" xmlns="http://www.w3.org/2000/svg">
<circle cx="51" cy="108" r="31" fill="#F0F0FF" stroke="black" stroke-width="2"/>
<circle cx="51" cy="144" r="31" fill="#3939E6" stroke="black" stroke-width="2"/>
<path d="M69.9534 4.00244L69.9533 4.00244C69.4047 3.046 68.1838 2.7133 67.2267 3.26948L9.98303 36.5336C9.48652 36.8221 9.1395 37.3103 9.02755 37.8718L3.03984 67.9015C2.70649 69.5733 4.49434 70.8952 5.99343 70.0241L36.195 52.4741L74.9283 119.998C75.477 120.954 76.6979 121.287 77.655 120.731L96.0056 110.067C96.959 109.513 97.2807 108.292 96.7342 107.339L57.9971 39.8092C57.9968 39.8086 57.9966 39.8081 57.9965 39.8079C57.9965 39.8078 57.9965 39.8076 57.9965 39.8074L57.9968 39.8054C57.9968 39.8053 57.9969 39.8051 57.9969 39.805L80.6473 26.643C81.6006 26.089 81.9223 24.8678 81.3758 23.9151L69.9534 4.00244Z" fill="white" stroke="#151526" stroke-width="2"/>
</svg>
