<?xml version="1.0" encoding="utf-8"?>
<!-- Generator: Adobe Illustrator 25.2.1, SVG Export Plug-In . SVG Version: 6.00 Build 0)  -->
<svg version="1.1" id="图层_1" xmlns="http://www.w3.org/2000/svg" xmlns:xlink="http://www.w3.org/1999/xlink" x="0px" y="0px"
	 viewBox="0 0 1152 48" style="enable-background:new 0 0 1152 48;" xml:space="preserve">
<style type="text/css">
	.st0{fill:#FF8CEC;}
	.st1{fill-rule:evenodd;clip-rule:evenodd;fill:#151526;}
	.st2{fill:#232340;}
	.st3{fill:#00FFD4;}
	.st4{fill:#FFFFFF;}
	.st5{fill:#3939E6;}
	.st6{fill:#F0F2FF;}
	.st7{opacity:0.7;}
	.st8{opacity:0.5;}
	.st9{opacity:0.3;}
	.st10{fill:#FFFFFF;stroke:#151526;stroke-width:0.25;}
	.st11{opacity:0.15;}
	.st12{fill:#606080;}
	.st13{fill:#00FFD4;stroke:#151526;stroke-width:0.25;}
	.st14{fill:#FF8CEC;stroke:#151526;stroke-width:0.25;}
</style>
<path class="st0" d="M11.1,0.1c0-0.1,0.1-0.1,0.1-0.1h4.6c0.1,0,0.1,0.1,0.1,0.1V2c0,0.1-0.1,0.1-0.1,0.1h-4.6
	c-0.1,0-0.1-0.1-0.1-0.1V0.1z"/>
<path class="st0" d="M5.4,3.8C2.4,3.8,0,6.2,0,9.2v5.4c0,3,2.4,5.4,5.4,5.4h9.2c3,0,5.4-2.4,5.4-5.4V9.2c0-3-2.4-5.4-5.4-5.4H5.4z"
	/>
<path class="st0" d="M4.2,0C4.1,0,4.1,0.1,4.1,0.1V2c0,0.1,0.1,0.1,0.1,0.1h4.6c0.1,0,0.1-0.1,0.1-0.1V0.1C8.9,0.1,8.9,0,8.8,0H4.2z
	"/>
<path class="st1" d="M11.3,0.3v1.7h4.4V0.3H11.3z M5.4,4C2.6,4,0.2,6.3,0.2,9.2v5.4c0,2.8,2.3,5.2,5.2,5.2h9.2
	c2.8,0,5.2-2.3,5.2-5.2V9.2c0-2.8-2.3-5.2-5.2-5.2H5.4z M4.3,0.3v1.7h4.4V0.3H4.3z M11.1,0.1c0-0.1,0.1-0.1,0.1-0.1h4.6
	c0.1,0,0.1,0.1,0.1,0.1V2c0,0.1-0.1,0.1-0.1,0.1h-4.6c-0.1,0-0.1-0.1-0.1-0.1V0.1z M5.4,3.8C2.4,3.8,0,6.2,0,9.2v5.4
	c0,3,2.4,5.4,5.4,5.4h9.2c3,0,5.4-2.4,5.4-5.4V9.2c0-3-2.4-5.4-5.4-5.4H5.4z M4.1,0.1C4.1,0.1,4.1,0,4.2,0h4.6
	c0.1,0,0.1,0.1,0.1,0.1V2c0,0.1-0.1,0.1-0.1,0.1H4.2C4.1,2.2,4.1,2.1,4.1,2V0.1z"/>
<path class="st2" d="M5.4,5.9h9.2c1.8,0,3.2,1.5,3.2,3.2v5.4c0,1.8-1.5,3.2-3.2,3.2H5.4c-1.8,0-3.2-1.5-3.2-3.2V9.2
	C2.2,7.4,3.6,5.9,5.4,5.9z"/>
<path class="st0" d="M5.8,8.9C5.7,8.9,5.7,9,5.7,9.1v4.6c0,0.1,0.1,0.1,0.1,0.1h1.9c0.1,0,0.1-0.1,0.1-0.1V9.1
	c0-0.1-0.1-0.1-0.1-0.1H5.8z"/>
<path class="st0" d="M12.3,8.9c-0.1,0-0.1,0.1-0.1,0.1v4.6c0,0.1,0.1,0.1,0.1,0.1h1.9c0.1,0,0.1-0.1,0.1-0.1V9.1
	c0-0.1-0.1-0.1-0.1-0.1H12.3z"/>
<path class="st3" d="M15.3,29.2c-1,0-4.2,0.1-5.3,4.5c0,0-0.9-4.6-5.1-4.5c-4.2,0.1-5.3,4.2-4.8,6.2C0.7,37.3,1.4,40.7,10,47
	c0,0,10-7.2,10-12.1S16.3,29.2,15.3,29.2z"/>
<path class="st1" d="M10,47c0,0,10-7.2,10-12.1s-3.7-5.7-4.7-5.7c-1,0-3.9,0.1-5.2,4c0,0.2-0.1,0.3-0.1,0.5c0,0,0-0.2-0.1-0.5
	c-0.4-1.2-1.6-4.1-5-4c-4.2,0.1-5.3,4.2-4.8,6.2c0,0.1,0,0.1,0.1,0.2C0.7,37.5,1.7,40.9,10,47z M9.7,33.7L9.7,33.7L9.7,33.7
	C9.7,33.7,9.7,33.7,9.7,33.7c0-0.1,0-0.1,0-0.2c0-0.1-0.1-0.3-0.2-0.5c-0.1-0.4-0.4-1-0.7-1.5c-0.7-1.1-1.9-2.1-3.9-2.1
	c-2,0-3.3,1.1-4,2.3c-0.7,1.2-0.8,2.7-0.6,3.6c0,0.1,0,0.1,0.1,0.2c0.3,0.9,0.6,2.2,1.8,3.9c1.3,1.8,3.6,4.2,7.7,7.3
	c0.1-0.1,0.2-0.1,0.3-0.2c0.3-0.2,0.7-0.5,1.1-0.9c0.9-0.8,2.2-1.8,3.4-3c1.2-1.2,2.5-2.5,3.4-3.9c0.9-1.3,1.5-2.7,1.5-3.8
	c0-2.3-0.9-3.7-1.9-4.5c-1-0.8-2.1-1-2.6-1c-0.5,0-1.5,0-2.5,0.6c-1,0.5-2,1.6-2.6,3.7c0,0.1-0.1,0.2-0.3,0.2
	C9.9,33.9,9.8,33.9,9.7,33.7L9.7,33.7L9.7,33.7L9.7,33.7z"/>
<path class="st1" d="M3,35.9c0.1,0,0.1,0,0.2,0.1c0,0,0,0.1,0.1,0.1c0.2,0.5,0.4,1,0.9,1.8c0.5,0.8,1.4,1.8,3,3c0.1,0,0.1,0.1,0,0.2
	s-0.1,0.1-0.2,0c-1.6-1.3-2.5-2.3-3.1-3.1c-0.5-0.8-0.7-1.4-0.9-1.8c0,0,0-0.1-0.1-0.1C2.9,36,2.9,35.9,3,35.9z"/>
<path class="st4" d="M34.1,7C34.1,7,34,7.1,34,7.2v5.7c0,0.1,0.1,0.2,0.1,0.2h1.8c0.1,0,0.1-0.1,0.1-0.2V7.2C36,7.1,35.9,7,35.9,7
	H34.1z"/>
<path class="st4" d="M40.1,7C40.1,7,40,7.1,40,7.2v5.7c0,0.1,0.1,0.2,0.1,0.2h1.8c0.1,0,0.1-0.1,0.1-0.2V7.2C42,7.1,41.9,7,41.9,7
	H40.1z"/>
<path class="st1" d="M34.2,7.3v5.5h1.5V7.3H34.2z M40.2,7.3v5.5h1.5V7.3H40.2z M34,7.2C34,7.1,34.1,7,34.1,7h1.8
	C35.9,7,36,7.1,36,7.2v5.7c0,0.1-0.1,0.2-0.1,0.2h-1.8c-0.1,0-0.1-0.1-0.1-0.2V7.2z M40,7.2C40,7.1,40.1,7,40.1,7h1.8
	C41.9,7,42,7.1,42,7.2v5.7c0,0.1-0.1,0.2-0.1,0.2h-1.8c-0.1,0-0.1-0.1-0.1-0.2V7.2z"/>
<path class="st0" d="M39.1,28.1c0-0.1,0.1-0.1,0.1-0.1h4.6c0.1,0,0.1,0.1,0.1,0.1V30c0,0.1-0.1,0.1-0.1,0.1h-4.6
	c-0.1,0-0.1-0.1-0.1-0.1V28.1z"/>
<path class="st0" d="M33.4,31.8c-3,0-5.4,2.4-5.4,5.4v5.4c0,3,2.4,5.4,5.4,5.4h9.2c3,0,5.4-2.4,5.4-5.4v-5.4c0-3-2.4-5.4-5.4-5.4
	H33.4z"/>
<path class="st0" d="M32.2,28c-0.1,0-0.1,0.1-0.1,0.1V30c0,0.1,0.1,0.1,0.1,0.1h4.6c0.1,0,0.1-0.1,0.1-0.1v-1.9
	c0-0.1-0.1-0.1-0.1-0.1H32.2z"/>
<path class="st1" d="M39.3,28.2v1.7h4.4v-1.7H39.3z M33.4,32c-2.8,0-5.2,2.3-5.2,5.2v5.4c0,2.8,2.3,5.2,5.2,5.2h9.2
	c2.8,0,5.2-2.3,5.2-5.2v-5.4c0-2.8-2.3-5.2-5.2-5.2H33.4z M32.3,28.2v1.7h4.4v-1.7H32.3z M39.1,28.1c0-0.1,0.1-0.1,0.1-0.1h4.6
	c0.1,0,0.1,0.1,0.1,0.1V30c0,0.1-0.1,0.1-0.1,0.1h-4.6c-0.1,0-0.1-0.1-0.1-0.1V28.1z M33.4,31.8c-3,0-5.4,2.4-5.4,5.4v5.4
	c0,3,2.4,5.4,5.4,5.4h9.2c3,0,5.4-2.4,5.4-5.4v-5.4c0-3-2.4-5.4-5.4-5.4H33.4z M32.1,28.1c0-0.1,0.1-0.1,0.1-0.1h4.6
	c0.1,0,0.1,0.1,0.1,0.1V30c0,0.1-0.1,0.1-0.1,0.1h-4.6c-0.1,0-0.1-0.1-0.1-0.1V28.1z"/>
<path class="st5" d="M33.4,33.9h9.2c1.8,0,3.2,1.5,3.2,3.2v5.4c0,1.8-1.5,3.2-3.2,3.2h-9.2c-1.8,0-3.2-1.5-3.2-3.2v-5.4
	C30.2,35.4,31.6,33.9,33.4,33.9z"/>
<path class="st6" d="M33.8,36.9c-0.1,0-0.1,0.1-0.1,0.1v4.6c0,0.1,0.1,0.1,0.1,0.1h1.9c0.1,0,0.1-0.1,0.1-0.1v-4.6
	c0-0.1-0.1-0.1-0.1-0.1H33.8z"/>
<path class="st6" d="M40.3,36.9c-0.1,0-0.1,0.1-0.1,0.1v4.6c0,0.1,0.1,0.1,0.1,0.1h1.9c0.1,0,0.1-0.1,0.1-0.1v-4.6
	c0-0.1-0.1-0.1-0.1-0.1H40.3z"/>
<g class="st7">
	<path class="st0" d="M75.9,11.1c0.1,0,0.1,0.1,0.1,0.1v4.6c0,0.1-0.1,0.1-0.1,0.1H74c-0.1,0-0.1-0.1-0.1-0.1v-4.6
		c0-0.1,0.1-0.1,0.1-0.1H75.9z"/>
	<path class="st0" d="M72.2,5.4c0-3-2.4-5.4-5.4-5.4l-5.4,0c-3,0-5.4,2.4-5.4,5.4v9.2c0,3,2.4,5.4,5.4,5.4h5.4c3,0,5.4-2.4,5.4-5.4
		V5.4z"/>
	<path class="st0" d="M76,4.2c0-0.1-0.1-0.1-0.1-0.1H74c-0.1,0-0.1,0.1-0.1,0.1v4.6c0,0.1,0.1,0.1,0.1,0.1h1.9
		c0.1,0,0.1-0.1,0.1-0.1V4.2z"/>
	<path class="st1" d="M75.8,11.3h-1.7v4.4h1.7V11.3z M72,5.4c0-2.8-2.3-5.2-5.2-5.2l-5.4,0c-2.8,0-5.2,2.3-5.2,5.2v9.2
		c0,2.8,2.3,5.2,5.2,5.2h5.4c2.8,0,5.2-2.3,5.2-5.2V5.4z M75.8,4.3h-1.7v4.4h1.7V4.3z M75.9,11.1c0.1,0,0.1,0.1,0.1,0.1v4.6
		c0,0.1-0.1,0.1-0.1,0.1H74c-0.1,0-0.1-0.1-0.1-0.1v-4.6c0-0.1,0.1-0.1,0.1-0.1H75.9z M72.2,5.4c0-3-2.4-5.4-5.4-5.4l-5.4,0
		c-3,0-5.4,2.4-5.4,5.4v9.2c0,3,2.4,5.4,5.4,5.4h5.4c3,0,5.4-2.4,5.4-5.4V5.4z M75.9,4.1c0.1,0,0.1,0.1,0.1,0.1v4.6
		c0,0.1-0.1,0.1-0.1,0.1H74c-0.1,0-0.1-0.1-0.1-0.1V4.2c0-0.1,0.1-0.1,0.1-0.1H75.9z"/>
	<path class="st2" d="M70.1,5.4v9.2c0,1.8-1.5,3.2-3.2,3.2h-5.4c-1.8,0-3.2-1.5-3.2-3.2V5.4c0-1.8,1.5-3.2,3.2-3.2h5.4
		C68.6,2.2,70.1,3.6,70.1,5.4z"/>
	<path class="st4" d="M67.1,5.8c0-0.1-0.1-0.1-0.1-0.1h-4.6c-0.1,0-0.1,0.1-0.1,0.1v1.9c0,0.1,0.1,0.1,0.1,0.1h4.6
		c0.1,0,0.1-0.1,0.1-0.1V5.8z"/>
	<path class="st4" d="M67.1,12.3c0-0.1-0.1-0.1-0.1-0.1h-4.6c-0.1,0-0.1,0.1-0.1,0.1v1.9c0,0.1,0.1,0.1,0.1,0.1h4.6
		c0.1,0,0.1-0.1,0.1-0.1V12.3z"/>
	<path class="st0" d="M71.3,29.2c-1,0-4.2,0.1-5.3,4.5c0,0-0.9-4.6-5.1-4.5c-4.2,0.1-5.3,4.2-4.8,6.2c0.6,1.9,1.3,5.3,9.8,11.6
		c0,0,10-7.2,10-12.1S72.3,29.2,71.3,29.2z"/>
	<path class="st1" d="M66,47c0,0,10-7.2,10-12.1s-3.7-5.7-4.7-5.7c-1,0-3.9,0.1-5.2,4c0,0.2-0.1,0.3-0.1,0.5c0,0,0-0.2-0.1-0.5
		c-0.4-1.2-1.6-4.1-5-4c-4.2,0.1-5.3,4.2-4.8,6.2c0,0.1,0,0.1,0.1,0.2C56.7,37.5,57.7,40.9,66,47z M65.7,33.7L65.7,33.7L65.7,33.7
		C65.7,33.7,65.7,33.7,65.7,33.7c0-0.1,0-0.1,0-0.2c0-0.1-0.1-0.3-0.2-0.5c-0.1-0.4-0.4-1-0.7-1.5c-0.7-1.1-1.9-2.1-3.9-2.1
		c-2,0-3.3,1.1-4,2.3c-0.7,1.2-0.8,2.7-0.6,3.6c0,0.1,0,0.1,0.1,0.2c0.3,0.9,0.6,2.2,1.8,3.9c1.3,1.8,3.6,4.2,7.7,7.3
		c0.1-0.1,0.2-0.1,0.3-0.2c0.3-0.2,0.7-0.5,1.1-0.9c0.9-0.8,2.2-1.8,3.4-3c1.2-1.2,2.5-2.5,3.4-3.9c0.9-1.3,1.5-2.7,1.5-3.8
		c0-2.3-0.9-3.7-1.9-4.5c-1-0.8-2.1-1-2.6-1c-0.5,0-1.5,0-2.5,0.6c-1,0.5-2,1.6-2.6,3.7c0,0.1-0.1,0.2-0.3,0.2
		C65.9,33.9,65.8,33.9,65.7,33.7L65.7,33.7L65.7,33.7L65.7,33.7z"/>
	<path class="st1" d="M59,35.9c0.1,0,0.1,0,0.2,0.1c0,0,0,0.1,0.1,0.1c0.2,0.5,0.4,1,0.9,1.8c0.5,0.8,1.4,1.8,3,3
		c0.1,0,0.1,0.1,0,0.2c0,0.1-0.1,0.1-0.2,0c-1.6-1.3-2.5-2.3-3.1-3.1c-0.5-0.8-0.7-1.4-0.9-1.8c0,0,0-0.1-0.1-0.1
		C58.9,36,58.9,35.9,59,35.9z"/>
</g>
<g class="st8">
	<path class="st0" d="M95.1,28.1c0-0.1,0.1-0.1,0.1-0.1h4.6c0.1,0,0.1,0.1,0.1,0.1V30c0,0.1-0.1,0.1-0.1,0.1h-4.6
		c-0.1,0-0.1-0.1-0.1-0.1V28.1z"/>
	<path class="st0" d="M89.4,31.8c-3,0-5.4,2.4-5.4,5.4v5.4c0,3,2.4,5.4,5.4,5.4h9.2c3,0,5.4-2.4,5.4-5.4v-5.4c0-3-2.4-5.4-5.4-5.4
		H89.4z"/>
	<path class="st0" d="M88.2,28c-0.1,0-0.1,0.1-0.1,0.1V30c0,0.1,0.1,0.1,0.1,0.1h4.6c0.1,0,0.1-0.1,0.1-0.1v-1.9
		c0-0.1-0.1-0.1-0.1-0.1H88.2z"/>
	<path class="st1" d="M95.3,28.2v1.7h4.4v-1.7H95.3z M89.4,32c-2.8,0-5.2,2.3-5.2,5.2v5.4c0,2.8,2.3,5.2,5.2,5.2h9.2
		c2.8,0,5.2-2.3,5.2-5.2v-5.4c0-2.8-2.3-5.2-5.2-5.2H89.4z M88.3,28.2v1.7h4.4v-1.7H88.3z M95.1,28.1c0-0.1,0.1-0.1,0.1-0.1h4.6
		c0.1,0,0.1,0.1,0.1,0.1V30c0,0.1-0.1,0.1-0.1,0.1h-4.6c-0.1,0-0.1-0.1-0.1-0.1V28.1z M89.4,31.8c-3,0-5.4,2.4-5.4,5.4v5.4
		c0,3,2.4,5.4,5.4,5.4h9.2c3,0,5.4-2.4,5.4-5.4v-5.4c0-3-2.4-5.4-5.4-5.4H89.4z M88.1,28.1c0-0.1,0.1-0.1,0.1-0.1h4.6
		c0.1,0,0.1,0.1,0.1,0.1V30c0,0.1-0.1,0.1-0.1,0.1h-4.6c-0.1,0-0.1-0.1-0.1-0.1V28.1z"/>
	<path class="st4" d="M89.4,33.9h9.2c1.8,0,3.2,1.5,3.2,3.2v5.4c0,1.8-1.5,3.2-3.2,3.2h-9.2c-1.8,0-3.2-1.5-3.2-3.2v-5.4
		C86.2,35.4,87.6,33.9,89.4,33.9z"/>
	<path class="st0" d="M89.8,36.9c-0.1,0-0.1,0.1-0.1,0.1v4.6c0,0.1,0.1,0.1,0.1,0.1h1.9c0.1,0,0.1-0.1,0.1-0.1v-4.6
		c0-0.1-0.1-0.1-0.1-0.1H89.8z"/>
	<path class="st0" d="M96.3,36.9c-0.1,0-0.1,0.1-0.1,0.1v4.6c0,0.1,0.1,0.1,0.1,0.1h1.9c0.1,0,0.1-0.1,0.1-0.1v-4.6
		c0-0.1-0.1-0.1-0.1-0.1H96.3z"/>
</g>
<g class="st9">
	<path class="st0" d="M123.1,0.1c0-0.1,0.1-0.1,0.1-0.1h4.6c0.1,0,0.1,0.1,0.1,0.1V2c0,0.1-0.1,0.1-0.1,0.1h-4.6
		c-0.1,0-0.1-0.1-0.1-0.1V0.1z"/>
	<path class="st0" d="M117.4,3.8c-3,0-5.4,2.4-5.4,5.4v5.4c0,3,2.4,5.4,5.4,5.4h9.2c3,0,5.4-2.4,5.4-5.4V9.2c0-3-2.4-5.4-5.4-5.4
		H117.4z"/>
	<path class="st0" d="M116.2,0c-0.1,0-0.1,0.1-0.1,0.1V2c0,0.1,0.1,0.1,0.1,0.1h4.6c0.1,0,0.1-0.1,0.1-0.1V0.1
		c0-0.1-0.1-0.1-0.1-0.1H116.2z"/>
	<path class="st1" d="M123.3,0.3v1.7h4.4V0.3H123.3z M117.4,4c-2.8,0-5.2,2.3-5.2,5.2v5.4c0,2.8,2.3,5.2,5.2,5.2h9.2
		c2.8,0,5.2-2.3,5.2-5.2V9.2c0-2.8-2.3-5.2-5.2-5.2H117.4z M116.3,0.3v1.7h4.4V0.3H116.3z M123.1,0.1c0-0.1,0.1-0.1,0.1-0.1h4.6
		c0.1,0,0.1,0.1,0.1,0.1V2c0,0.1-0.1,0.1-0.1,0.1h-4.6c-0.1,0-0.1-0.1-0.1-0.1V0.1z M117.4,3.8c-3,0-5.4,2.4-5.4,5.4v5.4
		c0,3,2.4,5.4,5.4,5.4h9.2c3,0,5.4-2.4,5.4-5.4V9.2c0-3-2.4-5.4-5.4-5.4H117.4z M116.1,0.1c0-0.1,0.1-0.1,0.1-0.1h4.6
		c0.1,0,0.1,0.1,0.1,0.1V2c0,0.1-0.1,0.1-0.1,0.1h-4.6c-0.1,0-0.1-0.1-0.1-0.1V0.1z"/>
	<path class="st2" d="M117.4,5.9h9.2c1.8,0,3.2,1.5,3.2,3.2v5.4c0,1.8-1.5,3.2-3.2,3.2h-9.2c-1.8,0-3.2-1.5-3.2-3.2V9.2
		C114.2,7.4,115.6,5.9,117.4,5.9z"/>
	<path class="st3" d="M117.8,8.9c-0.1,0-0.1,0.1-0.1,0.1v4.6c0,0.1,0.1,0.1,0.1,0.1h1.9c0.1,0,0.1-0.1,0.1-0.1V9.1
		c0-0.1-0.1-0.1-0.1-0.1H117.8z"/>
	<path class="st3" d="M124.3,8.9c-0.1,0-0.1,0.1-0.1,0.1v4.6c0,0.1,0.1,0.1,0.1,0.1h1.9c0.1,0,0.1-0.1,0.1-0.1V9.1
		c0-0.1-0.1-0.1-0.1-0.1H124.3z"/>
	<path class="st10" d="M124.8,34.1C124.9,34.1,124.9,34.1,124.8,34.1l0,1.7c0,0,0,0,0,0h-5.7c0,0,0,0,0,0v-1.7c0,0,0,0,0,0H124.8z
		 M124.8,40.1C124.9,40.1,124.9,40.1,124.8,40.1l0,1.7c0,0,0,0,0,0h-5.7c0,0,0,0,0,0v-1.7c0,0,0,0,0,0H124.8z"/>
</g>
<g class="st11">
	<path class="st0" d="M140.1,36.9c-0.1,0-0.1-0.1-0.1-0.1v-4.6c0-0.1,0.1-0.1,0.1-0.1h1.9c0.1,0,0.1,0.1,0.1,0.1v4.6
		c0,0.1-0.1,0.1-0.1,0.1H140.1z"/>
	<path class="st0" d="M143.8,42.6c0,3,2.4,5.4,5.4,5.4h5.4c3,0,5.4-2.4,5.4-5.4v-9.2c0-3-2.4-5.4-5.4-5.4h-5.4c-3,0-5.4,2.4-5.4,5.4
		V42.6z"/>
	<path class="st0" d="M140,43.8c0,0.1,0.1,0.1,0.1,0.1h1.9c0.1,0,0.1-0.1,0.1-0.1v-4.6c0-0.1-0.1-0.1-0.1-0.1h-1.9
		c-0.1,0-0.1,0.1-0.1,0.1V43.8z"/>
	<path class="st1" d="M140.2,36.7h1.7v-4.4h-1.7V36.7z M144,42.6c0,2.8,2.3,5.2,5.2,5.2h5.4c2.8,0,5.2-2.3,5.2-5.2v-9.2
		c0-2.8-2.3-5.2-5.2-5.2h-5.4c-2.8,0-5.2,2.3-5.2,5.2V42.6z M140.2,43.7h1.7v-4.4h-1.7V43.7z M140.1,36.9c-0.1,0-0.1-0.1-0.1-0.1
		v-4.6c0-0.1,0.1-0.1,0.1-0.1h1.9c0.1,0,0.1,0.1,0.1,0.1v4.6c0,0.1-0.1,0.1-0.1,0.1H140.1z M143.8,42.6c0,3,2.4,5.4,5.4,5.4h5.4
		c3,0,5.4-2.4,5.4-5.4v-9.2c0-3-2.4-5.4-5.4-5.4h-5.4c-3,0-5.4,2.4-5.4,5.4V42.6z M140.1,43.9c-0.1,0-0.1-0.1-0.1-0.1v-4.6
		c0-0.1,0.1-0.1,0.1-0.1h1.9c0.1,0,0.1,0.1,0.1,0.1v4.6c0,0.1-0.1,0.1-0.1,0.1H140.1z"/>
	<path class="st6" d="M145.9,42.6v-9.2c0-1.8,1.5-3.2,3.2-3.2h5.4c1.8,0,3.2,1.5,3.2,3.2v9.2c0,1.8-1.5,3.2-3.2,3.2h-5.4
		C147.4,45.8,145.9,44.4,145.9,42.6z"/>
	<path class="st5" d="M148.9,42.2c0,0.1,0.1,0.1,0.1,0.1h4.6c0.1,0,0.1-0.1,0.1-0.1v-1.9c0-0.1-0.1-0.1-0.1-0.1h-4.6
		c-0.1,0-0.1,0.1-0.1,0.1V42.2z"/>
	<path class="st5" d="M148.9,35.7c0,0.1,0.1,0.1,0.1,0.1h4.6c0.1,0,0.1-0.1,0.1-0.1v-1.9c0-0.1-0.1-0.1-0.1-0.1h-4.6
		c-0.1,0-0.1,0.1-0.1,0.1V35.7z"/>
</g>
<g class="st11">
	<path class="st0" d="M1003.1,28.1c0-0.1,0.1-0.1,0.1-0.1h4.6c0.1,0,0.1,0.1,0.1,0.1V30c0,0.1-0.1,0.1-0.1,0.1h-4.6
		c-0.1,0-0.1-0.1-0.1-0.1V28.1z"/>
	<path class="st0" d="M997.4,31.8c-3,0-5.4,2.4-5.4,5.4v5.4c0,3,2.4,5.4,5.4,5.4h9.2c3,0,5.4-2.4,5.4-5.4v-5.4c0-3-2.4-5.4-5.4-5.4
		H997.4z"/>
	<path class="st0" d="M996.2,28c-0.1,0-0.1,0.1-0.1,0.1V30c0,0.1,0.1,0.1,0.1,0.1h4.6c0.1,0,0.1-0.1,0.1-0.1v-1.9
		c0-0.1-0.1-0.1-0.1-0.1H996.2z"/>
	<path class="st1" d="M1003.3,28.2v1.7h4.4v-1.7H1003.3z M997.4,32c-2.8,0-5.2,2.3-5.2,5.2v5.4c0,2.8,2.3,5.2,5.2,5.2h9.2
		c2.8,0,5.2-2.3,5.2-5.2v-5.4c0-2.8-2.3-5.2-5.2-5.2H997.4z M996.3,28.2v1.7h4.4v-1.7H996.3z M1003.1,28.1c0-0.1,0.1-0.1,0.1-0.1
		h4.6c0.1,0,0.1,0.1,0.1,0.1V30c0,0.1-0.1,0.1-0.1,0.1h-4.6c-0.1,0-0.1-0.1-0.1-0.1V28.1z M997.4,31.8c-3,0-5.4,2.4-5.4,5.4v5.4
		c0,3,2.4,5.4,5.4,5.4h9.2c3,0,5.4-2.4,5.4-5.4v-5.4c0-3-2.4-5.4-5.4-5.4H997.4z M996.1,28.1c0-0.1,0.1-0.1,0.1-0.1h4.6
		c0.1,0,0.1,0.1,0.1,0.1V30c0,0.1-0.1,0.1-0.1,0.1h-4.6c-0.1,0-0.1-0.1-0.1-0.1V28.1z"/>
	<path class="st4" d="M997.4,33.9h9.2c1.8,0,3.2,1.5,3.2,3.2v5.4c0,1.8-1.5,3.2-3.2,3.2h-9.2c-1.8,0-3.2-1.5-3.2-3.2v-5.4
		C994.2,35.4,995.6,33.9,997.4,33.9z"/>
	<path class="st0" d="M997.8,36.9c-0.1,0-0.1,0.1-0.1,0.1v4.6c0,0.1,0.1,0.1,0.1,0.1h1.9c0.1,0,0.1-0.1,0.1-0.1v-4.6
		c0-0.1-0.1-0.1-0.1-0.1H997.8z"/>
	<path class="st0" d="M1004.3,36.9c-0.1,0-0.1,0.1-0.1,0.1v4.6c0,0.1,0.1,0.1,0.1,0.1h1.9c0.1,0,0.1-0.1,0.1-0.1v-4.6
		c0-0.1-0.1-0.1-0.1-0.1H1004.3z"/>
</g>
<g class="st9">
	<path class="st0" d="M1031.1,0.1c0-0.1,0.1-0.1,0.1-0.1h4.6c0.1,0,0.1,0.1,0.1,0.1V2c0,0.1-0.1,0.1-0.1,0.1h-4.6
		c-0.1,0-0.1-0.1-0.1-0.1V0.1z"/>
	<path class="st0" d="M1025.4,3.8c-3,0-5.4,2.4-5.4,5.4v5.4c0,3,2.4,5.4,5.4,5.4h9.2c3,0,5.4-2.4,5.4-5.4V9.2c0-3-2.4-5.4-5.4-5.4
		H1025.4z"/>
	<path class="st0" d="M1024.2,0c-0.1,0-0.1,0.1-0.1,0.1V2c0,0.1,0.1,0.1,0.1,0.1h4.6c0.1,0,0.1-0.1,0.1-0.1V0.1
		c0-0.1-0.1-0.1-0.1-0.1H1024.2z"/>
	<path class="st1" d="M1031.3,0.2v1.7h4.4V0.2H1031.3z M1025.4,4c-2.8,0-5.2,2.3-5.2,5.2v5.4c0,2.8,2.3,5.2,5.2,5.2h9.2
		c2.8,0,5.2-2.3,5.2-5.2V9.2c0-2.8-2.3-5.2-5.2-5.2H1025.4z M1024.3,0.2v1.7h4.4V0.2H1024.3z M1031.1,0.1c0-0.1,0.1-0.1,0.1-0.1h4.6
		c0.1,0,0.1,0.1,0.1,0.1V2c0,0.1-0.1,0.1-0.1,0.1h-4.6c-0.1,0-0.1-0.1-0.1-0.1V0.1z M1025.4,3.8c-3,0-5.4,2.4-5.4,5.4v5.4
		c0,3,2.4,5.4,5.4,5.4h9.2c3,0,5.4-2.4,5.4-5.4V9.2c0-3-2.4-5.4-5.4-5.4H1025.4z M1024.1,0.1c0-0.1,0.1-0.1,0.1-0.1h4.6
		c0.1,0,0.1,0.1,0.1,0.1V2c0,0.1-0.1,0.1-0.1,0.1h-4.6c-0.1,0-0.1-0.1-0.1-0.1V0.1z"/>
	<path class="st4" d="M1025.4,5.9h9.2c1.8,0,3.2,1.5,3.2,3.2v5.4c0,1.8-1.5,3.2-3.2,3.2h-9.2c-1.8,0-3.2-1.5-3.2-3.2V9.2
		C1022.2,7.4,1023.6,5.9,1025.4,5.9z"/>
	<path class="st12" d="M1025.8,8.9c-0.1,0-0.1,0.1-0.1,0.1v4.6c0,0.1,0.1,0.1,0.1,0.1h1.9c0.1,0,0.1-0.1,0.1-0.1V9.1
		c0-0.1-0.1-0.1-0.1-0.1H1025.8z"/>
	<path class="st12" d="M1032.3,8.9c-0.1,0-0.1,0.1-0.1,0.1v4.6c0,0.1,0.1,0.1,0.1,0.1h1.9c0.1,0,0.1-0.1,0.1-0.1V9.1
		c0-0.1-0.1-0.1-0.1-0.1H1032.3z"/>
	<path class="st10" d="M1032.8,34.1C1032.9,34.1,1032.9,34.1,1032.8,34.1l0,1.7c0,0,0,0,0,0h-5.7c0,0,0,0,0,0v-1.7c0,0,0,0,0,0
		H1032.8z M1032.8,40.1C1032.9,40.1,1032.9,40.1,1032.8,40.1l0,1.7c0,0,0,0,0,0h-5.7c0,0,0,0,0,0v-1.7c0,0,0,0,0,0H1032.8z"/>
</g>
<g class="st8">
	<path class="st4" d="M1054.1,7c-0.1,0-0.1,0.1-0.1,0.2v5.7c0,0.1,0.1,0.2,0.1,0.2h1.8c0.1,0,0.1-0.1,0.1-0.2V7.2
		c0-0.1-0.1-0.2-0.1-0.2H1054.1z"/>
	<path class="st4" d="M1060.1,7c-0.1,0-0.1,0.1-0.1,0.2v5.7c0,0.1,0.1,0.2,0.1,0.2h1.8c0.1,0,0.1-0.1,0.1-0.2V7.2
		c0-0.1-0.1-0.2-0.1-0.2H1060.1z"/>
	<path class="st1" d="M1054.2,7.2v5.5h1.5V7.2H1054.2z M1060.2,7.2v5.5h1.5V7.2H1060.2z M1054,7.2c0-0.1,0.1-0.2,0.1-0.2h1.8
		c0.1,0,0.1,0.1,0.1,0.2v5.7c0,0.1-0.1,0.2-0.1,0.2h-1.8c-0.1,0-0.1-0.1-0.1-0.2V7.2z M1060,7.2c0-0.1,0.1-0.2,0.1-0.2h1.8
		c0.1,0,0.1,0.1,0.1,0.2v5.7c0,0.1-0.1,0.2-0.1,0.2h-1.8c-0.1,0-0.1-0.1-0.1-0.2V7.2z"/>
	<path class="st3" d="M1063.3,29.2c-1,0-4.1,0.1-5.3,4.5c0,0-0.9-4.6-5.1-4.5c-4.2,0.1-5.3,4.2-4.8,6.2c0.5,1.9,1.3,5.3,9.8,11.6
		c0,0,10-7.2,10-12.1S1064.3,29.2,1063.3,29.2z"/>
	<path class="st1" d="M1058,47c0,0,10-7.2,10-12.1s-3.7-5.7-4.7-5.7c-1,0-3.9,0.1-5.2,4c0,0.2-0.1,0.3-0.1,0.5c0,0,0-0.2-0.1-0.5
		c-0.4-1.2-1.6-4.1-5-4c-4.2,0.1-5.3,4.2-4.8,6.2c0,0.1,0,0.1,0.1,0.2C1048.7,37.5,1049.7,40.9,1058,47z M1057.7,33.7L1057.7,33.7
		L1057.7,33.7C1057.7,33.7,1057.7,33.7,1057.7,33.7c0-0.1,0-0.1,0-0.2c0-0.1-0.1-0.3-0.2-0.5c-0.1-0.4-0.4-1-0.7-1.5
		c-0.7-1.1-1.9-2.1-3.9-2.1c-2,0-3.3,1.1-4,2.3c-0.7,1.2-0.8,2.7-0.6,3.6c0,0.1,0,0.1,0.1,0.2c0.3,0.9,0.6,2.2,1.8,3.9
		c1.3,1.8,3.6,4.2,7.7,7.3c0.1-0.1,0.2-0.1,0.3-0.2c0.3-0.2,0.7-0.5,1.1-0.9c0.9-0.8,2.2-1.8,3.4-3c1.2-1.2,2.5-2.5,3.4-3.9
		c0.9-1.3,1.5-2.7,1.5-3.8c0-2.3-0.9-3.7-1.9-4.5c-1-0.8-2.1-1-2.6-1c-0.5,0-1.5,0-2.5,0.6c-1,0.5-2,1.6-2.6,3.7
		c0,0.1-0.1,0.2-0.3,0.2C1057.9,33.9,1057.8,33.9,1057.7,33.7L1057.7,33.7L1057.7,33.7L1057.7,33.7z"/>
	<path class="st1" d="M1051,35.9c0.1,0,0.1,0,0.2,0.1c0,0,0,0.1,0.1,0.1c0.2,0.5,0.4,1,0.9,1.8c0.5,0.8,1.4,1.8,3,3
		c0.1,0,0.1,0.1,0,0.2c0,0.1-0.1,0.1-0.2,0c-1.6-1.3-2.5-2.3-3.1-3.1c-0.5-0.8-0.7-1.4-0.9-1.8c0,0,0-0.1-0.1-0.1
		C1050.9,36,1050.9,35.9,1051,35.9z"/>
</g>
<g class="st7">
	<path class="st0" d="M1087.1,28.1c0-0.1,0.1-0.1,0.1-0.1h4.6c0.1,0,0.1,0.1,0.1,0.1V30c0,0.1-0.1,0.1-0.1,0.1h-4.6
		c-0.1,0-0.1-0.1-0.1-0.1V28.1z"/>
	<path class="st0" d="M1081.4,31.8c-3,0-5.4,2.4-5.4,5.4v5.4c0,3,2.4,5.4,5.4,5.4h9.2c3,0,5.4-2.4,5.4-5.4v-5.4c0-3-2.4-5.4-5.4-5.4
		H1081.4z"/>
	<path class="st0" d="M1080.2,28c-0.1,0-0.1,0.1-0.1,0.1V30c0,0.1,0.1,0.1,0.1,0.1h4.6c0.1,0,0.1-0.1,0.1-0.1v-1.9
		c0-0.1-0.1-0.1-0.1-0.1H1080.2z"/>
	<path class="st1" d="M1087.3,28.2v1.7h4.4v-1.7H1087.3z M1081.4,32c-2.8,0-5.2,2.3-5.2,5.2v5.4c0,2.8,2.3,5.2,5.2,5.2h9.2
		c2.8,0,5.2-2.3,5.2-5.2v-5.4c0-2.8-2.3-5.2-5.2-5.2H1081.4z M1080.3,28.2v1.7h4.4v-1.7H1080.3z M1087.1,28.1c0-0.1,0.1-0.1,0.1-0.1
		h4.6c0.1,0,0.1,0.1,0.1,0.1V30c0,0.1-0.1,0.1-0.1,0.1h-4.6c-0.1,0-0.1-0.1-0.1-0.1V28.1z M1081.4,31.8c-3,0-5.4,2.4-5.4,5.4v5.4
		c0,3,2.4,5.4,5.4,5.4h9.2c3,0,5.4-2.4,5.4-5.4v-5.4c0-3-2.4-5.4-5.4-5.4H1081.4z M1080.1,28.1c0-0.1,0.1-0.1,0.1-0.1h4.6
		c0.1,0,0.1,0.1,0.1,0.1V30c0,0.1-0.1,0.1-0.1,0.1h-4.6c-0.1,0-0.1-0.1-0.1-0.1V28.1z"/>
	<path class="st2" d="M1081.4,33.9h9.2c1.8,0,3.2,1.5,3.2,3.2v5.4c0,1.8-1.5,3.2-3.2,3.2h-9.2c-1.8,0-3.2-1.5-3.2-3.2v-5.4
		C1078.2,35.4,1079.6,33.9,1081.4,33.9z"/>
	<path class="st4" d="M1081.8,36.9c-0.1,0-0.1,0.1-0.1,0.1v4.6c0,0.1,0.1,0.1,0.1,0.1h1.9c0.1,0,0.1-0.1,0.1-0.1v-4.6
		c0-0.1-0.1-0.1-0.1-0.1H1081.8z"/>
	<path class="st4" d="M1088.3,36.9c-0.1,0-0.1,0.1-0.1,0.1v4.6c0,0.1,0.1,0.1,0.1,0.1h1.9c0.1,0,0.1-0.1,0.1-0.1v-4.6
		c0-0.1-0.1-0.1-0.1-0.1H1088.3z"/>
</g>
<path class="st0" d="M1119.3,1.2c-1,0-4.2,0.1-5.3,4.5c0,0-0.9-4.6-5.1-4.5s-5.3,4.2-4.8,6.2c0.5,1.9,1.3,5.3,9.8,11.6
	c0,0,10-7.2,10-12.1C1124,2.1,1120.3,1.2,1119.3,1.2z"/>
<path class="st1" d="M1114,19c0,0,10-7.2,10-12.1c0-4.8-3.7-5.7-4.7-5.7c-1,0-3.9,0.1-5.2,4c0,0.2-0.1,0.3-0.1,0.5
	c0,0,0-0.2-0.1-0.5c-0.4-1.2-1.6-4.1-5-4c-4.2,0.1-5.3,4.2-4.8,6.2c0,0.1,0,0.1,0.1,0.2C1104.7,9.5,1105.7,12.9,1114,19z
	 M1113.7,5.7L1113.7,5.7L1113.7,5.7C1113.7,5.7,1113.7,5.7,1113.7,5.7c0-0.1,0-0.1,0-0.2c0-0.1-0.1-0.3-0.2-0.5
	c-0.1-0.4-0.4-1-0.7-1.5c-0.7-1.1-1.9-2.1-3.9-2.1c-2,0-3.3,1.1-4,2.3c-0.7,1.2-0.8,2.7-0.6,3.6c0,0.1,0,0.1,0.1,0.2
	c0.3,0.9,0.6,2.2,1.8,3.9c1.3,1.8,3.6,4.2,7.7,7.3c0.1-0.1,0.2-0.1,0.3-0.2c0.3-0.2,0.7-0.5,1.1-0.9c0.9-0.8,2.2-1.8,3.4-3
	c1.2-1.2,2.5-2.5,3.4-3.9c0.9-1.3,1.5-2.7,1.5-3.8c0-2.3-0.9-3.7-1.9-4.5c-1-0.8-2.1-1-2.6-1c-0.5,0-1.5,0-2.5,0.6
	c-1,0.5-2,1.6-2.6,3.7c0,0.1-0.1,0.2-0.2,0.2C1113.9,5.9,1113.8,5.9,1113.7,5.7C1113.7,5.7,1113.7,5.7,1113.7,5.7L1113.7,5.7
	L1113.7,5.7z"/>
<path class="st1" d="M1107,7.9c0.1,0,0.1,0,0.2,0.1c0,0,0,0.1,0.1,0.1c0.2,0.5,0.4,1,0.9,1.8c0.5,0.8,1.4,1.8,3,3
	c0.1,0,0.1,0.1,0,0.2c0,0.1-0.1,0.1-0.2,0c-1.6-1.3-2.5-2.3-3.1-3.1c-0.5-0.8-0.7-1.4-0.9-1.8c0,0,0-0.1,0-0.1
	C1106.9,8,1106.9,7.9,1107,7.9z"/>
<path class="st13" d="M1115.2,38.9v-1.7c0,0,0,0,0,0h4.6c0,0,0,0,0,0v1.7c0,0,0,0,0,0L1115.2,38.9
	C1115.2,38.9,1115.2,38.9,1115.2,38.9z M1108.1,37.1C1108.1,37.1,1108.1,37.1,1108.1,37.1l4.6,0c0,0,0,0,0,0v1.7c0,0,0,0,0,0h-4.6
	c0,0,0,0,0,0V37.1z"/>
<path class="st14" d="M1138.1,7.2C1138.1,7.1,1138.1,7.1,1138.1,7.2l1.7,0c0,0,0,0,0,0v5.7c0,0,0,0,0,0h-1.7c0,0,0,0,0,0V7.2z
	 M1144.1,7.2C1144.1,7.1,1144.1,7.1,1144.1,7.2l1.7,0c0,0,0,0,0,0v5.7c0,0,0,0,0,0h-1.7c0,0,0,0,0,0V7.2z"/>
<path class="st0" d="M1132.1,36.9c-0.1,0-0.1-0.1-0.1-0.1v-4.6c0-0.1,0.1-0.1,0.1-0.1h1.9c0.1,0,0.1,0.1,0.1,0.1v4.6
	c0,0.1-0.1,0.1-0.1,0.1H1132.1z"/>
<path class="st0" d="M1135.8,42.6c0,3,2.4,5.4,5.4,5.4h5.4c3,0,5.4-2.4,5.4-5.4v-9.2c0-3-2.4-5.4-5.4-5.4h-5.4c-3,0-5.4,2.4-5.4,5.4
	V42.6z"/>
<path class="st0" d="M1132,43.8c0,0.1,0.1,0.1,0.1,0.1h1.9c0.1,0,0.1-0.1,0.1-0.1v-4.6c0-0.1-0.1-0.1-0.1-0.1h-1.9
	c-0.1,0-0.1,0.1-0.1,0.1V43.8z"/>
<path class="st1" d="M1132.2,36.7h1.7v-4.4h-1.7V36.7z M1136,42.6c0,2.8,2.3,5.2,5.2,5.2h5.4c2.8,0,5.2-2.3,5.2-5.2v-9.2
	c0-2.8-2.3-5.2-5.2-5.2h-5.4c-2.8,0-5.2,2.3-5.2,5.2V42.6z M1132.2,43.7h1.7v-4.4h-1.7V43.7z M1132.1,36.9c-0.1,0-0.1-0.1-0.1-0.1
	v-4.6c0-0.1,0.1-0.1,0.1-0.1h1.9c0.1,0,0.1,0.1,0.1,0.1v4.6c0,0.1-0.1,0.1-0.1,0.1H1132.1z M1135.8,42.6c0,3,2.4,5.4,5.4,5.4h5.4
	c3,0,5.4-2.4,5.4-5.4v-9.2c0-3-2.4-5.4-5.4-5.4h-5.4c-3,0-5.4,2.4-5.4,5.4V42.6z M1132.1,43.9c-0.1,0-0.1-0.1-0.1-0.1v-4.6
	c0-0.1,0.1-0.1,0.1-0.1h1.9c0.1,0,0.1,0.1,0.1,0.1v4.6c0,0.1-0.1,0.1-0.1,0.1H1132.1z"/>
<path class="st6" d="M1137.9,42.6v-9.2c0-1.8,1.5-3.2,3.2-3.2h5.4c1.8,0,3.2,1.5,3.2,3.2v9.2c0,1.8-1.5,3.2-3.2,3.2h-5.4
	C1139.4,45.8,1137.9,44.4,1137.9,42.6z"/>
<path class="st5" d="M1140.9,42.2c0,0.1,0.1,0.1,0.1,0.1h4.6c0.1,0,0.1-0.1,0.1-0.1v-1.9c0-0.1-0.1-0.1-0.1-0.1h-4.6
	c-0.1,0-0.1,0.1-0.1,0.1V42.2z"/>
<path class="st5" d="M1140.9,35.7c0,0.1,0.1,0.1,0.1,0.1h4.6c0.1,0,0.1-0.1,0.1-0.1v-1.9c0-0.1-0.1-0.1-0.1-0.1h-4.6
	c-0.1,0-0.1,0.1-0.1,0.1V35.7z"/>
</svg>
