<svg width="208" height="48" viewBox="0 0 208 48" fill="none" xmlns="http://www.w3.org/2000/svg">
<g opacity="0.15">
<path d="M35.0811 28.1351C35.0811 28.0605 35.1416 28 35.2162 28H39.8108C39.8854 28 39.9459 28.0605 39.9459 28.1351V30.027C39.9459 30.1017 39.8854 30.1622 39.8108 30.1622H35.2162C35.1416 30.1622 35.0811 30.1017 35.0811 30.027V28.1351Z" fill="#FF8CEC"/>
<path d="M29.4054 31.7838C26.4201 31.7838 24 34.2039 24 37.1892V42.5946C24 45.5799 26.4201 48 29.4054 48H38.5946C41.5799 48 44 45.5799 44 42.5946V37.1892C44 34.2039 41.5799 31.7838 38.5946 31.7838H29.4054Z" fill="#FF8CEC"/>
<path d="M28.1892 28C28.1146 28 28.0541 28.0605 28.0541 28.1351V30.027C28.0541 30.1017 28.1146 30.1622 28.1892 30.1622H32.7838C32.8584 30.1622 32.9189 30.1017 32.9189 30.027V28.1351C32.9189 28.0605 32.8584 28 32.7838 28H28.1892Z" fill="#FF8CEC"/>
<path fill-rule="evenodd" clip-rule="evenodd" d="M35.3311 28.25V29.9122H39.6959V28.25H35.3311ZM29.4054 32.0338C26.5582 32.0338 24.25 34.3419 24.25 37.1892V42.5946C24.25 45.4418 26.5582 47.75 29.4054 47.75H38.5946C41.4418 47.75 43.75 45.4418 43.75 42.5946V37.1892C43.75 34.3419 41.4418 32.0338 38.5946 32.0338H29.4054ZM28.3041 28.25V29.9122H32.6689V28.25H28.3041ZM35.0811 28.1351C35.0811 28.0605 35.1416 28 35.2162 28H39.8108C39.8854 28 39.9459 28.0605 39.9459 28.1351V30.027C39.9459 30.1017 39.8854 30.1622 39.8108 30.1622H35.2162C35.1416 30.1622 35.0811 30.1017 35.0811 30.027V28.1351ZM29.4054 31.7838C26.4201 31.7838 24 34.2039 24 37.1892V42.5946C24 45.5799 26.4201 48 29.4054 48H38.5946C41.5799 48 44 45.5799 44 42.5946V37.1892C44 34.2039 41.5799 31.7838 38.5946 31.7838H29.4054ZM28.0541 28.1351C28.0541 28.0605 28.1146 28 28.1892 28H32.7838C32.8584 28 32.9189 28.0605 32.9189 28.1351V30.027C32.9189 30.1017 32.8584 30.1622 32.7838 30.1622H28.1892C28.1146 30.1622 28.0541 30.1017 28.0541 30.027V28.1351Z" fill="#151526"/>
<path d="M29.4054 33.9459H38.5946C40.3858 33.9459 41.8378 35.398 41.8378 37.1892V42.5946C41.8378 44.3858 40.3858 45.8378 38.5946 45.8378H29.4054C27.6142 45.8378 26.1622 44.3858 26.1622 42.5946V37.1892C26.1622 35.398 27.6142 33.9459 29.4054 33.9459Z" fill="white"/>
<path d="M29.8108 36.9189C29.7362 36.9189 29.6757 36.9794 29.6757 37.0541V41.6487C29.6757 41.7233 29.7362 41.7838 29.8108 41.7838H31.7027C31.7773 41.7838 31.8378 41.7233 31.8378 41.6487V37.0541C31.8378 36.9794 31.7773 36.9189 31.7027 36.9189H29.8108Z" fill="#FF8CEC"/>
<path d="M36.2973 36.9189C36.2226 36.9189 36.1621 36.9794 36.1621 37.0541V41.6487C36.1621 41.7233 36.2226 41.7838 36.2973 41.7838H38.1892C38.2638 41.7838 38.3243 41.7233 38.3243 41.6487V37.0541C38.3243 36.9794 38.2638 36.9189 38.1892 36.9189H36.2973Z" fill="#FF8CEC"/>
</g>
<g opacity="0.3">
<path d="M63.0811 0.135135C63.0811 0.0605021 63.1416 0 63.2162 0H67.8108C67.8854 0 67.9459 0.0605021 67.9459 0.135135V2.02703C67.9459 2.10166 67.8854 2.16216 67.8108 2.16216H63.2162C63.1416 2.16216 63.0811 2.10166 63.0811 2.02703V0.135135Z" fill="#FF8CEC"/>
<path d="M57.4054 3.78378C54.4201 3.78378 52 6.20387 52 9.18919V14.5946C52 17.5799 54.4201 20 57.4054 20H66.5946C69.5799 20 72 17.5799 72 14.5946V9.18919C72 6.20387 69.5799 3.78378 66.5946 3.78378H57.4054Z" fill="#FF8CEC"/>
<path d="M56.1892 0C56.1146 0 56.0541 0.0605021 56.0541 0.135135V2.02703C56.0541 2.10166 56.1146 2.16216 56.1892 2.16216H60.7838C60.8584 2.16216 60.9189 2.10166 60.9189 2.02703V0.135135C60.9189 0.0605021 60.8584 0 60.7838 0H56.1892Z" fill="#FF8CEC"/>
<path fill-rule="evenodd" clip-rule="evenodd" d="M63.3311 0.25V1.91216H67.6959V0.25H63.3311ZM57.4054 4.03378C54.5582 4.03378 52.25 6.34194 52.25 9.18919V14.5946C52.25 17.4418 54.5582 19.75 57.4054 19.75H66.5946C69.4418 19.75 71.75 17.4418 71.75 14.5946V9.18919C71.75 6.34194 69.4418 4.03378 66.5946 4.03378H57.4054ZM56.3041 0.25V1.91216H60.6689V0.25H56.3041ZM63.0811 0.135135C63.0811 0.0605021 63.1416 0 63.2162 0H67.8108C67.8854 0 67.9459 0.0605021 67.9459 0.135135V2.02703C67.9459 2.10166 67.8854 2.16216 67.8108 2.16216H63.2162C63.1416 2.16216 63.0811 2.10166 63.0811 2.02703V0.135135ZM57.4054 3.78378C54.4201 3.78378 52 6.20387 52 9.18919V14.5946C52 17.5799 54.4201 20 57.4054 20H66.5946C69.5799 20 72 17.5799 72 14.5946V9.18919C72 6.20387 69.5799 3.78378 66.5946 3.78378H57.4054ZM56.0541 0.135135C56.0541 0.0605021 56.1146 0 56.1892 0H60.7838C60.8584 0 60.9189 0.0605021 60.9189 0.135135V2.02703C60.9189 2.10166 60.8584 2.16216 60.7838 2.16216H56.1892C56.1146 2.16216 56.0541 2.10166 56.0541 2.02703V0.135135Z" fill="#151526"/>
<path d="M57.4054 5.94592H66.5946C68.3858 5.94592 69.8378 7.39797 69.8378 9.18917V14.5946C69.8378 16.3858 68.3858 17.8378 66.5946 17.8378H57.4054C55.6142 17.8378 54.1622 16.3858 54.1622 14.5946V9.18917C54.1622 7.39797 55.6142 5.94592 57.4054 5.94592Z" fill="white"/>
<path d="M57.8108 8.91895C57.7362 8.91895 57.6757 8.97945 57.6757 9.05408V13.6487C57.6757 13.7233 57.7362 13.7838 57.8108 13.7838H59.7027C59.7773 13.7838 59.8378 13.7233 59.8378 13.6487V9.05408C59.8378 8.97945 59.7773 8.91895 59.7027 8.91895H57.8108Z" fill="#606080"/>
<path d="M64.2973 8.91895C64.2226 8.91895 64.1621 8.97945 64.1621 9.05408V13.6487C64.1621 13.7233 64.2226 13.7838 64.2973 13.7838H66.1892C66.2638 13.7838 66.3243 13.7233 66.3243 13.6487V9.05408C66.3243 8.97945 66.2638 8.91895 66.1892 8.91895H64.2973Z" fill="#606080"/>
<path d="M64.8333 34.125C64.8537 34.125 64.868 34.131 64.875 34.1358L64.875 35.8642C64.868 35.869 64.8537 35.875 64.8333 35.875L59.1667 35.875C59.1463 35.875 59.132 35.869 59.125 35.8642L59.125 34.1358C59.132 34.131 59.1463 34.125 59.1667 34.125L64.8333 34.125ZM64.8333 40.125C64.8537 40.125 64.868 40.131 64.875 40.1358L64.875 41.8642C64.868 41.869 64.8537 41.875 64.8333 41.875L59.1667 41.875C59.1463 41.875 59.132 41.869 59.125 41.8642L59.125 40.1358C59.132 40.131 59.1463 40.125 59.1667 40.125L64.8333 40.125Z" fill="white" stroke="#151526" stroke-width="0.25"/>
</g>
<g opacity="0.5">
<path d="M86.125 7C86.056 7 86 7.07462 86 7.16667V12.8333C86 12.9254 86.056 13 86.125 13H87.875C87.944 13 88 12.9254 88 12.8333V7.16667C88 7.07462 87.944 7 87.875 7H86.125Z" fill="white"/>
<path d="M92.125 7C92.056 7 92 7.07462 92 7.16667V12.8333C92 12.9254 92.056 13 92.125 13H93.875C93.944 13 94 12.9254 94 12.8333V7.16667C94 7.07462 93.944 7 93.875 7H92.125Z" fill="white"/>
<path fill-rule="evenodd" clip-rule="evenodd" d="M86.25 7.25V12.75H87.75V7.25H86.25ZM92.25 7.25V12.75H93.75V7.25H92.25ZM86 7.16667C86 7.07462 86.056 7 86.125 7H87.875C87.944 7 88 7.07462 88 7.16667V12.8333C88 12.9254 87.944 13 87.875 13H86.125C86.056 13 86 12.9254 86 12.8333V7.16667ZM92 7.16667C92 7.07462 92.056 7 92.125 7H93.875C93.944 7 94 7.07462 94 7.16667V12.8333C94 12.9254 93.944 13 93.875 13H92.125C92.056 13 92 12.9254 92 12.8333V7.16667Z" fill="#151526"/>
<path d="M95.32 29.21C94.32 29.19 91.17 29.31 89.99 33.69C89.99 33.69 89.11 29.11 84.89 29.21C80.67 29.31 79.59 33.46 80.14 35.36C80.69 37.26 81.42 40.66 89.99 46.99C89.99 46.99 99.99 39.74 99.99 34.91C99.99 30.08 96.32 29.24 95.32 29.21Z" fill="#00FFD4"/>
<path fill-rule="evenodd" clip-rule="evenodd" d="M89.99 46.99C89.99 46.99 99.99 39.74 99.99 34.91C99.99 30.08 96.32 29.24 95.32 29.21C94.3569 29.1907 91.3993 29.3013 90.1283 33.2227C90.0797 33.3728 90.0335 33.5285 89.99 33.69C89.99 33.69 89.9553 33.5093 89.8666 33.2205C89.5087 32.0553 88.2719 29.1298 84.89 29.21C80.67 29.31 79.59 33.46 80.14 35.36C80.1588 35.4248 80.1778 35.4914 80.1972 35.5598C80.749 37.4955 81.7125 40.876 89.99 46.99ZM89.7445 33.7372L89.7442 33.7356L89.7425 33.7275C89.741 33.7201 89.7385 33.7085 89.7351 33.693C89.7282 33.662 89.7173 33.6156 89.7019 33.5559C89.671 33.4365 89.6221 33.2646 89.5504 33.0579C89.4066 32.6436 89.173 32.0944 88.8138 31.5502C88.0984 30.4662 86.8952 29.4125 84.8959 29.4599C82.8825 29.5076 81.6337 30.5143 80.9438 31.7331C80.2447 32.9682 80.1257 34.4116 80.3801 35.2905C80.399 35.3555 80.418 35.4222 80.4375 35.4906C80.7015 36.4168 81.0541 37.654 82.2619 39.3698C83.5488 41.1979 85.8132 43.5775 89.9903 46.6791C90.0604 46.6271 90.154 46.5569 90.2685 46.4699C90.5403 46.2635 90.929 45.9629 91.3957 45.587C92.3294 44.8349 93.5733 43.7828 94.8163 42.5815C96.0603 41.3791 97.2974 40.033 98.2217 38.6932C99.151 37.3462 99.74 36.0398 99.74 34.91C99.74 32.568 98.8549 31.2245 97.8757 30.4567C96.8844 29.6793 95.7727 29.474 95.3137 29.4599C94.8289 29.4503 93.8441 29.476 92.8417 30.0197C91.8476 30.559 90.8053 31.6247 90.2314 33.755C90.2011 33.8675 90.0972 33.9441 89.9808 33.9398C89.8645 33.9356 89.7666 33.8516 89.7445 33.7373C89.7445 33.7373 89.7445 33.7373 89.7445 33.7373L89.7445 33.7372L89.7445 33.7372Z" fill="#151526"/>
<path fill-rule="evenodd" clip-rule="evenodd" d="M82.957 35.8826C83.0218 35.8589 83.0936 35.8922 83.1174 35.957C83.134 36.0024 83.1507 36.0488 83.1679 36.0964C83.3351 36.5599 83.5413 37.1314 84.0358 37.859C84.5819 38.6625 85.4829 39.6605 87.0768 40.9014C87.1313 40.9438 87.141 41.0223 87.0986 41.0768C87.0562 41.1313 86.9777 41.141 86.9232 41.0986C85.3144 39.8461 84.3933 38.8299 83.8291 37.9996C83.3164 37.2452 83.101 36.6478 82.9329 36.1818C82.9158 36.1342 82.8991 36.0879 82.8826 36.043C82.8589 35.9782 82.8922 35.9064 82.957 35.8826Z" fill="#151526"/>
</g>
<g opacity="0.7">
<path d="M119.081 28.1351C119.081 28.0605 119.142 28 119.216 28H123.811C123.885 28 123.946 28.0605 123.946 28.1351V30.027C123.946 30.1017 123.885 30.1622 123.811 30.1622H119.216C119.142 30.1622 119.081 30.1017 119.081 30.027V28.1351Z" fill="#FF8CEC"/>
<path d="M113.405 31.7838C110.42 31.7838 108 34.2039 108 37.1892V42.5946C108 45.5799 110.42 48 113.405 48H122.595C125.58 48 128 45.5799 128 42.5946V37.1892C128 34.2039 125.58 31.7838 122.595 31.7838H113.405Z" fill="#FF8CEC"/>
<path d="M112.189 28C112.115 28 112.054 28.0605 112.054 28.1351V30.027C112.054 30.1017 112.115 30.1622 112.189 30.1622H116.784C116.858 30.1622 116.919 30.1017 116.919 30.027V28.1351C116.919 28.0605 116.858 28 116.784 28H112.189Z" fill="#FF8CEC"/>
<path fill-rule="evenodd" clip-rule="evenodd" d="M119.331 28.25V29.9122H123.696V28.25H119.331ZM113.405 32.0338C110.558 32.0338 108.25 34.3419 108.25 37.1892V42.5946C108.25 45.4418 110.558 47.75 113.405 47.75H122.595C125.442 47.75 127.75 45.4418 127.75 42.5946V37.1892C127.75 34.3419 125.442 32.0338 122.595 32.0338H113.405ZM112.304 28.25V29.9122H116.669V28.25H112.304ZM119.081 28.1351C119.081 28.0605 119.142 28 119.216 28H123.811C123.885 28 123.946 28.0605 123.946 28.1351V30.027C123.946 30.1017 123.885 30.1622 123.811 30.1622H119.216C119.142 30.1622 119.081 30.1017 119.081 30.027V28.1351ZM113.405 31.7838C110.42 31.7838 108 34.2039 108 37.1892V42.5946C108 45.5799 110.42 48 113.405 48H122.595C125.58 48 128 45.5799 128 42.5946V37.1892C128 34.2039 125.58 31.7838 122.595 31.7838H113.405ZM112.054 28.1351C112.054 28.0605 112.115 28 112.189 28H116.784C116.858 28 116.919 28.0605 116.919 28.1351V30.027C116.919 30.1017 116.858 30.1622 116.784 30.1622H112.189C112.115 30.1622 112.054 30.1017 112.054 30.027V28.1351Z" fill="#151526"/>
<path d="M113.405 33.9459H122.595C124.386 33.9459 125.838 35.398 125.838 37.1892V42.5946C125.838 44.3858 124.386 45.8378 122.595 45.8378H113.405C111.614 45.8378 110.162 44.3858 110.162 42.5946V37.1892C110.162 35.398 111.614 33.9459 113.405 33.9459Z" fill="#232340"/>
<path d="M113.811 36.9189C113.736 36.9189 113.676 36.9794 113.676 37.0541V41.6487C113.676 41.7233 113.736 41.7838 113.811 41.7838H115.703C115.777 41.7838 115.838 41.7233 115.838 41.6487V37.0541C115.838 36.9794 115.777 36.9189 115.703 36.9189H113.811Z" fill="white"/>
<path d="M120.297 36.9189C120.223 36.9189 120.162 36.9794 120.162 37.0541V41.6487C120.162 41.7233 120.223 41.7838 120.297 41.7838H122.189C122.264 41.7838 122.324 41.7233 122.324 41.6487V37.0541C122.324 36.9794 122.264 36.9189 122.189 36.9189H120.297Z" fill="white"/>
</g>
<path d="M151.32 1.20999C150.32 1.18999 147.17 1.30999 145.99 5.68999C145.99 5.68999 145.11 1.10999 140.89 1.20999C136.67 1.30999 135.59 5.45999 136.14 7.35999C136.69 9.25999 137.42 12.66 145.99 18.99C145.99 18.99 155.99 11.74 155.99 6.90999C155.99 2.07999 152.32 1.23999 151.32 1.20999Z" fill="#FF8CEC"/>
<path fill-rule="evenodd" clip-rule="evenodd" d="M145.99 18.99C145.99 18.99 155.99 11.74 155.99 6.90999C155.99 2.07999 152.32 1.23999 151.32 1.20999C150.357 1.19073 147.399 1.30133 146.128 5.22274C146.08 5.37284 146.033 5.52852 145.99 5.68999C145.99 5.68999 145.955 5.50932 145.867 5.22054C145.509 4.05532 144.272 1.12985 140.89 1.20999C136.67 1.30999 135.59 5.45999 136.14 7.35999C136.159 7.42484 136.178 7.49144 136.197 7.55984C136.749 9.4955 137.713 12.876 145.99 18.99ZM145.744 5.73716L145.744 5.73558L145.743 5.72755C145.741 5.72009 145.739 5.70848 145.735 5.69299C145.728 5.66202 145.717 5.61558 145.702 5.55592C145.671 5.43654 145.622 5.26458 145.55 5.05788C145.407 4.64361 145.173 4.09441 144.814 3.55021C144.098 2.46623 142.895 1.41254 140.896 1.45992C138.883 1.50763 137.634 2.51434 136.944 3.73313C136.245 4.96822 136.126 6.4116 136.38 7.29047C136.399 7.35553 136.418 7.42222 136.437 7.4906C136.701 8.41682 137.054 9.65398 138.262 11.3698C139.549 13.1979 141.813 15.5775 145.99 18.6791C146.06 18.6271 146.154 18.5569 146.268 18.4699C146.54 18.2635 146.929 17.9629 147.396 17.587C148.329 16.8349 149.573 15.7828 150.816 14.5815C152.06 13.3791 153.297 12.033 154.222 10.6932C155.151 9.34625 155.74 8.0398 155.74 6.90999C155.74 4.56802 154.855 3.22455 153.876 2.45671C152.884 1.67934 151.773 1.47399 151.314 1.45991C150.829 1.4503 149.844 1.47596 148.842 2.01974C147.848 2.55901 146.805 3.62467 146.231 5.75502C146.201 5.86746 146.097 5.94409 145.981 5.93982C145.865 5.93555 145.767 5.85159 145.745 5.73732C145.745 5.73731 145.745 5.7373 145.745 5.73729L145.744 5.73719L145.744 5.73716Z" fill="#151526"/>
<path fill-rule="evenodd" clip-rule="evenodd" d="M138.957 7.88263C139.022 7.85889 139.094 7.89219 139.117 7.95701C139.134 8.00236 139.151 8.0488 139.168 8.09638C139.335 8.55992 139.541 9.13143 140.036 9.85905C140.582 10.6625 141.483 11.6605 143.077 12.9014C143.131 12.9438 143.141 13.0223 143.099 13.0768C143.056 13.1313 142.978 13.141 142.923 13.0986C141.314 11.8461 140.393 10.8299 139.829 9.99957C139.316 9.24521 139.101 8.64778 138.933 8.18179C138.916 8.13416 138.899 8.08791 138.883 8.043C138.859 7.97817 138.892 7.90637 138.957 7.88263Z" fill="#151526"/>
<path d="M147.216 38.8717V37.1283C147.218 37.1269 147.221 37.125 147.227 37.125H151.864C151.869 37.125 151.873 37.1269 151.875 37.1283V38.8717C151.873 38.8731 151.869 38.875 151.864 38.875H147.227C147.221 38.875 147.218 38.8731 147.216 38.8717ZM140.125 37.1283C140.127 37.1269 140.13 37.125 140.136 37.125H144.773C144.779 37.125 144.782 37.1269 144.784 37.1283V38.8717C144.782 38.8731 144.779 38.875 144.773 38.875H140.136C140.13 38.875 140.127 38.8731 140.125 38.8717V37.1283Z" fill="#00FFD4" stroke="#151526" stroke-width="0.25"/>
<path d="M170.125 7.16667C170.125 7.14629 170.131 7.13202 170.136 7.125H171.864C171.869 7.13202 171.875 7.14629 171.875 7.16667V12.8333C171.875 12.8537 171.869 12.868 171.864 12.875H170.136C170.131 12.868 170.125 12.8537 170.125 12.8333V7.16667ZM176.125 7.16667C176.125 7.14629 176.131 7.13202 176.136 7.125H177.864C177.869 7.13202 177.875 7.14629 177.875 7.16667V12.8333C177.875 12.8537 177.869 12.868 177.864 12.875H176.136C176.131 12.868 176.125 12.8537 176.125 12.8333V7.16667Z" fill="#FF8CEC" stroke="#151526" stroke-width="0.25"/>
<path d="M164.135 36.9189C164.061 36.9189 164 36.8584 164 36.7838L164 32.1892C164 32.1146 164.061 32.0541 164.135 32.0541L166.027 32.0541C166.102 32.0541 166.162 32.1146 166.162 32.1892L166.162 36.7838C166.162 36.8584 166.102 36.9189 166.027 36.9189L164.135 36.9189Z" fill="#FF8CEC"/>
<path d="M167.784 42.5946C167.784 45.5799 170.204 48 173.189 48L178.595 48C181.58 48 184 45.5799 184 42.5946L184 33.4054C184 30.4201 181.58 28 178.595 28L173.189 28C170.204 28 167.784 30.4201 167.784 33.4054L167.784 42.5946Z" fill="#FF8CEC"/>
<path d="M164 43.8108C164 43.8854 164.061 43.9459 164.135 43.9459L166.027 43.9459C166.102 43.9459 166.162 43.8854 166.162 43.8108L166.162 39.2162C166.162 39.1416 166.102 39.0811 166.027 39.0811L164.135 39.0811C164.061 39.0811 164 39.1416 164 39.2162L164 43.8108Z" fill="#FF8CEC"/>
<path fill-rule="evenodd" clip-rule="evenodd" d="M164.25 36.6689L165.912 36.6689L165.912 32.3041L164.25 32.3041L164.25 36.6689ZM168.034 42.5946C168.034 45.4418 170.342 47.75 173.189 47.75L178.595 47.75C181.442 47.75 183.75 45.4418 183.75 42.5946L183.75 33.4054C183.75 30.5582 181.442 28.25 178.595 28.25L173.189 28.25C170.342 28.25 168.034 30.5582 168.034 33.4054L168.034 42.5946ZM164.25 43.6959L165.912 43.6959L165.912 39.3311L164.25 39.3311L164.25 43.6959ZM164.135 36.9189C164.061 36.9189 164 36.8584 164 36.7838L164 32.1892C164 32.1146 164.061 32.0541 164.135 32.0541L166.027 32.0541C166.102 32.0541 166.162 32.1146 166.162 32.1892L166.162 36.7838C166.162 36.8584 166.102 36.9189 166.027 36.9189L164.135 36.9189ZM167.784 42.5946C167.784 45.5799 170.204 48 173.189 48L178.595 48C181.58 48 184 45.5799 184 42.5946L184 33.4054C184 30.4201 181.58 28 178.595 28L173.189 28C170.204 28 167.784 30.4201 167.784 33.4054L167.784 42.5946ZM164.135 43.9459C164.061 43.9459 164 43.8854 164 43.8108L164 39.2162C164 39.1416 164.061 39.0811 164.135 39.0811L166.027 39.0811C166.102 39.0811 166.162 39.1416 166.162 39.2162L166.162 43.8108C166.162 43.8854 166.102 43.9459 166.027 43.9459L164.135 43.9459Z" fill="#151526"/>
<path d="M169.946 42.5946L169.946 33.4054C169.946 31.6142 171.398 30.1622 173.189 30.1622L178.595 30.1622C180.386 30.1622 181.838 31.6142 181.838 33.4054L181.838 42.5946C181.838 44.3858 180.386 45.8378 178.595 45.8378L173.189 45.8378C171.398 45.8378 169.946 44.3858 169.946 42.5946Z" fill="#F0F2FF"/>
<path d="M172.919 42.1892C172.919 42.2638 172.979 42.3243 173.054 42.3243L177.649 42.3243C177.723 42.3243 177.784 42.2638 177.784 42.1892L177.784 40.2973C177.784 40.2227 177.723 40.1622 177.649 40.1622L173.054 40.1622C172.979 40.1622 172.919 40.2227 172.919 40.2973L172.919 42.1892Z" fill="#3939E6"/>
<path d="M172.919 35.7027C172.919 35.7774 172.979 35.8379 173.054 35.8379L177.649 35.8379C177.723 35.8379 177.784 35.7774 177.784 35.7027L177.784 33.8108C177.784 33.7362 177.723 33.6757 177.649 33.6757L173.054 33.6757C172.979 33.6757 172.919 33.7362 172.919 33.8108L172.919 35.7027Z" fill="#3939E6"/>
</svg>
