<svg width="409" height="411" viewBox="0 0 409 411" fill="none" xmlns="http://www.w3.org/2000/svg">
<g opacity="0.1">
<g filter="url(#filter0_d)">
<path d="M92.6096 114.78C40.7048 128.688 9.9022 182.039 23.8101 233.944L48.9925 327.926C62.9003 379.831 116.252 410.634 168.157 396.726L327.926 353.916C379.831 340.008 410.634 286.656 396.726 234.751L371.543 140.769C357.635 88.8645 304.284 58.0619 252.379 71.9697L92.6096 114.78Z" fill="url(#paint0_linear)"/>
<path d="M25.7419 233.427C12.1199 182.589 42.2894 130.334 93.1273 116.712L252.897 73.9016C303.734 60.2796 355.99 90.4491 369.611 141.287L394.794 235.269C408.416 286.107 378.246 338.362 327.409 351.984L167.639 394.794C116.801 408.416 64.5463 378.246 50.9243 327.409L25.7419 233.427Z" stroke="#151526" stroke-width="4"/>
</g>
<path d="M176.225 24.3828C176.163 24.1522 176.3 23.915 176.53 23.8532L256.415 2.44817C256.646 2.38636 256.883 2.52326 256.945 2.75394L265.759 35.6476C265.82 35.8783 265.683 36.1154 265.453 36.1773L185.568 57.5823C185.337 57.6441 185.1 57.5072 185.038 57.2765L176.225 24.3828ZM54.0481 57.12C53.9862 56.8893 54.1231 56.6522 54.3538 56.5903L134.239 35.1853C134.469 35.1235 134.706 35.2604 134.768 35.4911L143.582 68.3848C143.644 68.6155 143.507 68.8526 143.276 68.9144L63.3915 90.3194C63.1608 90.3813 62.9237 90.2443 62.8619 90.0137L54.0481 57.12Z" fill="#FF8CEC" stroke="#151526" stroke-width="4"/>
<g filter="url(#filter1_di)">
<path d="M102.683 152.372L262.452 109.562C293.595 101.218 325.606 119.699 333.951 150.842L359.133 244.824C367.478 275.967 348.996 307.978 317.853 316.323L158.084 359.133C126.941 367.478 94.9302 348.996 86.5855 317.853L61.4031 223.871C53.0584 192.728 71.54 160.717 102.683 152.372Z" fill="url(#paint1_linear)"/>
</g>
<g filter="url(#filter2_d)">
<path d="M123.581 202.175C122.284 202.522 121.514 203.856 121.861 205.154L143.266 285.039C143.614 286.336 144.948 287.106 146.245 286.759L179.139 277.945C180.437 277.597 181.207 276.263 180.859 274.966L159.454 195.081C159.106 193.783 157.773 193.013 156.475 193.361L123.581 202.175Z" fill="#00FFD4"/>
<path d="M236.36 171.956C235.062 172.304 234.292 173.637 234.64 174.935L256.045 254.82C256.392 256.117 257.726 256.887 259.024 256.54L291.917 247.726C293.215 247.378 293.985 246.044 293.637 244.747L272.232 164.862C271.885 163.564 270.551 162.794 269.253 163.142L236.36 171.956Z" fill="#00FFD4"/>
</g>
</g>
<defs>
<filter id="filter0_d" x="12.4706" y="62.6302" width="395.595" height="347.435" filterUnits="userSpaceOnUse" color-interpolation-filters="sRGB">
<feFlood flood-opacity="0" result="BackgroundImageFix"/>
<feColorMatrix in="SourceAlpha" type="matrix" values="0 0 0 0 0 0 0 0 0 0 0 0 0 0 0 0 0 0 127 0"/>
<feOffset dy="2"/>
<feGaussianBlur stdDeviation="4"/>
<feColorMatrix type="matrix" values="0 0 0 0 1 0 0 0 0 0.52549 0 0 0 0 0.898039 0 0 0 0.2 0"/>
<feBlend mode="normal" in2="BackgroundImageFix" result="effect1_dropShadow"/>
<feBlend mode="normal" in="SourceGraphic" in2="effect1_dropShadow" result="shape"/>
</filter>
<filter id="filter1_di" x="59.3994" y="107.559" width="301.738" height="254.578" filterUnits="userSpaceOnUse" color-interpolation-filters="sRGB">
<feFlood flood-opacity="0" result="BackgroundImageFix"/>
<feColorMatrix in="SourceAlpha" type="matrix" values="0 0 0 0 0 0 0 0 0 0 0 0 0 0 0 0 0 0 127 0"/>
<feOffset dy="1"/>
<feColorMatrix type="matrix" values="0 0 0 0 1 0 0 0 0 1 0 0 0 0 1 0 0 0 0.8 0"/>
<feBlend mode="normal" in2="BackgroundImageFix" result="effect1_dropShadow"/>
<feBlend mode="normal" in="SourceGraphic" in2="effect1_dropShadow" result="shape"/>
<feColorMatrix in="SourceAlpha" type="matrix" values="0 0 0 0 0 0 0 0 0 0 0 0 0 0 0 0 0 0 127 0" result="hardAlpha"/>
<feOffset dy="1"/>
<feComposite in2="hardAlpha" operator="arithmetic" k2="-1" k3="1"/>
<feColorMatrix type="matrix" values="0 0 0 0 0 0 0 0 0 1 0 0 0 0 0.831373 0 0 0 0.5 0"/>
<feBlend mode="normal" in2="shape" result="effect2_innerShadow"/>
</filter>
<filter id="filter2_d" x="113.778" y="155.058" width="187.943" height="139.784" filterUnits="userSpaceOnUse" color-interpolation-filters="sRGB">
<feFlood flood-opacity="0" result="BackgroundImageFix"/>
<feColorMatrix in="SourceAlpha" type="matrix" values="0 0 0 0 0 0 0 0 0 0 0 0 0 0 0 0 0 0 127 0"/>
<feOffset/>
<feGaussianBlur stdDeviation="4"/>
<feColorMatrix type="matrix" values="0 0 0 0 0 0 0 0 0 1 0 0 0 0 0.831373 0 0 0 0.5 0"/>
<feBlend mode="normal" in2="BackgroundImageFix" result="effect1_dropShadow"/>
<feBlend mode="normal" in="SourceGraphic" in2="effect1_dropShadow" result="shape"/>
</filter>
<linearGradient id="paint0_linear" x1="172.494" y1="93.3748" x2="248.041" y2="375.321" gradientUnits="userSpaceOnUse">
<stop stop-color="#FF8CDF"/>
<stop offset="1" stop-color="#FF80EA"/>
</linearGradient>
<linearGradient id="paint1_linear" x1="182.568" y1="130.967" x2="237.969" y2="337.728" gradientUnits="userSpaceOnUse">
<stop stop-color="#313159"/>
<stop offset="1" stop-color="#2C2340"/>
</linearGradient>
</defs>
</svg>
