<svg width="72" height="72" viewBox="0 0 72 72" fill="none" xmlns="http://www.w3.org/2000/svg">
<path d="M39.8919 0.486486C39.8919 0.217807 40.1097 0 40.3784 0L56.9189 0C57.1876 0 57.4054 0.217807 57.4054 0.486486V7.2973C57.4054 7.56598 57.1876 7.78378 56.9189 7.78378L40.3784 7.78378C40.1097 7.78378 39.8919 7.56598 39.8919 7.2973V0.486486Z" fill="#00FFD4"/>
<path d="M19.4595 13.6216C8.7123 13.6216 0 22.3339 0 33.0811L0 52.5405C0 63.2877 8.7123 72 19.4595 72L52.5405 72C63.2877 72 72 63.2877 72 52.5405L72 33.0811C72 22.3339 63.2877 13.6216 52.5405 13.6216L19.4595 13.6216Z" fill="#00FFD4"/>
<path d="M15.0811 0C14.8124 0 14.5946 0.217807 14.5946 0.486486L14.5946 7.2973C14.5946 7.56598 14.8124 7.78378 15.0811 7.78378L31.6216 7.78378C31.8903 7.78378 32.1081 7.56598 32.1081 7.2973V0.486486C32.1081 0.217807 31.8903 0 31.6216 0L15.0811 0Z" fill="#00FFD4"/>
<path fill-rule="evenodd" clip-rule="evenodd" d="M40.7919 0.9V6.88378L56.5054 6.88378V0.9L40.7919 0.9ZM19.4595 14.5216C9.20935 14.5216 0.9 22.831 0.9 33.0811L0.9 52.5405C0.9 62.7906 9.20935 71.1 19.4595 71.1L52.5405 71.1C62.7906 71.1 71.1 62.7906 71.1 52.5405L71.1 33.0811C71.1 22.831 62.7906 14.5216 52.5405 14.5216L19.4595 14.5216ZM15.4946 0.9L15.4946 6.88378L31.2081 6.88378V0.9L15.4946 0.9ZM39.8919 0.486486C39.8919 0.217807 40.1097 0 40.3784 0L56.9189 0C57.1876 0 57.4054 0.217807 57.4054 0.486486V7.2973C57.4054 7.56598 57.1876 7.78378 56.9189 7.78378L40.3784 7.78378C40.1097 7.78378 39.8919 7.56598 39.8919 7.2973V0.486486ZM19.4595 13.6216C8.7123 13.6216 0 22.3339 0 33.0811L0 52.5405C0 63.2877 8.7123 72 19.4595 72L52.5405 72C63.2877 72 72 63.2877 72 52.5405L72 33.0811C72 22.3339 63.2877 13.6216 52.5405 13.6216L19.4595 13.6216ZM14.5946 0.486486C14.5946 0.217807 14.8124 0 15.0811 0L31.6216 0C31.8903 0 32.1081 0.217807 32.1081 0.486486V7.2973C32.1081 7.56598 31.8903 7.78378 31.6216 7.78378L15.0811 7.78378C14.8124 7.78378 14.5946 7.56598 14.5946 7.2973L14.5946 0.486486Z" fill="#151526"/>
<path d="M19.4594 21.4053L52.5404 21.4053C58.9887 21.4053 64.2161 26.6327 64.2161 33.081V52.5405C64.2161 58.9888 58.9887 64.2161 52.5404 64.2161H19.4594C13.0111 64.2161 7.78368 58.9888 7.78368 52.5405L7.78368 33.081C7.78368 26.6327 13.0111 21.4053 19.4594 21.4053Z" fill="#232340"/>
<path d="M20.919 32.1082C20.6503 32.1082 20.4325 32.326 20.4325 32.5947L20.4325 49.1352C20.4325 49.4039 20.6503 49.6217 20.919 49.6217H27.7298C27.9984 49.6217 28.2162 49.4039 28.2162 49.1352L28.2162 32.5947C28.2162 32.326 27.9984 32.1082 27.7298 32.1082H20.919Z" fill="white"/>
<path d="M44.2703 32.1082C44.0016 32.1082 43.7838 32.326 43.7838 32.5947V49.1352C43.7838 49.4039 44.0016 49.6217 44.2703 49.6217H51.0811C51.3498 49.6217 51.5676 49.4039 51.5676 49.1352V32.5947C51.5676 32.326 51.3498 32.1082 51.0811 32.1082H44.2703Z" fill="white"/>
</svg>
