<svg width="72" height="72" viewBox="0 0 72 72" fill="none" xmlns="http://www.w3.org/2000/svg">
<path d="M39.8919 0.486486C39.8919 0.217807 40.1097 0 40.3784 0H56.9189C57.1876 0 57.4054 0.217807 57.4054 0.486486V7.2973C57.4054 7.56598 57.1876 7.78378 56.9189 7.78378H40.3784C40.1097 7.78378 39.8919 7.56598 39.8919 7.2973V0.486486Z" fill="#F0F0FF"/>
<path d="M19.4595 13.6216C8.7123 13.6216 0 22.3339 0 33.0811V52.5405C0 63.2877 8.7123 72 19.4595 72H52.5405C63.2877 72 72 63.2877 72 52.5405V33.0811C72 22.3339 63.2877 13.6216 52.5405 13.6216H19.4595Z" fill="#F0F0FF"/>
<path d="M15.0811 0C14.8124 0 14.5946 0.217807 14.5946 0.486486V7.2973C14.5946 7.56598 14.8124 7.78378 15.0811 7.78378H31.6216C31.8903 7.78378 32.1081 7.56598 32.1081 7.2973V0.486486C32.1081 0.217807 31.8903 0 31.6216 0H15.0811Z" fill="#F0F0FF"/>
<path fill-rule="evenodd" clip-rule="evenodd" d="M40.7919 0.9V6.88378H56.5054V0.9H40.7919ZM19.4595 14.5216C9.20935 14.5216 0.9 22.831 0.9 33.0811V52.5405C0.9 62.7906 9.20935 71.1 19.4595 71.1H52.5405C62.7906 71.1 71.1 62.7906 71.1 52.5405V33.0811C71.1 22.831 62.7906 14.5216 52.5405 14.5216H19.4595ZM15.4946 0.9V6.88378H31.2081V0.9H15.4946ZM39.8919 0.486486C39.8919 0.217807 40.1097 0 40.3784 0H56.9189C57.1876 0 57.4054 0.217807 57.4054 0.486486V7.2973C57.4054 7.56598 57.1876 7.78378 56.9189 7.78378H40.3784C40.1097 7.78378 39.8919 7.56598 39.8919 7.2973V0.486486ZM19.4595 13.6216C8.7123 13.6216 0 22.3339 0 33.0811V52.5405C0 63.2877 8.7123 72 19.4595 72H52.5405C63.2877 72 72 63.2877 72 52.5405V33.0811C72 22.3339 63.2877 13.6216 52.5405 13.6216H19.4595ZM14.5946 0.486486C14.5946 0.217807 14.8124 0 15.0811 0H31.6216C31.8903 0 32.1081 0.217807 32.1081 0.486486V7.2973C32.1081 7.56598 31.8903 7.78378 31.6216 7.78378H15.0811C14.8124 7.78378 14.5946 7.56598 14.5946 7.2973V0.486486Z" fill="#151526"/>
<path d="M19.4593 21.4053H52.5404C58.9887 21.4053 64.2161 26.6327 64.2161 33.081V52.5405C64.2161 58.9888 58.9887 64.2161 52.5404 64.2161H19.4593C13.011 64.2161 7.78366 58.9888 7.78366 52.5405V33.081C7.78366 26.6327 13.011 21.4053 19.4593 21.4053Z" fill="#232340"/>
<path d="M20.9189 32.1082C20.6502 32.1082 20.4324 32.326 20.4324 32.5947V49.1352C20.4324 49.4039 20.6502 49.6217 20.9189 49.6217H27.7297C27.9983 49.6217 28.2162 49.4039 28.2162 49.1352V32.5947C28.2162 32.326 27.9983 32.1082 27.7297 32.1082H20.9189Z" fill="#FF8CEC"/>
<path d="M44.2702 32.1082C44.0015 32.1082 43.7837 32.326 43.7837 32.5947V49.1352C43.7837 49.4039 44.0015 49.6217 44.2702 49.6217H51.081C51.3497 49.6217 51.5675 49.4039 51.5675 49.1352V32.5947C51.5675 32.326 51.3497 32.1082 51.081 32.1082H44.2702Z" fill="#FF8CEC"/>
</svg>
