<svg width="900" height="144" viewBox="0 0 900 144" fill="none" xmlns="http://www.w3.org/2000/svg">
<g opacity="0.1">
<path d="M59.5946 33.2433C59.8185 33.2433 60 33.4248 60 33.6487L60 47.4325C60 47.6564 59.8185 47.8379 59.5946 47.8379L53.9189 47.8379C53.695 47.8379 53.5135 47.6564 53.5135 47.4325L53.5135 33.6487C53.5135 33.4248 53.695 33.2433 53.9189 33.2433L59.5946 33.2433Z" fill="#FF8CEC"/>
<path d="M48.6486 16.2163C48.6486 7.26031 41.3884 6.02216e-05 32.4324 5.98301e-05L16.2162 5.91213e-05C7.26025 5.87298e-05 -4.13205e-06 7.26031 -4.52353e-06 16.2163L-5.72855e-06 43.7838C-6.12003e-06 52.7398 7.26024 60.0001 16.2162 60.0001L32.4324 60.0001C41.3884 60.0001 48.6486 52.7398 48.6486 43.7838L48.6486 16.2163Z" fill="#FF8CEC"/>
<path d="M60 12.5676C60 12.3437 59.8185 12.1622 59.5946 12.1622L53.9189 12.1622C53.695 12.1622 53.5135 12.3437 53.5135 12.5676L53.5135 26.3514C53.5135 26.5753 53.695 26.7568 53.9189 26.7568L59.5946 26.7568C59.8185 26.7568 60 26.5753 60 26.3514L60 12.5676Z" fill="#FF8CEC"/>
<path fill-rule="evenodd" clip-rule="evenodd" d="M59.25 33.9933L54.2635 33.9933L54.2635 47.0879L59.25 47.0879L59.25 33.9933ZM47.8986 16.2163C47.8986 7.67452 40.9742 0.75006 32.4324 0.75006L16.2162 0.750059C7.67446 0.750059 0.749996 7.67452 0.749995 16.2163L0.749994 43.7838C0.749994 52.3256 7.67445 59.2501 16.2162 59.2501L32.4324 59.2501C40.9742 59.2501 47.8986 52.3256 47.8986 43.7838L47.8986 16.2163ZM59.25 12.9122L54.2635 12.9122L54.2635 26.0068L59.25 26.0068L59.25 12.9122ZM59.5946 33.2433C59.8185 33.2433 60 33.4248 60 33.6487L60 47.4325C60 47.6564 59.8185 47.8379 59.5946 47.8379L53.9189 47.8379C53.695 47.8379 53.5135 47.6564 53.5135 47.4325L53.5135 33.6487C53.5135 33.4248 53.695 33.2433 53.9189 33.2433L59.5946 33.2433ZM48.6486 16.2163C48.6486 7.26031 41.3884 6.02216e-05 32.4324 5.98301e-05L16.2162 5.91213e-05C7.26025 5.87298e-05 -4.13205e-06 7.26031 -4.52353e-06 16.2163L-5.72855e-06 43.7838C-6.12003e-06 52.7398 7.26024 60.0001 16.2162 60.0001L32.4324 60.0001C41.3884 60.0001 48.6486 52.7398 48.6486 43.7838L48.6486 16.2163ZM59.5946 12.1622C59.8185 12.1622 60 12.3437 60 12.5676L60 26.3514C60 26.5753 59.8185 26.7568 59.5946 26.7568L53.9189 26.7568C53.695 26.7568 53.5135 26.5753 53.5135 26.3514L53.5135 12.5676C53.5135 12.3437 53.695 12.1622 53.9189 12.1622L59.5946 12.1622Z" fill="#151526"/>
<path d="M42.1622 16.2163L42.1622 43.7839C42.1622 49.1575 37.8061 53.5136 32.4325 53.5136L16.2163 53.5136C10.8427 53.5136 6.48654 49.1575 6.48654 43.7839L6.48654 16.2163C6.48654 10.8427 10.8427 6.48657 16.2163 6.48657L32.4325 6.48657C37.8061 6.48657 42.1622 10.8427 42.1622 16.2163Z" fill="#232340"/>
<path d="M33.2431 17.4324C33.2431 17.2085 33.0616 17.027 32.8377 17.027L19.054 17.027C18.8301 17.027 18.6486 17.2085 18.6486 17.4324L18.6486 23.1081C18.6486 23.332 18.8301 23.5135 19.054 23.5135L32.8377 23.5135C33.0616 23.5135 33.2431 23.332 33.2431 23.1081L33.2431 17.4324Z" fill="#FF8CEC"/>
<path d="M33.2431 36.8919C33.2431 36.668 33.0616 36.4865 32.8377 36.4865L19.054 36.4865C18.8301 36.4865 18.6486 36.668 18.6486 36.8919L18.6486 42.5676C18.6486 42.7915 18.8301 42.973 19.054 42.973L32.8377 42.973C33.0616 42.973 33.2431 42.7915 33.2431 42.5676L33.2431 36.8919Z" fill="#FF8CEC"/>
</g>
<g opacity="0.3">
<path d="M102.375 21.0002C102.168 21.0002 102 21.224 102 21.5002V38.5002C102 38.7763 102.168 39.0002 102.375 39.0002H107.625C107.832 39.0002 108 38.7763 108 38.5002V21.5002C108 21.224 107.832 21.0002 107.625 21.0002H102.375Z" fill="white"/>
<path d="M120.375 21.0002C120.168 21.0002 120 21.224 120 21.5002V38.5002C120 38.7763 120.168 39.0002 120.375 39.0002H125.625C125.832 39.0002 126 38.7763 126 38.5002V21.5002C126 21.224 125.832 21.0002 125.625 21.0002H120.375Z" fill="white"/>
<path fill-rule="evenodd" clip-rule="evenodd" d="M102.75 21.7502V38.2502H107.25V21.7502H102.75ZM120.75 21.7502V38.2502H125.25V21.7502H120.75ZM102 21.5002C102 21.224 102.168 21.0002 102.375 21.0002H107.625C107.832 21.0002 108 21.224 108 21.5002V38.5002C108 38.7763 107.832 39.0002 107.625 39.0002H102.375C102.168 39.0002 102 38.7763 102 38.5002V21.5002ZM120 21.5002C120 21.224 120.168 21.0002 120.375 21.0002H125.625C125.832 21.0002 126 21.224 126 21.5002V38.5002C126 38.7763 125.832 39.0002 125.625 39.0002H120.375C120.168 39.0002 120 38.7763 120 38.5002V21.5002Z" fill="#151526"/>
</g>
<g opacity="0.3">
<path d="M117.244 84.4056C117.244 84.1818 117.425 84.0002 117.649 84.0002L131.433 84.0002C131.657 84.0002 131.838 84.1818 131.838 84.4056V90.0813C131.838 90.3052 131.657 90.4867 131.433 90.4867L117.649 90.4867C117.425 90.4867 117.244 90.3052 117.244 90.0813V84.4056Z" fill="#FF8CEC"/>
<path d="M100.216 95.3516C91.2605 95.3516 84.0003 102.612 84.0003 111.568V127.784C84.0003 136.74 91.2605 144 100.216 144H127.784C136.74 144 144 136.74 144 127.784V111.568C144 102.612 136.74 95.3516 127.784 95.3516H100.216Z" fill="#FF8CEC"/>
<path d="M96.5679 84.0002C96.344 84.0002 96.1624 84.1818 96.1624 84.4056V90.0813C96.1624 90.3052 96.344 90.4867 96.5679 90.4867H110.352C110.576 90.4867 110.757 90.3052 110.757 90.0813V84.4056C110.757 84.1818 110.576 84.0002 110.352 84.0002H96.5679Z" fill="#FF8CEC"/>
<path fill-rule="evenodd" clip-rule="evenodd" d="M117.994 84.7502V89.7367L131.088 89.7367V84.7502L117.994 84.7502ZM100.216 96.1016C91.6747 96.1016 84.7503 103.026 84.7503 111.568V127.784C84.7503 136.326 91.6747 143.25 100.216 143.25H127.784C136.326 143.25 143.25 136.326 143.25 127.784V111.568C143.25 103.026 136.326 96.1016 127.784 96.1016H100.216ZM96.9124 84.7502V89.7367H110.007V84.7502H96.9124ZM117.244 84.4056C117.244 84.1818 117.425 84.0002 117.649 84.0002L131.433 84.0002C131.657 84.0002 131.838 84.1818 131.838 84.4056V90.0813C131.838 90.3052 131.657 90.4867 131.433 90.4867L117.649 90.4867C117.425 90.4867 117.244 90.3052 117.244 90.0813V84.4056ZM100.216 95.3516C91.2605 95.3516 84.0003 102.612 84.0003 111.568V127.784C84.0003 136.74 91.2605 144 100.216 144H127.784C136.74 144 144 136.74 144 127.784V111.568C144 102.612 136.74 95.3516 127.784 95.3516H100.216ZM96.1624 84.4056C96.1624 84.1818 96.344 84.0002 96.5679 84.0002H110.352C110.576 84.0002 110.757 84.1818 110.757 84.4056V90.0813C110.757 90.3052 110.576 90.4867 110.352 90.4867H96.5679C96.344 90.4867 96.1624 90.3052 96.1624 90.0813V84.4056Z" fill="#151526"/>
<path d="M100.217 101.838H127.784C133.158 101.838 137.514 106.194 137.514 111.568V127.784C137.514 133.158 133.158 137.514 127.784 137.514H100.217C94.8429 137.514 90.4868 133.158 90.4868 127.784V111.568C90.4868 106.194 94.8429 101.838 100.217 101.838Z" fill="#3939E6"/>
<path d="M101.433 110.757C101.209 110.757 101.027 110.939 101.027 111.162V124.946C101.027 125.17 101.209 125.352 101.433 125.352H107.108C107.332 125.352 107.514 125.17 107.514 124.946V111.162C107.514 110.939 107.332 110.757 107.108 110.757H101.433Z" fill="#F0F2FF"/>
<path d="M120.892 110.757C120.668 110.757 120.487 110.939 120.487 111.162V124.946C120.487 125.17 120.668 125.352 120.892 125.352H126.568C126.792 125.352 126.973 125.17 126.973 124.946V111.162C126.973 110.939 126.792 110.757 126.568 110.757H120.892Z" fill="#F0F2FF"/>
</g>
<g opacity="0.3">
<path d="M186.125 105.5C186.125 105.387 186.16 105.289 186.21 105.222C186.26 105.155 186.32 105.125 186.375 105.125H191.625C191.681 105.125 191.74 105.155 191.791 105.222C191.841 105.289 191.875 105.387 191.875 105.5V122.5C191.875 122.614 191.841 122.712 191.791 122.779C191.74 122.846 191.681 122.875 191.625 122.875H186.375C186.32 122.875 186.26 122.846 186.21 122.779C186.16 122.712 186.125 122.614 186.125 122.5V105.5ZM204.125 105.5C204.125 105.387 204.16 105.289 204.21 105.222C204.26 105.155 204.32 105.125 204.375 105.125H209.625C209.681 105.125 209.74 105.155 209.791 105.222C209.841 105.289 209.875 105.387 209.875 105.5V122.5C209.875 122.614 209.841 122.712 209.791 122.779C209.74 122.846 209.681 122.875 209.625 122.875H204.375C204.32 122.875 204.26 122.846 204.21 122.779C204.16 122.712 204.125 122.614 204.125 122.5V105.5Z" fill="#BAC1FF" stroke="#151526" stroke-width="0.25"/>
</g>
<g opacity="0.5">
<path d="M285.244 84.4056C285.244 84.1818 285.425 84.0002 285.649 84.0002H299.433C299.657 84.0002 299.838 84.1818 299.838 84.4056V90.0813C299.838 90.3052 299.657 90.4867 299.433 90.4867H285.649C285.425 90.4867 285.244 90.3052 285.244 90.0813V84.4056Z" fill="#FF8CEC"/>
<path d="M268.216 95.3516C259.261 95.3516 252 102.612 252 111.568V127.784C252 136.74 259.261 144 268.216 144H295.784C304.74 144 312 136.74 312 127.784V111.568C312 102.612 304.74 95.3516 295.784 95.3516H268.216Z" fill="#FF8CEC"/>
<path d="M264.568 84.0002C264.344 84.0002 264.162 84.1818 264.162 84.4056V90.0813C264.162 90.3052 264.344 90.4867 264.568 90.4867H278.352C278.576 90.4867 278.757 90.3052 278.757 90.0813V84.4056C278.757 84.1818 278.576 84.0002 278.352 84.0002H264.568Z" fill="#FF8CEC"/>
<path fill-rule="evenodd" clip-rule="evenodd" d="M285.994 84.7502V89.7367H299.088V84.7502H285.994ZM268.216 96.1016C259.675 96.1016 252.75 103.026 252.75 111.568V127.784C252.75 136.326 259.675 143.25 268.216 143.25H295.784C304.326 143.25 311.25 136.326 311.25 127.784V111.568C311.25 103.026 304.326 96.1016 295.784 96.1016H268.216ZM264.912 84.7502V89.7367H278.007V84.7502H264.912ZM285.244 84.4056C285.244 84.1818 285.425 84.0002 285.649 84.0002H299.433C299.657 84.0002 299.838 84.1818 299.838 84.4056V90.0813C299.838 90.3052 299.657 90.4867 299.433 90.4867H285.649C285.425 90.4867 285.244 90.3052 285.244 90.0813V84.4056ZM268.216 95.3516C259.261 95.3516 252 102.612 252 111.568V127.784C252 136.74 259.261 144 268.216 144H295.784C304.74 144 312 136.74 312 127.784V111.568C312 102.612 304.74 95.3516 295.784 95.3516H268.216ZM264.162 84.4056C264.162 84.1818 264.344 84.0002 264.568 84.0002H278.352C278.576 84.0002 278.757 84.1818 278.757 84.4056V90.0813C278.757 90.3052 278.576 90.4867 278.352 90.4867H264.568C264.344 90.4867 264.162 90.3052 264.162 90.0813V84.4056Z" fill="#151526"/>
<path d="M268.217 101.838H295.784C301.158 101.838 305.514 106.194 305.514 111.568V127.784C305.514 133.158 301.158 137.514 295.784 137.514H268.217C262.843 137.514 258.487 133.158 258.487 127.784V111.568C258.487 106.194 262.843 101.838 268.217 101.838Z" fill="white"/>
<path d="M269.433 110.757C269.209 110.757 269.027 110.939 269.027 111.162V124.946C269.027 125.17 269.209 125.352 269.433 125.352H275.108C275.332 125.352 275.514 125.17 275.514 124.946V111.162C275.514 110.939 275.332 110.757 275.108 110.757H269.433Z" fill="#FF8CEC"/>
<path d="M288.892 110.757C288.668 110.757 288.487 110.939 288.487 111.162V124.946C288.487 125.17 288.668 125.352 288.892 125.352H294.568C294.792 125.352 294.973 125.17 294.973 124.946V111.162C294.973 110.939 294.792 110.757 294.568 110.757H288.892Z" fill="#FF8CEC"/>
</g>
<g opacity="0.5">
<path d="M369.243 0.405589C369.243 0.181689 369.425 0.000183105 369.649 0.000183105H383.433C383.656 0.000183105 383.838 0.181689 383.838 0.405589V6.08126C383.838 6.30516 383.656 6.48667 383.433 6.48667H369.649C369.425 6.48667 369.243 6.30516 369.243 6.08126V0.405589Z" fill="#FF8CEC"/>
<path d="M352.216 11.3515C343.26 11.3515 336 18.6118 336 27.5678V43.784C336 52.7399 343.26 60.0002 352.216 60.0002H379.784C388.74 60.0002 396 52.7399 396 43.784V27.5678C396 18.6118 388.74 11.3515 379.784 11.3515H352.216Z" fill="#FF8CEC"/>
<path d="M348.568 0.000183105C348.344 0.000183105 348.162 0.181689 348.162 0.405589V6.08126C348.162 6.30516 348.344 6.48667 348.568 6.48667H362.352C362.575 6.48667 362.757 6.30516 362.757 6.08126V0.405589C362.757 0.181689 362.575 0.000183105 362.352 0.000183105H348.568Z" fill="#FF8CEC"/>
<path fill-rule="evenodd" clip-rule="evenodd" d="M369.993 0.750183V5.73667H383.088V0.750183H369.993ZM352.216 12.1015C343.675 12.1015 336.75 19.026 336.75 27.5678V43.784C336.75 52.3257 343.675 59.2502 352.216 59.2502H379.784C388.326 59.2502 395.25 52.3257 395.25 43.784V27.5678C395.25 19.026 388.326 12.1015 379.784 12.1015H352.216ZM348.912 0.750183V5.73667H362.007V0.750183H348.912ZM369.243 0.405589C369.243 0.181689 369.425 0.000183105 369.649 0.000183105H383.433C383.656 0.000183105 383.838 0.181689 383.838 0.405589V6.08126C383.838 6.30516 383.656 6.48667 383.433 6.48667H369.649C369.425 6.48667 369.243 6.30516 369.243 6.08126V0.405589ZM352.216 11.3515C343.26 11.3515 336 18.6118 336 27.5678V43.784C336 52.7399 343.26 60.0002 352.216 60.0002H379.784C388.74 60.0002 396 52.7399 396 43.784V27.5678C396 18.6118 388.74 11.3515 379.784 11.3515H352.216ZM348.162 0.405589C348.162 0.181689 348.344 0.000183105 348.568 0.000183105H362.352C362.575 0.000183105 362.757 0.181689 362.757 0.405589V6.08126C362.757 6.30516 362.575 6.48667 362.352 6.48667H348.568C348.344 6.48667 348.162 6.30516 348.162 6.08126V0.405589Z" fill="#151526"/>
<path d="M352.216 17.838H379.784C385.158 17.838 389.514 22.1941 389.514 27.5677V43.7839C389.514 49.1575 385.158 53.5136 379.784 53.5136H352.216C346.843 53.5136 342.487 49.1575 342.487 43.7839V27.5677C342.487 22.1941 346.843 17.838 352.216 17.838Z" fill="#232340"/>
<path d="M353.433 26.757C353.209 26.757 353.027 26.9385 353.027 27.1624V40.9462C353.027 41.1701 353.209 41.3516 353.433 41.3516H359.108C359.332 41.3516 359.514 41.1701 359.514 40.9462V27.1624C359.514 26.9385 359.332 26.757 359.108 26.757H353.433Z" fill="#00FFD4"/>
<path d="M372.892 26.757C372.668 26.757 372.487 26.9385 372.487 27.1624V40.9462C372.487 41.1701 372.668 41.3516 372.892 41.3516H378.568C378.792 41.3516 378.973 41.1701 378.973 40.9462V27.1624C378.973 26.9385 378.792 26.757 378.568 26.757H372.892Z" fill="#00FFD4"/>
</g>
<g opacity="0.5">
<path d="M374.5 102.125C374.614 102.125 374.712 102.16 374.779 102.21C374.846 102.26 374.875 102.32 374.875 102.375L374.875 107.625C374.875 107.681 374.846 107.74 374.779 107.79C374.712 107.841 374.614 107.875 374.5 107.875L357.5 107.875C357.387 107.875 357.289 107.841 357.222 107.79C357.155 107.74 357.125 107.681 357.125 107.625L357.125 102.375C357.125 102.32 357.155 102.26 357.222 102.21C357.289 102.16 357.387 102.125 357.5 102.125L374.5 102.125ZM374.5 120.125C374.614 120.125 374.712 120.16 374.779 120.21C374.846 120.26 374.875 120.32 374.875 120.375L374.875 125.625C374.875 125.681 374.846 125.74 374.779 125.79C374.712 125.841 374.614 125.875 374.5 125.875L357.5 125.875C357.387 125.875 357.289 125.841 357.222 125.79C357.155 125.74 357.125 125.681 357.125 125.625L357.125 120.375C357.125 120.32 357.155 120.26 357.222 120.21C357.289 120.16 357.387 120.125 357.5 120.125L374.5 120.125Z" fill="white" stroke="#151526" stroke-width="0.25"/>
</g>
<g opacity="0.5">
<path d="M420.406 110.757C420.182 110.757 420 110.575 420 110.351L420 96.5677C420 96.3438 420.182 96.1623 420.406 96.1623L426.081 96.1623C426.305 96.1623 426.487 96.3438 426.487 96.5677L426.487 110.351C426.487 110.575 426.305 110.757 426.081 110.757L420.406 110.757Z" fill="#FF8CEC"/>
<path d="M431.352 127.784C431.352 136.74 438.612 144 447.568 144L463.784 144C472.74 144 480 136.74 480 127.784L480 100.216C480 91.2604 472.74 84.0001 463.784 84.0001L447.568 84.0001C438.612 84.0001 431.352 91.2604 431.352 100.216L431.352 127.784Z" fill="#FF8CEC"/>
<path d="M420 131.433C420 131.656 420.182 131.838 420.406 131.838L426.081 131.838C426.305 131.838 426.487 131.656 426.487 131.433L426.487 117.649C426.487 117.425 426.305 117.243 426.081 117.243L420.406 117.243C420.182 117.243 420 117.425 420 117.649L420 131.433Z" fill="#FF8CEC"/>
<path fill-rule="evenodd" clip-rule="evenodd" d="M420.75 110.007L425.737 110.007L425.737 96.9123L420.75 96.9123L420.75 110.007ZM432.102 127.784C432.102 136.326 439.026 143.25 447.568 143.25L463.784 143.25C472.326 143.25 479.25 136.326 479.25 127.784L479.25 100.216C479.25 91.6746 472.326 84.7501 463.784 84.7501L447.568 84.7501C439.026 84.7501 432.102 91.6746 432.102 100.216L432.102 127.784ZM420.75 131.088L425.737 131.088L425.737 117.993L420.75 117.993L420.75 131.088ZM420.406 110.757C420.182 110.757 420 110.575 420 110.351L420 96.5677C420 96.3438 420.182 96.1623 420.406 96.1623L426.081 96.1623C426.305 96.1623 426.487 96.3438 426.487 96.5677L426.487 110.351C426.487 110.575 426.305 110.757 426.081 110.757L420.406 110.757ZM431.352 127.784C431.352 136.74 438.612 144 447.568 144L463.784 144C472.74 144 480 136.74 480 127.784L480 100.216C480 91.2604 472.74 84.0001 463.784 84.0001L447.568 84.0001C438.612 84.0001 431.352 91.2604 431.352 100.216L431.352 127.784ZM420.406 131.838C420.182 131.838 420 131.656 420 131.433L420 117.649C420 117.425 420.182 117.243 420.406 117.243L426.081 117.243C426.305 117.243 426.487 117.425 426.487 117.649L426.487 131.433C426.487 131.656 426.305 131.838 426.081 131.838L420.406 131.838Z" fill="#151526"/>
<path d="M437.838 127.784L437.838 100.216C437.838 94.8427 442.194 90.4865 447.568 90.4865L463.784 90.4865C469.158 90.4865 473.514 94.8427 473.514 100.216L473.514 127.784C473.514 133.157 469.158 137.514 463.784 137.514L447.568 137.514C442.194 137.514 437.838 133.157 437.838 127.784Z" fill="#F0F2FF"/>
<path d="M446.757 126.568C446.757 126.792 446.939 126.973 447.163 126.973L460.946 126.973C461.17 126.973 461.352 126.792 461.352 126.568L461.352 120.892C461.352 120.668 461.17 120.487 460.946 120.487L447.163 120.487C446.939 120.487 446.757 120.668 446.757 120.892L446.757 126.568Z" fill="#3939E6"/>
<path d="M446.757 107.108C446.757 107.332 446.939 107.514 447.163 107.514L460.946 107.514C461.17 107.514 461.352 107.332 461.352 107.108L461.352 101.433C461.352 101.209 461.17 101.027 460.946 101.027L447.163 101.027C446.939 101.027 446.757 101.209 446.757 101.433L446.757 107.108Z" fill="#3939E6"/>
</g>
<g opacity="0.5">
<path d="M537.243 0.405589C537.243 0.181689 537.425 0.000183105 537.649 0.000183105H551.433C551.657 0.000183105 551.838 0.181689 551.838 0.405589V6.08126C551.838 6.30516 551.657 6.48667 551.433 6.48667H537.649C537.425 6.48667 537.243 6.30516 537.243 6.08126V0.405589Z" fill="#FF8CEC"/>
<path d="M520.216 11.3515C511.26 11.3515 504 18.6118 504 27.5678V43.784C504 52.7399 511.26 60.0002 520.216 60.0002H547.784C556.74 60.0002 564 52.7399 564 43.784V27.5678C564 18.6118 556.74 11.3515 547.784 11.3515H520.216Z" fill="#FF8CEC"/>
<path d="M516.568 0.000183105C516.344 0.000183105 516.162 0.181689 516.162 0.405589V6.08126C516.162 6.30516 516.344 6.48667 516.568 6.48667H530.352C530.575 6.48667 530.757 6.30516 530.757 6.08126V0.405589C530.757 0.181689 530.575 0.000183105 530.352 0.000183105H516.568Z" fill="#FF8CEC"/>
<path fill-rule="evenodd" clip-rule="evenodd" d="M537.993 0.750183V5.73667H551.088V0.750183H537.993ZM520.216 12.1015C511.675 12.1015 504.75 19.026 504.75 27.5678V43.784C504.75 52.3257 511.675 59.2502 520.216 59.2502H547.784C556.326 59.2502 563.25 52.3257 563.25 43.784V27.5678C563.25 19.026 556.326 12.1015 547.784 12.1015H520.216ZM516.912 0.750183V5.73667H530.007V0.750183H516.912ZM537.243 0.405589C537.243 0.181689 537.425 0.000183105 537.649 0.000183105H551.433C551.657 0.000183105 551.838 0.181689 551.838 0.405589V6.08126C551.838 6.30516 551.657 6.48667 551.433 6.48667H537.649C537.425 6.48667 537.243 6.30516 537.243 6.08126V0.405589ZM520.216 11.3515C511.26 11.3515 504 18.6118 504 27.5678V43.784C504 52.7399 511.26 60.0002 520.216 60.0002H547.784C556.74 60.0002 564 52.7399 564 43.784V27.5678C564 18.6118 556.74 11.3515 547.784 11.3515H520.216ZM516.162 0.405589C516.162 0.181689 516.344 0.000183105 516.568 0.000183105H530.352C530.575 0.000183105 530.757 0.181689 530.757 0.405589V6.08126C530.757 6.30516 530.575 6.48667 530.352 6.48667H516.568C516.344 6.48667 516.162 6.30516 516.162 6.08126V0.405589Z" fill="#151526"/>
<path d="M520.216 17.838H547.784C553.158 17.838 557.514 22.1941 557.514 27.5677V43.7839C557.514 49.1575 553.158 53.5136 547.784 53.5136H520.216C514.843 53.5136 510.487 49.1575 510.487 43.7839V27.5677C510.487 22.1941 514.843 17.838 520.216 17.838Z" fill="white"/>
<path d="M521.433 26.757C521.209 26.757 521.027 26.9385 521.027 27.1624V40.9462C521.027 41.1701 521.209 41.3516 521.433 41.3516H527.108C527.332 41.3516 527.514 41.1701 527.514 40.9462V27.1624C527.514 26.9385 527.332 26.757 527.108 26.757H521.433Z" fill="#606080"/>
<path d="M540.892 26.757C540.668 26.757 540.487 26.9385 540.487 27.1624V40.9462C540.487 41.1701 540.668 41.3516 540.892 41.3516H546.568C546.792 41.3516 546.973 41.1701 546.973 40.9462V27.1624C546.973 26.9385 546.792 26.757 546.568 26.757H540.892Z" fill="#606080"/>
</g>
<g opacity="0.5">
<path d="M542.5 102.125C542.614 102.125 542.712 102.16 542.779 102.21C542.846 102.26 542.875 102.32 542.875 102.375L542.875 107.625C542.875 107.681 542.846 107.74 542.779 107.79C542.712 107.841 542.614 107.875 542.5 107.875L525.5 107.875C525.387 107.875 525.289 107.841 525.222 107.79C525.155 107.74 525.125 107.681 525.125 107.625L525.125 102.375C525.125 102.32 525.155 102.26 525.222 102.21C525.289 102.16 525.387 102.125 525.5 102.125L542.5 102.125ZM542.5 120.125C542.614 120.125 542.712 120.16 542.779 120.21C542.846 120.26 542.875 120.32 542.875 120.375L542.875 125.625C542.875 125.681 542.846 125.74 542.779 125.79C542.712 125.841 542.614 125.875 542.5 125.875L525.5 125.875C525.387 125.875 525.289 125.841 525.222 125.79C525.155 125.74 525.125 125.681 525.125 125.625L525.125 120.375C525.125 120.32 525.155 120.26 525.222 120.21C525.289 120.16 525.387 120.125 525.5 120.125L542.5 120.125Z" fill="white" stroke="#151526" stroke-width="0.25"/>
</g>
<g opacity="0.5">
<path d="M606.375 21.0002C606.168 21.0002 606 21.224 606 21.5002V38.5002C606 38.7763 606.168 39.0002 606.375 39.0002H611.625C611.832 39.0002 612 38.7763 612 38.5002V21.5002C612 21.224 611.832 21.0002 611.625 21.0002H606.375Z" fill="white"/>
<path d="M624.375 21.0002C624.168 21.0002 624 21.224 624 21.5002V38.5002C624 38.7763 624.168 39.0002 624.375 39.0002H629.625C629.832 39.0002 630 38.7763 630 38.5002V21.5002C630 21.224 629.832 21.0002 629.625 21.0002H624.375Z" fill="white"/>
<path fill-rule="evenodd" clip-rule="evenodd" d="M606.75 21.7502V38.2502H611.25V21.7502H606.75ZM624.75 21.7502V38.2502H629.25V21.7502H624.75ZM606 21.5002C606 21.224 606.168 21.0002 606.375 21.0002H611.625C611.832 21.0002 612 21.224 612 21.5002V38.5002C612 38.7763 611.832 39.0002 611.625 39.0002H606.375C606.168 39.0002 606 38.7763 606 38.5002V21.5002ZM624 21.5002C624 21.224 624.168 21.0002 624.375 21.0002H629.625C629.832 21.0002 630 21.224 630 21.5002V38.5002C630 38.7763 629.832 39.0002 629.625 39.0002H624.375C624.168 39.0002 624 38.7763 624 38.5002V21.5002Z" fill="#151526"/>
</g>
<g opacity="0.3">
<path d="M693 41.6251C693 41.8322 693.224 42.0001 693.5 42.0001L710.5 42.0001C710.777 42.0001 711 41.8322 711 41.6251L711 36.3751C711 36.168 710.777 36.0001 710.5 36.0001L693.5 36.0001C693.224 36.0001 693 36.168 693 36.3751L693 41.6251Z" fill="white"/>
<path d="M693 23.6251C693 23.8322 693.224 24.0001 693.5 24.0001L710.5 24.0001C710.777 24.0001 711 23.8322 711 23.6251L711 18.3751C711 18.168 710.777 18.0001 710.5 18.0001L693.5 18.0001C693.224 18.0001 693 18.168 693 18.3751L693 23.6251Z" fill="white"/>
<path fill-rule="evenodd" clip-rule="evenodd" d="M693.75 41.2501L710.25 41.2501L710.25 36.7501L693.75 36.7501L693.75 41.2501ZM693.75 23.2501L710.25 23.2501L710.25 18.7501L693.75 18.7501L693.75 23.2501ZM693.5 42.0001C693.224 42.0001 693 41.8322 693 41.6251L693 36.3751C693 36.168 693.224 36.0001 693.5 36.0001L710.5 36.0001C710.777 36.0001 711 36.168 711 36.3751L711 41.6251C711 41.8322 710.777 42.0001 710.5 42.0001L693.5 42.0001ZM693.5 24.0001C693.224 24.0001 693 23.8322 693 23.6251L693 18.3751C693 18.168 693.224 18.0001 693.5 18.0001L710.5 18.0001C710.777 18.0001 711 18.168 711 18.3751L711 23.6251C711 23.8322 710.777 24.0001 710.5 24.0001L693.5 24.0001Z" fill="#151526"/>
</g>
<g opacity="0.3">
<path d="M705.244 84.4056C705.244 84.1818 705.425 84.0002 705.649 84.0002H719.433C719.657 84.0002 719.838 84.1818 719.838 84.4056V90.0813C719.838 90.3052 719.657 90.4867 719.433 90.4867H705.649C705.425 90.4867 705.244 90.3052 705.244 90.0813V84.4056Z" fill="#FF8CEC"/>
<path d="M688.217 95.3516C679.261 95.3516 672 102.612 672 111.568V127.784C672 136.74 679.261 144 688.217 144H715.784C724.74 144 732 136.74 732 127.784V111.568C732 102.612 724.74 95.3516 715.784 95.3516H688.217Z" fill="#FF8CEC"/>
<path d="M684.568 84.0002C684.344 84.0002 684.163 84.1818 684.163 84.4056V90.0813C684.163 90.3052 684.344 90.4867 684.568 90.4867H698.352C698.576 90.4867 698.757 90.3052 698.757 90.0813V84.4056C698.757 84.1818 698.576 84.0002 698.352 84.0002H684.568Z" fill="#FF8CEC"/>
<path fill-rule="evenodd" clip-rule="evenodd" d="M705.994 84.7502V89.7367H719.088V84.7502H705.994ZM688.217 96.1016C679.675 96.1016 672.75 103.026 672.75 111.568V127.784C672.75 136.326 679.675 143.25 688.217 143.25H715.784C724.326 143.25 731.25 136.326 731.25 127.784V111.568C731.25 103.026 724.326 96.1016 715.784 96.1016H688.217ZM684.913 84.7502V89.7367H698.007V84.7502H684.913ZM705.244 84.4056C705.244 84.1818 705.425 84.0002 705.649 84.0002H719.433C719.657 84.0002 719.838 84.1818 719.838 84.4056V90.0813C719.838 90.3052 719.657 90.4867 719.433 90.4867H705.649C705.425 90.4867 705.244 90.3052 705.244 90.0813V84.4056ZM688.217 95.3516C679.261 95.3516 672 102.612 672 111.568V127.784C672 136.74 679.261 144 688.217 144H715.784C724.74 144 732 136.74 732 127.784V111.568C732 102.612 724.74 95.3516 715.784 95.3516H688.217ZM684.163 84.4056C684.163 84.1818 684.344 84.0002 684.568 84.0002H698.352C698.576 84.0002 698.757 84.1818 698.757 84.4056V90.0813C698.757 90.3052 698.576 90.4867 698.352 90.4867H684.568C684.344 90.4867 684.163 90.3052 684.163 90.0813V84.4056Z" fill="#151526"/>
<path d="M688.217 101.838H715.784C721.158 101.838 725.514 106.194 725.514 111.568V127.784C725.514 133.158 721.158 137.514 715.784 137.514H688.217C682.843 137.514 678.487 133.158 678.487 127.784V111.568C678.487 106.194 682.843 101.838 688.217 101.838Z" fill="#232340"/>
<path d="M689.433 110.757C689.209 110.757 689.027 110.939 689.027 111.162V124.946C689.027 125.17 689.209 125.352 689.433 125.352H695.109C695.332 125.352 695.514 125.17 695.514 124.946V111.162C695.514 110.939 695.332 110.757 695.109 110.757H689.433Z" fill="white"/>
<path d="M708.892 110.757C708.668 110.757 708.487 110.939 708.487 111.162V124.946C708.487 125.17 708.668 125.352 708.892 125.352H714.568C714.792 125.352 714.973 125.17 714.973 124.946V111.162C714.973 110.939 714.792 110.757 714.568 110.757H708.892Z" fill="white"/>
</g>
<g opacity="0.1">
<path d="M858.125 21.5002C858.125 21.3865 858.16 21.2885 858.21 21.2216C858.26 21.1548 858.32 21.1252 858.375 21.1252H863.625C863.681 21.1252 863.74 21.1548 863.79 21.2216C863.841 21.2885 863.875 21.3865 863.875 21.5002V38.5002C863.875 38.6138 863.841 38.7119 863.79 38.7787C863.74 38.8455 863.681 38.8752 863.625 38.8752H858.375C858.32 38.8752 858.26 38.8455 858.21 38.7787C858.16 38.7119 858.125 38.6138 858.125 38.5002V21.5002ZM876.125 21.5002C876.125 21.3865 876.16 21.2885 876.21 21.2216C876.26 21.1548 876.32 21.1252 876.375 21.1252H881.625C881.681 21.1252 881.74 21.1548 881.79 21.2216C881.841 21.2885 881.875 21.3865 881.875 21.5002V38.5002C881.875 38.6138 881.841 38.7119 881.79 38.7787C881.74 38.8455 881.681 38.8752 881.625 38.8752H876.375C876.32 38.8752 876.26 38.8455 876.21 38.7787C876.16 38.7119 876.125 38.6138 876.125 38.5002V21.5002Z" fill="#FF8CEC" stroke="#151526" stroke-width="0.25"/>
</g>
<g opacity="0.1">
<path d="M873.244 84.4056C873.244 84.1818 873.425 84.0002 873.649 84.0002H887.433C887.657 84.0002 887.838 84.1818 887.838 84.4056V90.0813C887.838 90.3052 887.657 90.4867 887.433 90.4867H873.649C873.425 90.4867 873.244 90.3052 873.244 90.0813V84.4056Z" fill="#FF8CEC"/>
<path d="M856.217 95.3516C847.261 95.3516 840 102.612 840 111.568V127.784C840 136.74 847.261 144 856.217 144H883.784C892.74 144 900 136.74 900 127.784V111.568C900 102.612 892.74 95.3516 883.784 95.3516H856.217Z" fill="#FF8CEC"/>
<path d="M852.568 84.0002C852.344 84.0002 852.163 84.1818 852.163 84.4056V90.0813C852.163 90.3052 852.344 90.4867 852.568 90.4867H866.352C866.576 90.4867 866.757 90.3052 866.757 90.0813V84.4056C866.757 84.1818 866.576 84.0002 866.352 84.0002H852.568Z" fill="#FF8CEC"/>
<path fill-rule="evenodd" clip-rule="evenodd" d="M873.994 84.7502V89.7367H887.088V84.7502H873.994ZM856.217 96.1016C847.675 96.1016 840.75 103.026 840.75 111.568V127.784C840.75 136.326 847.675 143.25 856.217 143.25H883.784C892.326 143.25 899.25 136.326 899.25 127.784V111.568C899.25 103.026 892.326 96.1016 883.784 96.1016H856.217ZM852.913 84.7502V89.7367H866.007V84.7502H852.913ZM873.244 84.4056C873.244 84.1818 873.425 84.0002 873.649 84.0002H887.433C887.657 84.0002 887.838 84.1818 887.838 84.4056V90.0813C887.838 90.3052 887.657 90.4867 887.433 90.4867H873.649C873.425 90.4867 873.244 90.3052 873.244 90.0813V84.4056ZM856.217 95.3516C847.261 95.3516 840 102.612 840 111.568V127.784C840 136.74 847.261 144 856.217 144H883.784C892.74 144 900 136.74 900 127.784V111.568C900 102.612 892.74 95.3516 883.784 95.3516H856.217ZM852.163 84.4056C852.163 84.1818 852.344 84.0002 852.568 84.0002H866.352C866.576 84.0002 866.757 84.1818 866.757 84.4056V90.0813C866.757 90.3052 866.576 90.4867 866.352 90.4867H852.568C852.344 90.4867 852.163 90.3052 852.163 90.0813V84.4056Z" fill="#151526"/>
<path d="M856.217 101.838H883.784C889.158 101.838 893.514 106.194 893.514 111.568V127.784C893.514 133.158 889.158 137.514 883.784 137.514H856.217C850.843 137.514 846.487 133.158 846.487 127.784V111.568C846.487 106.194 850.843 101.838 856.217 101.838Z" fill="#F0F2FF"/>
<path d="M857.433 110.757C857.209 110.757 857.027 110.939 857.027 111.162V124.946C857.027 125.17 857.209 125.352 857.433 125.352H863.108C863.332 125.352 863.514 125.17 863.514 124.946V111.162C863.514 110.939 863.332 110.757 863.108 110.757H857.433Z" fill="#3939E6"/>
<path d="M876.892 110.757C876.668 110.757 876.487 110.939 876.487 111.162V124.946C876.487 125.17 876.668 125.352 876.892 125.352H882.568C882.792 125.352 882.973 125.17 882.973 124.946V111.162C882.973 110.939 882.792 110.757 882.568 110.757H876.892Z" fill="#3939E6"/>
</g>
<g opacity="0.5" clip-path="url(#clip0)">
<path d="M633.96 87.6302C630.96 87.5702 621.51 87.9302 617.97 101.07C617.97 101.07 615.33 87.3302 602.67 87.6302C590.01 87.9302 586.77 100.38 588.42 106.08C590.07 111.78 592.26 121.98 617.97 140.97C617.97 140.97 647.97 119.22 647.97 104.73C647.97 90.2402 636.96 87.7202 633.96 87.6302Z" fill="#00FFD4"/>
<path fill-rule="evenodd" clip-rule="evenodd" d="M617.97 140.97C617.97 140.97 647.97 119.22 647.97 104.73C647.97 90.2402 636.96 87.7202 633.96 87.6302C631.071 87.5724 622.198 87.9042 618.385 99.6685C618.239 100.119 618.101 100.586 617.97 101.07C617.97 101.07 617.866 100.528 617.6 99.6619C616.526 96.1662 612.816 87.3898 602.67 87.6302C590.01 87.9302 586.77 100.38 588.42 106.08C588.477 106.275 588.534 106.475 588.592 106.68C590.247 112.487 593.138 122.628 617.97 140.97ZM617.234 101.212L617.233 101.207L617.228 101.183C617.223 101.161 617.216 101.126 617.206 101.079C617.185 100.986 617.152 100.847 617.106 100.668C617.014 100.31 616.867 99.794 616.651 99.1739C616.22 97.9311 615.52 96.2835 614.442 94.6509C612.296 91.3989 608.686 88.2379 602.688 88.38C596.648 88.5231 592.901 91.5433 590.832 95.1996C588.735 98.9049 588.378 103.235 589.141 105.872C589.197 106.067 589.254 106.267 589.313 106.472C590.105 109.251 591.163 112.962 594.786 118.11C598.647 123.594 605.44 130.733 617.971 140.038C618.181 139.881 618.463 139.671 618.806 139.41C619.621 138.791 620.787 137.889 622.187 136.761C624.988 134.505 628.72 131.349 632.449 127.745C636.181 124.137 639.893 120.099 642.666 116.08C645.453 112.039 647.22 108.12 647.22 104.73C647.22 97.7043 644.565 93.6739 641.628 91.3704C638.654 89.0383 635.319 88.4222 633.942 88.38C632.487 88.3511 629.533 88.4281 626.525 90.0595C623.543 91.6773 620.416 94.8742 618.695 101.265C618.604 101.603 618.292 101.833 617.943 101.82C617.594 101.807 617.3 101.555 617.234 101.212C617.234 101.212 617.234 101.212 617.234 101.212L617.234 101.212L617.234 101.212Z" fill="#151526"/>
<path fill-rule="evenodd" clip-rule="evenodd" d="M596.871 107.648C597.066 107.577 597.281 107.677 597.352 107.871C597.402 108.007 597.453 108.147 597.504 108.289C598.006 109.68 598.624 111.394 600.108 113.577C601.746 115.988 604.449 118.982 609.231 122.704C609.394 122.832 609.424 123.067 609.296 123.231C609.169 123.394 608.933 123.423 608.77 123.296C603.944 119.539 601.18 116.49 599.488 113.999C597.949 111.736 597.303 109.944 596.799 108.546C596.748 108.403 596.698 108.264 596.648 108.129C596.577 107.935 596.677 107.719 596.871 107.648Z" fill="#151526"/>
</g>
<g opacity="0.3" clip-path="url(#clip1)">
<path d="M812.37 129.96C812.43 126.96 812.07 117.51 798.93 113.97C798.93 113.97 812.67 111.33 812.37 98.6702C812.07 86.0102 799.62 82.7702 793.92 84.4202C788.22 86.0702 778.02 88.2602 759.03 113.97C759.03 113.97 780.78 143.97 795.27 143.97C809.76 143.97 812.28 132.96 812.37 129.96Z" fill="#00FFD4"/>
<path fill-rule="evenodd" clip-rule="evenodd" d="M759.03 113.97C759.03 113.97 780.78 143.97 795.27 143.97C809.76 143.97 812.28 132.96 812.37 129.96C812.428 127.071 812.096 118.198 800.332 114.385C799.882 114.239 799.415 114.101 798.93 113.97C798.93 113.97 799.472 113.866 800.339 113.6C803.834 112.526 812.611 108.816 812.37 98.6702C812.07 86.0102 799.62 82.7702 793.92 84.4202C793.726 84.4766 793.526 84.5335 793.321 84.592C787.514 86.2471 777.372 89.1378 759.03 113.97ZM798.789 113.234L798.794 113.233L798.818 113.228C798.84 113.223 798.875 113.216 798.921 113.205C799.014 113.185 799.154 113.152 799.333 113.106C799.691 113.013 800.207 112.867 800.827 112.651C802.07 112.22 803.717 111.519 805.35 110.442C808.602 108.295 811.763 104.686 811.621 98.688C811.477 92.6478 808.457 88.9013 804.801 86.8317C801.096 84.7344 796.766 84.3774 794.129 85.1407C793.934 85.1972 793.734 85.2542 793.529 85.3126C790.75 86.1046 787.038 87.1625 781.891 90.786C776.407 94.6465 769.268 101.44 759.963 113.971C760.119 114.181 760.33 114.462 760.591 114.806C761.21 115.621 762.112 116.787 763.239 118.187C765.496 120.988 768.652 124.72 772.256 128.449C775.863 132.181 779.901 135.892 783.921 138.665C787.962 141.453 791.881 143.22 795.27 143.22C802.296 143.22 806.327 140.565 808.63 137.627C810.962 134.653 811.578 131.318 811.621 129.941C811.649 128.487 811.572 125.533 809.941 122.525C808.323 119.543 805.126 116.416 798.735 114.694C798.398 114.604 798.168 114.292 798.181 113.943C798.194 113.594 798.446 113.3 798.788 113.234C798.788 113.234 798.788 113.234 798.789 113.234L798.789 113.234L798.789 113.234Z" fill="#151526"/>
<path fill-rule="evenodd" clip-rule="evenodd" d="M792.353 92.8712C792.424 93.0657 792.324 93.2811 792.129 93.3523C791.993 93.4022 791.854 93.4524 791.711 93.5039C790.321 94.0056 788.606 94.6242 786.423 96.1077C784.013 97.7459 781.019 100.449 777.296 105.231C777.169 105.394 776.934 105.423 776.77 105.296C776.607 105.169 776.577 104.933 776.705 104.77C780.462 99.9434 783.511 97.1803 786.002 95.4874C788.265 93.9493 790.057 93.3031 791.455 92.799C791.598 92.7475 791.737 92.6975 791.871 92.6481C792.066 92.5769 792.281 92.6768 792.353 92.8712Z" fill="#151526"/>
</g>
<g opacity="0.1" clip-path="url(#clip2)">
<path d="M45.9603 87.6302C42.9603 87.5702 33.5103 87.9302 29.9703 101.07C29.9703 101.07 27.3303 87.3302 14.6703 87.6302C2.01026 87.9302 -1.22973 100.38 0.420267 106.08C2.07027 111.78 4.26027 121.98 29.9703 140.97C29.9703 140.97 59.9703 119.22 59.9703 104.73C59.9703 90.2402 48.9603 87.7202 45.9603 87.6302Z" fill="#00FFD4"/>
<path fill-rule="evenodd" clip-rule="evenodd" d="M29.9703 140.97C29.9703 140.97 59.9703 119.22 59.9703 104.73C59.9703 90.2402 48.9603 87.7202 45.9603 87.6302C43.0709 87.5724 34.1983 87.9042 30.3853 99.6685C30.2393 100.119 30.1008 100.586 29.9703 101.07C29.9703 101.07 29.8661 100.528 29.6 99.6619C28.5263 96.1662 24.8159 87.3898 14.6703 87.6302C2.01027 87.9302 -1.22973 100.38 0.420267 106.08C0.476585 106.275 0.533532 106.475 0.592022 106.68C2.24717 112.487 5.1378 122.628 29.9703 140.97ZM29.2337 101.212L29.2328 101.207L29.2279 101.183C29.2233 101.161 29.2159 101.126 29.2055 101.079C29.1848 100.986 29.1522 100.847 29.1059 100.668C29.0134 100.31 28.8666 99.794 28.6514 99.1739C28.2202 97.9311 27.5194 96.2835 26.4418 94.6509C24.2954 91.3989 20.6858 88.2379 14.688 88.38C8.64783 88.5231 4.9013 91.5433 2.83171 95.1996C0.734474 98.9049 0.377456 103.235 1.14069 105.872C1.19719 106.067 1.25421 106.267 1.31268 106.472C2.10468 109.251 3.16255 112.962 6.78606 118.11C10.6466 123.594 17.4399 130.733 29.9713 140.038C30.1814 139.881 30.4624 139.671 30.8057 139.41C31.6211 138.791 32.7873 137.889 34.1873 136.761C36.9884 134.505 40.7201 131.349 44.449 127.745C48.1813 124.137 51.8925 120.099 54.6654 116.08C57.4531 112.039 59.2203 108.12 59.2203 104.73C59.2203 97.7043 56.5649 93.6739 53.6275 91.3704C50.6535 89.0383 47.3185 88.4222 45.9414 88.38C44.4869 88.3511 41.5327 88.4281 38.5254 90.0595C35.543 91.6773 32.4162 94.8742 30.6944 101.265C30.6036 101.603 30.2919 101.833 29.9428 101.82C29.5938 101.807 29.2999 101.555 29.2338 101.212C29.2338 101.212 29.2338 101.212 29.2338 101.212L29.2338 101.212L29.2337 101.212Z" fill="#151526"/>
<path fill-rule="evenodd" clip-rule="evenodd" d="M8.87129 107.648C9.06576 107.577 9.28116 107.677 9.35239 107.871C9.40223 108.007 9.45249 108.147 9.50398 108.289C10.0057 109.68 10.6242 111.394 12.1078 113.577C13.746 115.988 16.449 118.982 21.2306 122.704C21.3941 122.832 21.4234 123.067 21.2962 123.231C21.1689 123.394 20.9333 123.423 20.7699 123.296C15.9435 119.539 13.1803 116.49 11.4874 113.999C9.94938 111.736 9.30313 109.944 8.79905 108.546C8.74753 108.403 8.6975 108.264 8.64815 108.129C8.57692 107.935 8.67682 107.719 8.87129 107.648Z" fill="#151526"/>
</g>
<g opacity="0.3" clip-path="url(#clip3)">
<path d="M171.63 14.04C171.57 17.04 171.93 26.49 185.07 30.03C185.07 30.03 171.33 32.67 171.63 45.33C171.93 57.99 184.38 61.23 190.08 59.58C195.78 57.93 205.98 55.74 224.97 30.03C224.97 30.03 203.22 0.030005 188.73 0.0300057C174.24 0.0300063 171.72 11.04 171.63 14.04Z" fill="#FF8CEC"/>
<path fill-rule="evenodd" clip-rule="evenodd" d="M224.97 30.03C224.97 30.03 203.22 0.030005 188.73 0.0300057C174.24 0.0300063 171.72 11.04 171.63 14.04C171.572 16.9294 171.904 25.802 183.669 29.615C184.119 29.761 184.586 29.8995 185.07 30.03C185.07 30.03 184.528 30.1341 183.662 30.4002C180.166 31.4739 171.39 35.1844 171.63 45.33C171.93 57.99 184.38 61.23 190.08 59.58C190.275 59.5237 190.475 59.4667 190.68 59.4083C196.487 57.7531 206.628 54.8625 224.97 30.03ZM185.212 30.7665L185.207 30.7675L185.183 30.7724C185.161 30.777 185.126 30.7844 185.079 30.7948C184.986 30.8155 184.847 30.8481 184.668 30.8943C184.31 30.9869 183.794 31.1337 183.174 31.3489C181.931 31.7801 180.284 32.4809 178.651 33.5585C175.399 35.7049 172.238 39.3144 172.38 45.3122C172.523 51.3524 175.543 55.099 179.2 57.1686C182.905 59.2658 187.235 59.6228 189.872 58.8596C190.067 58.8031 190.267 58.7461 190.472 58.6876C193.251 57.8956 196.962 56.8377 202.11 53.2142C207.594 49.3537 214.733 42.5603 224.038 30.029C223.881 29.8189 223.671 29.5379 223.41 29.1946C222.791 28.3792 221.889 27.213 220.761 25.813C218.505 23.0119 215.349 19.2802 211.745 15.5512C208.137 11.819 204.099 8.10781 200.08 5.33485C196.039 2.54713 192.12 0.780006 188.73 0.780006C181.704 0.780006 177.674 3.43532 175.37 6.37281C173.038 9.34681 172.422 12.6818 172.38 14.0588C172.351 15.5134 172.428 18.4676 174.059 21.4749C175.677 24.4573 178.874 27.584 185.265 29.3058C185.603 29.3967 185.833 29.7084 185.82 30.0575C185.807 30.4064 185.555 30.7003 185.212 30.7664C185.212 30.7664 185.212 30.7665 185.212 30.7665L185.212 30.7665L185.212 30.7665Z" fill="#151526"/>
<path fill-rule="evenodd" clip-rule="evenodd" d="M191.648 51.129C191.577 50.9345 191.677 50.7191 191.871 50.6479C192.007 50.5981 192.147 50.5478 192.289 50.4963C193.68 49.9946 195.394 49.3761 197.577 47.8925C199.988 46.2543 202.982 43.5513 206.704 38.7697C206.832 38.6062 207.067 38.5769 207.231 38.7041C207.394 38.8313 207.423 39.067 207.296 39.2304C203.539 44.0568 200.49 46.82 197.999 48.5128C195.736 50.0509 193.944 50.6972 192.546 51.2012C192.403 51.2528 192.264 51.3028 192.129 51.3521C191.935 51.4234 191.719 51.3235 191.648 51.129Z" fill="#151526"/>
</g>
<g opacity="0.3" clip-path="url(#clip4)">
<path d="M801.96 3.63015C798.96 3.57015 789.51 3.93015 785.97 17.0701C785.97 17.0701 783.33 3.33015 770.67 3.63015C758.01 3.93015 754.77 16.3801 756.42 22.0801C758.07 27.7801 760.26 37.9801 785.97 56.9701C785.97 56.9701 815.97 35.2201 815.97 20.7301C815.97 6.24015 804.96 3.72015 801.96 3.63015Z" fill="#FF8CEC"/>
<path fill-rule="evenodd" clip-rule="evenodd" d="M785.97 56.9701C785.97 56.9701 815.97 35.2201 815.97 20.7301C815.97 6.24015 804.96 3.72015 801.96 3.63015C799.071 3.57236 790.198 3.90418 786.385 15.6684C786.239 16.1187 786.101 16.5857 785.97 17.0701C785.97 17.0701 785.866 16.5282 785.6 15.6618C784.526 12.1661 780.816 3.38973 770.67 3.63015C758.01 3.93015 754.77 16.3801 756.42 22.0801C756.477 22.2747 756.534 22.4745 756.592 22.6797C758.247 28.4867 761.138 38.6283 785.97 56.9701ZM785.234 17.2117L785.233 17.2069L785.228 17.1828C785.223 17.1605 785.216 17.1256 785.206 17.0792C785.185 16.9862 785.152 16.8469 785.106 16.668C785.014 16.3098 784.867 15.7939 784.651 15.1738C784.22 13.931 783.52 12.2834 782.442 10.6508C780.296 7.39889 776.686 4.23781 770.688 4.37994C764.648 4.52307 760.901 7.54319 758.832 11.1996C756.735 14.9048 756.378 19.235 757.141 21.8716C757.197 22.0668 757.254 22.2668 757.313 22.472C758.105 25.2506 759.163 28.9621 762.786 34.1097C766.647 39.5939 773.44 46.7327 785.971 56.0376C786.181 55.8814 786.463 55.6707 786.806 55.41C787.621 54.7907 788.787 53.8889 790.187 52.7612C792.988 50.505 796.72 47.3486 800.449 43.7446C804.181 40.1374 807.893 36.0991 810.666 32.0797C813.453 28.0389 815.22 24.1196 815.22 20.7301C815.22 13.7042 812.565 9.67383 809.628 7.37033C806.654 5.0382 803.319 4.42214 801.942 4.37992C800.487 4.35107 797.533 4.42807 794.525 6.0594C791.543 7.67722 788.416 10.8742 786.695 17.2652C786.604 17.6025 786.292 17.8324 785.943 17.8196C785.594 17.8068 785.3 17.555 785.234 17.2122C785.234 17.2121 785.234 17.2121 785.234 17.212L785.234 17.2117L785.234 17.2117Z" fill="#151526"/>
<path fill-rule="evenodd" clip-rule="evenodd" d="M764.871 23.648C765.066 23.5767 765.281 23.6767 765.352 23.8711C765.402 24.0072 765.453 24.1465 765.504 24.2892C766.006 25.6798 766.624 27.3944 768.108 29.5772C769.746 31.9877 772.449 34.9816 777.231 38.7042C777.394 38.8314 777.423 39.067 777.296 39.2305C777.169 39.3939 776.933 39.4232 776.77 39.296C771.944 35.5385 769.18 32.4897 767.488 29.9988C765.949 27.7357 765.303 25.9434 764.799 24.5455C764.748 24.4026 764.698 24.2638 764.648 24.1291C764.577 23.9346 764.677 23.7192 764.871 23.648Z" fill="#151526"/>
</g>
<defs>
<clipPath id="clip0">
<rect width="60" height="60" fill="white" transform="translate(588 84.0002)"/>
</clipPath>
<clipPath id="clip1">
<rect width="60" height="60" fill="white" transform="translate(816 84.0002) rotate(90)"/>
</clipPath>
<clipPath id="clip2">
<rect width="60" height="60" fill="white" transform="translate(0.000274658 84.0002)"/>
</clipPath>
<clipPath id="clip3">
<rect width="60" height="60" fill="white" transform="translate(168 60) rotate(-90)"/>
</clipPath>
<clipPath id="clip4">
<rect width="60" height="60" fill="white" transform="translate(756 0.000183105)"/>
</clipPath>
</defs>
</svg>
