<svg width="100" height="180" viewBox="0 0 100 180" fill="none" xmlns="http://www.w3.org/2000/svg">
<path d="M2 39.5858C0.740067 40.8457 1.63241 43 3.41421 43L28.3333 43V121C28.3333 122.105 29.2288 123 30.3333 123H51.6667C52.7712 123 53.6667 122.105 53.6667 121V43H78.5858C80.3676 43 81.2599 40.8457 80 39.5858L42.4142 2C41.6332 1.21895 40.3668 1.21895 39.5858 2L2 39.5858Z" fill="white" stroke="#151526" stroke-width="2"/>
<path d="M97 140.414C98.2599 139.154 97.3676 137 95.5858 137L70.6667 137L70.6667 59C70.6667 57.8954 69.7712 57 68.6667 57L47.3333 57C46.2288 57 45.3333 57.8954 45.3333 59L45.3333 137L20.4142 137C18.6324 137 17.7401 139.154 19 140.414L56.5858 178C57.3668 178.781 58.6332 178.781 59.4142 178L97 140.414Z" fill="#FF8CEC" stroke="#151526" stroke-width="2"/>
</svg>
