<svg width="146" height="48" viewBox="0 0 146 48" fill="none" xmlns="http://www.w3.org/2000/svg">
<path fill-rule="evenodd" clip-rule="evenodd" d="M58.1204 33.2363C57.2798 33.6095 56.3253 33.796 55.2569 33.796C54.3142 33.796 53.3793 33.6328 52.4523 33.3062C51.5253 32.9797 50.8576 32.6143 50.4491 32.21L51.6982 29.9943C52.0281 30.2897 52.5427 30.5968 53.2419 30.9156C53.941 31.2343 54.6127 31.3937 55.2569 31.3937C56.0896 31.3937 56.7692 31.1993 57.2955 30.8106C57.8219 30.4219 58.085 29.8854 58.085 29.2013C58.085 28.6726 57.9436 28.2139 57.6608 27.8252C57.378 27.4365 57.0324 27.1138 56.6238 26.8573C56.2153 26.6007 55.634 26.2858 54.8798 25.9127C53.9842 25.4773 53.3715 25.1508 53.0415 24.9331C51.5175 23.9224 50.7554 22.523 50.7554 20.7348C50.7554 19.2577 51.2504 18.1265 52.2402 17.3412C53.2301 16.556 54.4792 16.1634 55.9875 16.1634C57.6058 16.1634 58.9806 16.6221 60.1119 17.5395L58.8628 19.6619C58.5643 19.351 58.144 19.0827 57.6019 18.8573C57.0598 18.6318 56.4824 18.5191 55.8697 18.5191C55.0841 18.5191 54.4674 18.694 54.0196 19.0439C53.5718 19.3937 53.3479 19.9107 53.3479 20.5949C53.3479 21.0769 53.4893 21.5084 53.7721 21.8893C54.0549 22.2703 54.4124 22.6007 54.8445 22.8806C55.2765 23.1605 55.8618 23.5026 56.6003 23.9068C57.3073 24.2956 57.8494 24.6027 58.2265 24.8281C58.6035 25.0536 58.9571 25.3218 59.287 25.6328C59.7427 26.0371 60.1119 26.5191 60.3947 27.0788C60.6775 27.6386 60.8189 28.2528 60.8189 28.9214C60.8189 29.9632 60.5793 30.8495 60.1001 31.5803C59.6209 32.3111 58.961 32.8631 58.1204 33.2363ZM65.8503 33.3177C65.5282 33.6365 65.1237 33.7958 64.6366 33.7958C64.1652 33.7958 63.7646 33.6365 63.4346 33.3177C63.1047 32.999 62.9397 32.6063 62.9397 32.1399C62.9397 31.6579 63.1008 31.2575 63.4229 30.9387C63.7449 30.6199 64.1495 30.4606 64.6366 30.4606C65.1237 30.4606 65.5282 30.6199 65.8503 30.9387C66.1724 31.2575 66.3335 31.6579 66.3335 32.1399C66.3335 32.6063 66.1724 32.999 65.8503 33.3177ZM71.9194 33.5628V25.8193H76.2088V23.5336H71.9194V18.6823H77.4343V16.4199H69.3034V33.5628H71.9194ZM81.8062 20.3613C81.4841 20.6879 81.0795 20.8511 80.5924 20.8511C80.1054 20.8511 79.6969 20.6879 79.3669 20.3613C79.037 20.0348 78.872 19.6305 78.872 19.1485C78.872 18.7131 79.037 18.34 79.3669 18.029C79.6969 17.718 80.1054 17.5625 80.5924 17.5625C81.0638 17.5625 81.4645 17.718 81.7944 18.029C82.1244 18.34 82.2893 18.7131 82.2893 19.1485C82.2893 19.6305 82.1283 20.0348 81.8062 20.3613ZM81.9353 33.5628V22.8572H79.2957V33.5628H81.9353ZM87.4268 28.245V33.5628H84.8815V22.8573H87.3797L87.4033 24.8165C87.7018 24.1634 88.1732 23.627 88.8173 23.2071C89.4615 22.7873 90.2157 22.5774 91.0799 22.5774C92.1954 22.5774 93.0517 22.8067 93.6488 23.2654C94.2458 23.7241 94.6465 24.3655 94.8507 25.1896C95.055 26.0137 95.1571 27.0866 95.1571 28.4083V33.5628H92.6118V28.4783C92.6118 27.1255 92.4782 26.1498 92.2111 25.5512C91.944 24.9525 91.3941 24.6532 90.5614 24.6532C90.09 24.6532 89.6108 24.797 89.1237 25.0847C88.6367 25.3723 88.2321 25.7883 87.91 26.3325C87.5879 26.8767 87.4268 27.5142 87.4268 28.245ZM102.628 33.7961C103.508 33.7961 104.301 33.5823 105.008 33.1547C105.715 32.7271 106.202 32.2334 106.47 31.6736L106.517 33.5628H108.921V22.8573H106.493L106.446 24.6532C106.32 24.3422 106.069 24.0273 105.692 23.7086C105.315 23.3898 104.851 23.1216 104.301 22.9039C103.751 22.6862 103.162 22.5774 102.534 22.5774C101.45 22.5774 100.507 22.8106 99.7056 23.2771C98.9043 23.7436 98.2876 24.3966 97.8555 25.2363C97.4234 26.0759 97.2074 27.0555 97.2074 28.1751C97.2074 29.3101 97.4548 30.3014 97.9498 31.1488C98.4447 31.9962 99.1046 32.6493 99.9295 33.108C100.754 33.5667 101.654 33.7961 102.628 33.7961ZM100.708 30.7289C101.25 31.3742 102.031 31.6968 103.053 31.6968C103.948 31.6968 104.702 31.3898 105.315 30.7756C105.928 30.1614 106.234 29.3567 106.234 28.3616V28.1983C106.234 27.5297 106.093 26.9311 105.81 26.4024C105.527 25.8737 105.142 25.4617 104.655 25.1662C104.168 24.8708 103.634 24.7231 103.053 24.7231C102.047 24.7231 101.269 25.0457 100.719 25.691C100.169 26.3363 99.8944 27.1721 99.8944 28.1983C99.8944 29.2401 100.165 30.0836 100.708 30.7289ZM114.294 33.5628V28.245C114.294 27.5142 114.455 26.8767 114.777 26.3325C115.099 25.7883 115.504 25.3723 115.991 25.0847C116.478 24.797 116.957 24.6532 117.429 24.6532C118.261 24.6532 118.811 24.9525 119.078 25.5512C119.346 26.1498 119.479 27.1255 119.479 28.4783V33.5628H122.024V28.4083C122.024 27.0866 121.922 26.0137 121.718 25.1896C121.514 24.3655 121.113 23.7241 120.516 23.2654C119.919 22.8067 119.063 22.5774 117.947 22.5774C117.083 22.5774 116.329 22.7873 115.685 23.2071C115.041 23.627 114.569 24.1634 114.271 24.8165L114.247 22.8573H111.749V33.5628H114.294ZM131.817 33.4812C131.196 33.6911 130.509 33.7961 129.755 33.7961C128.686 33.7961 127.724 33.5667 126.868 33.108C126.011 32.6493 125.332 31.9885 124.829 31.1255C124.326 30.2625 124.075 29.2479 124.075 28.0818C124.075 26.9778 124.307 26.0099 124.77 25.178C125.234 24.3461 125.886 23.7047 126.726 23.2538C127.567 22.8029 128.537 22.5774 129.637 22.5774C130.47 22.5774 131.188 22.6823 131.793 22.8923C132.398 23.1022 132.873 23.3626 133.219 23.6736L132.088 25.7028C131.428 25.0497 130.682 24.7232 129.849 24.7232C128.843 24.7232 128.077 25.0264 127.551 25.6328C127.025 26.2392 126.762 27.0478 126.762 28.0584C126.762 29.2091 127.033 30.1031 127.575 30.7407C128.117 31.3782 128.875 31.6969 129.849 31.6969C130.336 31.6969 130.811 31.627 131.275 31.487C131.738 31.3471 132.096 31.1838 132.347 30.9972L133.266 32.7698C132.921 33.0341 132.437 33.2713 131.817 33.4812ZM140.219 33.7961C141.178 33.7961 141.995 33.7028 142.67 33.5162C143.346 33.3296 143.88 33.1119 144.273 32.8631L143.495 31.0672C143.087 31.2849 142.639 31.4559 142.152 31.5803C141.665 31.7047 141.044 31.7669 140.29 31.7669C139.378 31.7669 138.668 31.557 138.157 31.1372C137.646 30.7173 137.305 30.0332 137.132 29.0847H144.909C144.956 28.6338 144.98 28.1984 144.98 27.7786C144.98 26.1304 144.575 24.8514 143.766 23.9418C142.957 23.0322 141.72 22.5774 140.054 22.5774C138.986 22.5774 138.027 22.8067 137.179 23.2654C136.33 23.7241 135.667 24.3811 135.187 25.2363C134.708 26.0915 134.469 27.0866 134.469 28.2217C134.469 29.2324 134.673 30.1615 135.081 31.0089C135.49 31.8563 136.126 32.5327 136.99 33.038C137.854 33.5434 138.931 33.7961 140.219 33.7961ZM137.132 27.3353H142.505C142.521 26.3712 142.309 25.691 141.869 25.2945C141.429 24.898 140.8 24.6997 139.983 24.6997C138.333 24.6997 137.383 25.5782 137.132 27.3353Z" fill="black" fill-opacity="0.85"/>
<path fill-rule="evenodd" clip-rule="evenodd" d="M20.8163 0L41.6327 12V36L20.8163 48L0 36V12L20.8163 0Z" fill="white"/>
<path fill-rule="evenodd" clip-rule="evenodd" d="M20.8163 23.9999L27.5122 27.8173L20.8159 31.6356L16.9164 29.4127L14.1196 31.0073L20.8163 34.8254L30.31 29.4124L37.0068 33.2307L20.8163 42.4614L4.62585 33.2307L20.8163 23.9999ZM20.8163 5.53836L37.0068 14.7691L20.8163 23.9999L14.119 20.1816L20.8163 16.3637L24.7267 18.5933L27.5235 16.9987L20.8163 13.1744L11.3222 18.587L4.62585 14.7691L20.8163 5.53836Z" fill="#EB3C00"/>
</svg>
