<svg width="112" height="48" viewBox="0 0 112 48" fill="none" xmlns="http://www.w3.org/2000/svg">
<g clip-path="url(#clip0)">
<path fill-rule="evenodd" clip-rule="evenodd" d="M1.29887 32.9396C0.492922 32.4522 0 31.5842 0 30.6521V25.4475C0 25.2483 0.0539696 25.0562 0.154713 24.8855C0.467736 24.3518 1.16214 24.1704 1.70184 24.4835L13.5823 31.3316C14.2767 31.7336 14.705 32.4664 14.705 33.2633V38.6564C14.705 38.902 14.6366 39.1474 14.507 39.3573C14.1149 39.9905 13.2801 40.1898 12.6397 39.8019L1.29887 32.9396ZM19.0081 23.0569C19.7025 23.4589 20.1307 24.1917 20.1307 24.9886V35.9314C20.1307 36.2551 19.9544 36.5539 19.6701 36.7105L17.0688 38.1584C17.0364 38.1762 17.0004 38.1904 16.9644 38.2011V32.1249C16.9644 31.3387 16.5471 30.6094 15.8635 30.2039L5.42934 24.0317V17.1728C5.42934 16.9736 5.48331 16.7815 5.58405 16.6107C5.89708 16.0771 6.59149 15.8957 7.13119 16.2087L19.0081 23.0569ZM24.2071 14.9743C24.9052 15.3727 25.3333 16.1127 25.3333 16.9096V32.8933C25.3333 33.2206 25.1498 33.523 24.8584 33.6796L22.3938 34.9958V23.868C22.3938 23.0818 21.9764 22.3561 21.2964 21.9505L10.6321 15.6253V9.11864C10.6321 8.91942 10.6859 8.72732 10.7831 8.55656C11.0962 8.02294 11.7906 7.8415 12.3303 8.15101L24.2071 14.9743Z" fill="#2D60E0"/>
</g>
<path d="M56.1067 33.3334H51.2L45.76 25.2267H44.7734V33.3334H40.72V14.8267H44.7734V21.9467H45.76L51.0934 14.8267H55.84L49.0934 23.4134L56.1067 33.3334Z" fill="black"/>
<path d="M61.5703 33.4934C60.7703 33.4934 60.1036 33.4223 59.5703 33.2801C59.0369 33.1201 58.6014 32.889 58.2636 32.5867C57.9436 32.2845 57.7125 31.9023 57.5703 31.4401C57.4458 30.9601 57.3836 30.4001 57.3836 29.7601V13.0667H61.2503V28.8267C61.2503 29.4667 61.3391 29.8934 61.5169 30.1067C61.6947 30.3201 62.0058 30.4267 62.4503 30.4267C62.5569 30.4267 62.6725 30.4267 62.7969 30.4267C62.9214 30.409 63.0636 30.3823 63.2236 30.3467V33.3334C62.708 33.4401 62.1569 33.4934 61.5703 33.4934Z" fill="black"/>
<path d="M78.0425 24.9867C78.0425 25.3956 78.0248 25.7867 77.9892 26.1601C77.9714 26.5156 77.9448 26.7912 77.9092 26.9867L68.6292 27.5734C68.7003 28.6045 69.047 29.3601 69.6692 29.8401C70.2914 30.3201 71.2425 30.5601 72.5225 30.5601C72.967 30.5601 73.4203 30.5334 73.8825 30.4801C74.3448 30.409 74.7892 30.329 75.2159 30.2401C75.6425 30.1512 76.0337 30.0445 76.3892 29.9201C76.7625 29.7956 77.0648 29.6712 77.2959 29.5467V32.5867C77.0825 32.7112 76.7892 32.8356 76.4159 32.9601C76.0603 33.0845 75.6425 33.1912 75.1625 33.2801C74.6825 33.369 74.1492 33.4401 73.5625 33.4934C72.9937 33.5645 72.3981 33.6001 71.7759 33.6001C70.6737 33.6001 69.687 33.4845 68.8159 33.2534C67.9448 33.0223 67.207 32.6223 66.6025 32.0534C66.0159 31.4845 65.5625 30.7201 65.2425 29.7601C64.9225 28.8001 64.7625 27.5912 64.7625 26.1334C64.7625 24.6756 64.9225 23.4667 65.2425 22.5067C65.5625 21.5467 66.0248 20.7823 66.6292 20.2134C67.2337 19.6445 67.9803 19.2445 68.8692 19.0134C69.7581 18.7823 70.7625 18.6667 71.8825 18.6667C73.127 18.6667 74.1492 18.8267 74.9492 19.1467C75.7492 19.449 76.3803 19.8845 76.8425 20.4534C77.3048 21.0045 77.6159 21.6712 77.7759 22.4534C77.9537 23.2179 78.0425 24.0623 78.0425 24.9867ZM74.5225 24.4267C74.5225 24.0356 74.487 23.6712 74.4159 23.3334C74.3625 22.9779 74.2381 22.6756 74.0425 22.4267C73.8648 22.1601 73.5981 21.9556 73.2425 21.8134C72.9048 21.6534 72.4514 21.5734 71.8825 21.5734C71.2781 21.5734 70.7714 21.6445 70.3625 21.7867C69.9714 21.9112 69.6514 22.1067 69.4025 22.3734C69.1537 22.6401 68.967 22.9867 68.8425 23.4134C68.7181 23.8223 68.647 24.3112 68.6292 24.8801L74.5225 24.4267Z" fill="black"/>
<path d="M89.5075 18.6667C90.3964 18.6667 91.1431 18.7734 91.7476 18.9867C92.3698 19.1823 92.8675 19.4845 93.2409 19.8934C93.6142 20.3023 93.8809 20.809 94.0409 21.4134C94.2009 22.0001 94.2809 22.6934 94.2809 23.4934V33.3334H90.4142V24.5067C90.4142 24.0267 90.3787 23.6179 90.3075 23.2801C90.2364 22.9245 90.112 22.6401 89.9342 22.4267C89.7742 22.2134 89.5431 22.0623 89.2409 21.9734C88.9387 21.8667 88.5475 21.8134 88.0675 21.8134C87.2675 21.8134 86.6098 21.9556 86.0942 22.2401C85.5787 22.5245 85.2142 23.0401 85.0009 23.7867V33.3334H81.1342V18.9334H85.0009V20.6667C85.392 19.9912 85.9787 19.4934 86.7609 19.1734C87.5431 18.8356 88.4587 18.6667 89.5075 18.6667Z" fill="black"/>
<path d="M111.287 13.0667V33.3334H107.794L107.501 31.3334C107.216 31.9912 106.736 32.5334 106.061 32.9601C105.403 33.3867 104.416 33.6001 103.101 33.6001C101.927 33.6001 100.967 33.4312 100.221 33.0934C99.474 32.7379 98.8873 32.2401 98.4607 31.6001C98.034 30.9423 97.7407 30.1512 97.5807 29.2267C97.4207 28.3023 97.3407 27.2712 97.3407 26.1334C97.3407 25.1023 97.4207 24.1334 97.5807 23.2267C97.7407 22.3201 98.034 21.529 98.4607 20.8534C98.8873 20.1779 99.474 19.6445 100.221 19.2534C100.967 18.8623 101.927 18.6667 103.101 18.6667C104.416 18.6667 105.394 18.8623 106.034 19.2534C106.692 19.6267 107.163 20.1334 107.447 20.7734V13.0667H111.287ZM104.327 30.6667C104.985 30.6667 105.527 30.569 105.954 30.3734C106.381 30.1779 106.718 29.8845 106.967 29.4934C107.216 29.1023 107.385 28.6312 107.474 28.0801C107.581 27.5112 107.634 26.8623 107.634 26.1334C107.634 25.4401 107.581 24.8179 107.474 24.2667C107.385 23.6979 107.216 23.2179 106.967 22.8267C106.718 22.4179 106.381 22.1067 105.954 21.8934C105.527 21.6623 104.985 21.5467 104.327 21.5467C103.652 21.5467 103.11 21.6712 102.701 21.9201C102.31 22.169 102.007 22.5067 101.794 22.9334C101.598 23.3423 101.465 23.8223 101.394 24.3734C101.341 24.9245 101.314 25.5112 101.314 26.1334C101.314 26.7912 101.341 27.4045 101.394 27.9734C101.465 28.5245 101.607 29.0045 101.821 29.4134C102.034 29.8045 102.336 30.1156 102.727 30.3467C103.136 30.5601 103.67 30.6667 104.327 30.6667Z" fill="black"/>
<defs>
<clipPath id="clip0">
<rect width="25.3333" height="32" fill="white" transform="translate(0 8)"/>
</clipPath>
</defs>
</svg>
