<svg width="164" height="48" viewBox="0 0 164 48" fill="none" xmlns="http://www.w3.org/2000/svg">
<path d="M42.0797 31.0646C40.6856 31.0646 39.3089 30.8818 37.9496 30.5162C36.5904 30.1505 35.4838 29.6543 34.6299 29.0276L36.1721 25.5541C37.0783 26.1287 38.0368 26.5727 39.0475 26.8861C40.0757 27.182 41.1039 27.33 42.132 27.33C43.1776 27.33 43.9792 27.1907 44.5369 26.9122C45.0945 26.6162 45.3734 26.207 45.3734 25.6847C45.3734 25.2146 45.1207 24.8316 44.6153 24.5356C44.1099 24.2222 43.1602 23.9176 41.7661 23.6216C40.006 23.2734 38.638 22.8468 37.6621 22.3419C36.6862 21.8196 35.9979 21.2102 35.5971 20.5138C35.2137 19.8174 35.022 18.9729 35.022 17.9805C35.022 16.8489 35.3444 15.8303 35.9892 14.925C36.6339 14.0022 37.5401 13.2884 38.7077 12.7835C39.8753 12.2612 41.2084 12 42.7071 12C44.0489 12 45.3472 12.1915 46.6019 12.5745C47.8741 12.9402 48.8674 13.4277 49.5819 14.037L48.0658 17.5105C47.2467 16.9359 46.3841 16.5006 45.4779 16.2047C44.5717 15.8913 43.6656 15.7346 42.7594 15.7346C41.8706 15.7346 41.1561 15.9087 40.6159 16.2569C40.0757 16.5877 39.8056 17.0404 39.8056 17.6149C39.8056 17.9283 39.9014 18.1895 40.0931 18.3984C40.2848 18.6073 40.6421 18.8162 41.1648 19.0252C41.6876 19.2167 42.4718 19.4256 43.5174 19.652C45.2078 20.0176 46.5322 20.4615 47.4907 20.9839C48.4666 21.4888 49.1549 22.0894 49.5557 22.7859C49.9566 23.4649 50.157 24.2832 50.157 25.2408C50.157 27.0515 49.4512 28.4791 48.0396 29.5238C46.6281 30.551 44.6414 31.0646 42.0797 31.0646Z" fill="black"/>
<path d="M65.4717 17.5627V30.8296H60.8449V29.0537C59.991 30.3769 58.7276 31.0385 57.0546 31.0385C55.3642 31.0385 54.1008 30.5684 53.2643 29.6282C52.4453 28.6881 52.0358 27.2517 52.0358 25.3191V17.5627H56.7671V25.4497C56.7671 26.7555 57.3334 27.4084 58.4662 27.4084C59.1284 27.4084 59.6599 27.1733 60.0607 26.7032C60.4789 26.2332 60.6881 25.6064 60.6881 24.8229V17.5627H65.4717Z" fill="black"/>
<path d="M76.5325 17.1971C77.6652 17.1971 78.676 17.493 79.5647 18.085C80.4535 18.677 81.1505 19.504 81.6559 20.566C82.1613 21.6281 82.414 22.8468 82.414 24.2222C82.414 25.5803 82.1613 26.7816 81.6559 27.8262C81.168 28.8535 80.4796 29.6456 79.5909 30.2028C78.7021 30.7599 77.6826 31.0385 76.5325 31.0385C75.6612 31.0385 74.8683 30.8731 74.1538 30.5423C73.4393 30.1941 72.8903 29.7153 72.507 29.1059V36.4706H67.7756V21.3756C67.7756 19.9479 67.7059 18.677 67.5665 17.5627H72.0103L72.2717 19.6258C72.6028 18.8946 73.1517 18.3113 73.9185 17.8761C74.6853 17.4234 75.5566 17.1971 76.5325 17.1971ZM75.0948 27.5128C75.9487 27.5128 76.5935 27.2343 77.0291 26.6771C77.4648 26.12 77.6826 25.3017 77.6826 24.2222C77.6826 23.1254 77.4561 22.281 77.003 21.689C76.5673 21.0796 75.9313 20.7749 75.0948 20.7749C74.2409 20.7749 73.5874 21.0622 73.1343 21.6368C72.6812 22.2113 72.4547 23.0557 72.4547 24.17C72.4547 25.2495 72.6812 26.0765 73.1343 26.651C73.5874 27.2256 74.2409 27.5128 75.0948 27.5128Z" fill="black"/>
<path d="M92.4917 17.2493C93.1365 17.2493 93.6331 17.3451 93.9817 17.5366V21.8457C93.2323 21.4975 92.5091 21.3234 91.812 21.3234C89.8254 21.3234 88.8321 22.2722 88.8321 24.17V30.8296H84.1008V21.3756C84.1008 19.9479 84.0311 18.677 83.8917 17.5627H88.3354L88.623 19.7825C88.9367 18.9642 89.442 18.3375 90.1391 17.9022C90.8362 17.4669 91.6204 17.2493 92.4917 17.2493Z" fill="black"/>
<path d="M106.814 24.6662H98.4757C98.5628 25.6934 98.8591 26.4334 99.3644 26.8861C99.8698 27.3387 100.61 27.5651 101.586 27.5651C102.249 27.5651 102.911 27.4606 103.573 27.2517C104.235 27.0253 104.836 26.7207 105.377 26.3376L106.579 29.4715C105.917 29.959 105.115 30.3421 104.174 30.6206C103.233 30.8992 102.292 31.0385 101.351 31.0385C99.8349 31.0385 98.5192 30.7599 97.4039 30.2028C96.2886 29.6456 95.4347 28.8535 94.8422 27.8262C94.2497 26.7816 93.9535 25.5541 93.9535 24.1439C93.9535 22.8033 94.2323 21.6106 94.79 20.566C95.365 19.504 96.1492 18.677 97.1425 18.085C98.1533 17.493 99.3034 17.1971 100.593 17.1971C101.848 17.1971 102.946 17.4756 103.887 18.0328C104.828 18.5899 105.551 19.3908 106.056 20.4354C106.562 21.4627 106.814 22.664 106.814 24.0394V24.6662ZM100.724 20.4354C99.5561 20.4354 98.8242 21.1144 98.5279 22.4725H102.763C102.588 21.1144 101.909 20.4354 100.724 20.4354Z" fill="black"/>
<path d="M125.393 17.1971C126.926 17.1971 128.059 17.6671 128.791 18.6073C129.54 19.5475 129.915 20.9839 129.915 22.9164V30.8296H125.184V23.047C125.184 22.2635 125.062 21.6977 124.818 21.3495C124.591 21.0013 124.199 20.8272 123.641 20.8272C122.979 20.8272 122.465 21.0709 122.099 21.5584C121.733 22.0459 121.55 22.7336 121.55 23.6216V30.8296H116.819V23.047C116.819 22.2635 116.697 21.6977 116.453 21.3495C116.209 21.0013 115.817 20.8272 115.277 20.8272C114.614 20.8272 114.1 21.0709 113.734 21.5584C113.386 22.0459 113.212 22.7336 113.212 23.6216V30.8296H108.48V21.3756C108.48 19.9479 108.411 18.677 108.271 17.5627H112.715L112.95 19.4169C113.351 18.7031 113.909 18.1546 114.623 17.7716C115.355 17.3886 116.192 17.1971 117.133 17.1971C119.032 17.1971 120.322 17.998 121.001 19.5997C121.472 18.8685 122.09 18.2852 122.857 17.85C123.641 17.4147 124.487 17.1971 125.393 17.1971Z" fill="black"/>
<path d="M144.391 24.6662H136.053C136.14 25.6934 136.436 26.4334 136.941 26.8861C137.447 27.3387 138.187 27.5651 139.163 27.5651C139.826 27.5651 140.488 27.4606 141.15 27.2517C141.812 27.0253 142.413 26.7207 142.954 26.3376L144.156 29.4715C143.494 29.959 142.692 30.3421 141.751 30.6206C140.81 30.8992 139.869 31.0385 138.928 31.0385C137.412 31.0385 136.096 30.7599 134.981 30.2028C133.866 29.6456 133.012 28.8535 132.419 27.8262C131.827 26.7816 131.531 25.5541 131.531 24.1439C131.531 22.8033 131.809 21.6106 132.367 20.566C132.942 19.504 133.726 18.677 134.72 18.085C135.73 17.493 136.881 17.1971 138.17 17.1971C139.425 17.1971 140.523 17.4756 141.464 18.0328C142.405 18.5899 143.128 19.3908 143.633 20.4354C144.139 21.4627 144.391 22.664 144.391 24.0394V24.6662ZM138.301 20.4354C137.133 20.4354 136.401 21.1144 136.105 22.4725H140.34C140.165 21.1144 139.486 20.4354 138.301 20.4354Z" fill="black"/>
<path d="M163.571 30.8296H157.846L153.69 25.0318L149.508 30.8296H143.809L150.893 21.4278L143.966 12.235H149.639L153.664 17.8761L157.768 12.235H163.467L156.461 21.4278L163.571 30.8296Z" fill="black"/>
<path d="M27.8888 24.5771C27.5626 24.3802 27.1745 24.5096 26.8876 24.6727L15.5645 31.2146C15.2832 31.3777 14.8895 31.4959 14.5632 31.3102C14.237 31.1134 14.1526 30.714 14.1526 30.3877V25.4883C14.1526 24.5883 14.7826 23.4915 15.5645 23.0359L20.3963 20.2458C22.8938 21.6858 25.3913 23.1315 27.8888 24.5771Z" fill="url(#paint0_linear)"/>
<path d="M27.3825 16.0327C27.2981 16.1958 27.1519 16.3364 26.9719 16.4546C26.9156 16.4883 26.7356 16.5952 26.6794 16.6289C26.5837 16.6852 26.4713 16.7471 26.3756 16.8033C25.9762 17.0339 25.5713 17.2589 25.1831 17.5008C24.3787 17.9564 23.5744 18.4233 22.7812 18.8789C21.9769 19.3458 21.1725 19.8014 20.3794 20.2683C19.575 20.7239 18.7706 21.1908 17.9775 21.6577C17.1731 22.1133 16.3687 22.5802 15.5644 23.0358C14.7825 23.4914 14.1525 24.5883 14.1525 25.4883V30.3877C14.1525 30.7139 14.2369 31.1133 14.5631 31.3102C9.84938 28.5821 5.13562 25.8596 0.410625 23.1314C0.084375 22.9458 0 22.5464 0 22.2202V17.3208C0 16.4208 0.63 15.3239 1.41187 14.8683C2.21625 14.4014 3.02062 13.9458 3.825 13.4789C4.61812 13.0233 5.4225 12.5564 6.22687 12.1008C7.03125 11.6339 7.82438 11.1671 8.62875 10.7114C9.43313 10.2558 10.2263 9.78893 11.0306 9.32205C11.43 9.09143 11.8238 8.86643 12.2231 8.6358C12.33 8.5683 12.4313 8.51768 12.5269 8.46143C12.5831 8.42768 12.7631 8.3208 12.8306 8.28705C13.0388 8.18018 13.2863 8.10143 13.5563 8.0508C14.1019 7.95518 14.6981 7.99455 15.1988 8.16893C15.3169 8.20268 15.4294 8.2533 15.5363 8.30955C15.5588 8.33205 15.8063 8.47268 15.8288 8.48393C16.0369 8.60205 16.2281 8.71455 16.425 8.83268C18.0337 9.75518 19.6313 10.6777 21.2231 11.6002C22.8319 12.5227 24.4294 13.4452 26.0212 14.3677C26.2294 14.4858 26.4206 14.6039 26.6175 14.7164C26.6512 14.7389 26.8987 14.8796 26.9212 14.8908C27.0169 14.9583 27.1069 15.0202 27.18 15.0877C27.4781 15.3689 27.5513 15.7177 27.3825 16.0327Z" fill="url(#paint1_linear)"/>
<path d="M28.3051 25.4882V30.3876C28.3051 31.2876 27.6751 32.3845 26.8932 32.8401C26.0888 33.307 25.2844 33.7626 24.4801 34.2295C23.6757 34.6851 22.8826 35.152 22.0782 35.6076C21.2738 36.0745 20.4807 36.5413 19.6763 36.997C18.8719 37.4526 18.0788 37.9195 17.2744 38.3863C16.8751 38.617 16.4701 38.842 16.0819 39.0726C15.9751 39.1401 15.8738 39.1907 15.7782 39.247C15.7219 39.2807 15.5419 39.3876 15.4744 39.4213C15.2663 39.5282 15.0188 39.607 14.7488 39.6576C14.2032 39.7532 13.6069 39.7138 13.1063 39.5395C12.9882 39.5057 12.8757 39.4551 12.7688 39.3988C12.7463 39.3763 12.4988 39.2357 12.4763 39.2245C12.2682 39.1063 12.0769 38.9938 11.8801 38.8757C10.2713 37.9532 8.67382 37.0307 7.0707 36.1082C5.4732 35.1857 3.8757 34.2632 2.27257 33.3407C2.0757 33.2226 1.87882 33.1045 1.67632 32.992C1.65382 32.9695 1.40632 32.8288 1.38382 32.8176C1.2882 32.7501 1.1982 32.6882 1.12507 32.6207C0.832572 32.3395 0.753822 31.9907 0.928197 31.6757C1.01257 31.5126 1.15882 31.372 1.33882 31.2538C1.39507 31.2201 1.57507 31.1132 1.63132 31.0795C1.72695 31.0232 1.8282 30.9613 1.93507 30.9051C2.32882 30.6745 2.7282 30.4495 3.12757 30.2076C3.93195 29.752 4.73632 29.2851 5.52945 28.8295C6.32257 28.3738 7.1157 27.9182 7.90882 27.4626L14.5688 31.3045C14.8951 31.4901 15.2832 31.372 15.5701 31.2088L26.8988 24.6726C27.1801 24.5095 27.5738 24.3801 27.9001 24.577C28.2151 24.7626 28.3051 25.162 28.3051 25.4882Z" fill="url(#paint2_linear)"/>
<defs>
<linearGradient id="paint0_linear" x1="23.3082" y1="22.8548" x2="11.537" y2="29.9386" gradientUnits="userSpaceOnUse">
<stop stop-color="#E73462"/>
<stop offset="0.9663" stop-color="#81277B"/>
</linearGradient>
<linearGradient id="paint1_linear" x1="24.3408" y1="13.3724" x2="3.15" y2="25.9649" gradientUnits="userSpaceOnUse">
<stop offset="0.1165" stop-color="#FFCD05"/>
<stop offset="1" stop-color="#E64925"/>
</linearGradient>
<linearGradient id="paint2_linear" x1="4.6524" y1="37.6486" x2="28.2936" y2="23.6576" gradientUnits="userSpaceOnUse">
<stop stop-color="#FFCD05"/>
<stop offset="0.1639" stop-color="#F9B417"/>
<stop offset="0.5676" stop-color="#EE7F22"/>
<stop offset="0.8564" stop-color="#E85A24"/>
<stop offset="1" stop-color="#E64925"/>
</linearGradient>
</defs>
</svg>
