<svg width="20" height="20" viewBox="0 0 20 20" fill="none" xmlns="http://www.w3.org/2000/svg">
<rect x="3" y="2" width="15" height="15" fill="#F0F2FF"/>
<path d="M18.3925 16.2507H3.03537V2.3221C3.03537 2.22388 2.95501 2.14352 2.85679 2.14352H1.60679C1.50858 2.14352 1.42822 2.22388 1.42822 2.3221V17.6792C1.42822 17.7775 1.50858 17.8578 1.60679 17.8578H18.3925C18.4907 17.8578 18.5711 17.7775 18.5711 17.6792V16.4292C18.5711 16.331 18.4907 16.2507 18.3925 16.2507ZM4.99965 14.465H6.24965C6.34787 14.465 6.42822 14.3846 6.42822 14.2864V11.0721C6.42822 10.9739 6.34787 10.8935 6.24965 10.8935H4.99965C4.90144 10.8935 4.82108 10.9739 4.82108 11.0721V14.2864C4.82108 14.3846 4.90144 14.465 4.99965 14.465ZM8.39251 14.465H9.64251C9.74072 14.465 9.82108 14.3846 9.82108 14.2864V7.14352C9.82108 7.04531 9.74072 6.96495 9.64251 6.96495H8.39251C8.2943 6.96495 8.21394 7.04531 8.21394 7.14352V14.2864C8.21394 14.3846 8.2943 14.465 8.39251 14.465ZM11.7854 14.465H13.0354C13.1336 14.465 13.2139 14.3846 13.2139 14.2864V8.8846C13.2139 8.78638 13.1336 8.70602 13.0354 8.70602H11.7854C11.6872 8.70602 11.6068 8.78638 11.6068 8.8846V14.2864C11.6068 14.3846 11.6872 14.465 11.7854 14.465ZM15.1782 14.465H16.4282C16.5264 14.465 16.6068 14.3846 16.6068 14.2864V5.35781C16.6068 5.2596 16.5264 5.17924 16.4282 5.17924H15.1782C15.08 5.17924 14.9997 5.2596 14.9997 5.35781V14.2864C14.9997 14.3846 15.08 14.465 15.1782 14.465Z"/>
</svg>
