<svg width="20" height="20" viewBox="0 0 20 20" fill="none" xmlns="http://www.w3.org/2000/svg">
<path d="M10.0098 3.71875L8.16602 7.45507L4.04102 8.05468L7.02539 10.9648L6.32031 15.0723L10.0098 13.1328L13.6992 15.0703L12.9941 10.9629L15.9785 8.05468L11.8535 7.45507L10.0098 3.71875Z" fill="#F0F0FF"/>
<path d="M17.7462 6.89063L12.7872 6.16993L10.5704 1.67579C10.5098 1.55274 10.4102 1.45313 10.2872 1.39259C9.97858 1.24024 9.60358 1.36719 9.44929 1.67579L7.23249 6.16993L2.2735 6.89063C2.13679 6.91016 2.01179 6.97462 1.91608 7.07227C1.80038 7.19119 1.73663 7.35118 1.73882 7.51708C1.74102 7.68298 1.80899 7.84123 1.9278 7.95704L5.51569 11.4551L4.66804 16.3945C4.64816 16.5094 4.66087 16.6276 4.70474 16.7357C4.74861 16.8437 4.82187 16.9373 4.91622 17.0058C5.01057 17.0743 5.12223 17.1151 5.23854 17.1234C5.35486 17.1316 5.47117 17.1072 5.57429 17.0527L10.0098 14.7207L14.4454 17.0527C14.5665 17.1172 14.7071 17.1387 14.8419 17.1152C15.1817 17.0566 15.4102 16.7344 15.3516 16.3945L14.504 11.4551L18.0919 7.95704C18.1895 7.86134 18.254 7.73634 18.2735 7.59962C18.3262 7.25782 18.088 6.94141 17.7462 6.89063ZM12.9942 10.9629L13.6993 15.0703L10.0098 13.1328L6.32038 15.0723L7.02546 10.9649L4.04108 8.05469L8.16608 7.45509L10.0098 3.71876L11.8536 7.45509L15.9786 8.05469L12.9942 10.9629Z"/>
</svg>
