<svg width="20" height="20" viewBox="0 0 20 20" fill="none" xmlns="http://www.w3.org/2000/svg">
<path d="M3.59375 16.4062H16.4062V3.59375H3.59375V16.4062ZM5.82031 8.55664C5.82031 7.47656 6.69141 6.60156 7.76758 6.60156H11.7871V5.55859C11.7871 5.44922 11.9141 5.38672 12 5.45508L14.1309 7.12891C14.1992 7.18164 14.1992 7.28516 14.1309 7.33789L12 9.01172C11.9141 9.08008 11.7871 9.01953 11.7871 8.9082V7.86523H7.76953C7.38672 7.86523 7.07617 8.17578 7.07617 8.56055V10.1016C7.07617 10.1758 7.01562 10.2344 6.94336 10.2344H5.95312C5.87891 10.2344 5.82031 10.1758 5.82031 10.0977V8.55664ZM5.87109 12.6641L8.00195 10.9902C8.08789 10.9219 8.21484 10.9824 8.21484 11.0938V12.1367H12.2305C12.6133 12.1367 12.9238 11.8262 12.9238 11.4414V9.90039C12.9238 9.82617 12.9844 9.76758 13.0566 9.76758H14.0469C14.1211 9.76758 14.1797 9.82812 14.1797 9.90039V11.4414C14.1797 12.5215 13.3086 13.3965 12.2324 13.3965H8.21484V14.4395C8.21484 14.5488 8.08789 14.6113 8.00195 14.543L5.87109 12.8691C5.80273 12.8164 5.80273 12.7129 5.87109 12.6641Z" fill="#F0F0FF"/>
<path d="M17.1875 2.1875H2.8125C2.4668 2.1875 2.1875 2.4668 2.1875 2.8125V17.1875C2.1875 17.5332 2.4668 17.8125 2.8125 17.8125H17.1875C17.5332 17.8125 17.8125 17.5332 17.8125 17.1875V2.8125C17.8125 2.4668 17.5332 2.1875 17.1875 2.1875ZM16.4063 16.4063H3.59375V3.59375H16.4063V16.4063Z" fill="#606080"/>
<path d="M5.95334 10.2344H6.94357C7.01584 10.2344 7.07638 10.1758 7.07638 10.1016V8.56061C7.07638 8.17584 7.38693 7.8653 7.76974 7.8653H11.7873V8.90826C11.7873 9.01959 11.9143 9.08014 12.0002 9.01178L14.1311 7.33795C14.1994 7.28522 14.1994 7.1817 14.1311 7.12897L12.0002 5.45514C11.9143 5.38678 11.7873 5.44928 11.7873 5.55866V6.60163H7.76779C6.69162 6.60163 5.82053 7.47662 5.82053 8.5567V10.0977C5.82053 10.1758 5.87912 10.2344 5.95334 10.2344ZM5.87131 12.8692L8.00216 14.543C8.0881 14.6114 8.21505 14.5489 8.21505 14.4395V13.3965H12.2326C13.3088 13.3965 14.1799 12.5215 14.1799 11.4415V9.90045C14.1799 9.82818 14.1213 9.76764 14.0471 9.76764H13.0568C12.9846 9.76764 12.924 9.82623 12.924 9.90045V11.4415C12.924 11.8262 12.6135 12.1368 12.2307 12.1368H8.21505V11.0938C8.21505 10.9825 8.0881 10.9219 8.00216 10.9903L5.87131 12.6641C5.80295 12.7129 5.80295 12.8165 5.87131 12.8692Z" fill="#606080"/>
</svg>
