<svg width="20" height="20" viewBox="0 0 20 20" fill="none" xmlns="http://www.w3.org/2000/svg">
<path d="M14.7381 13.8025H5.20592V17.1667H14.7381V13.8025Z" fill="#E4761B"/>
<path d="M11.6435 10.8135H8.29601V15.6593H11.6435V10.8135Z" fill="#E4751F"/>
<path d="M15.5522 6.39893H4.37738V10.9441H15.5522V6.39893Z" fill="#E4761B"/>
<path d="M15.7133 10.2104H4.2392V14.5019H15.7133V10.2104Z" fill="#E4751F"/>
<path d="M18.7145 0.930359L11.162 6.59639L11.9936 3.45543L18.7145 0.930359Z" fill="#E2761B"/>
<path d="M1.2744 0.930359L8.76227 6.65031L8.32561 3.57694L1.2744 0.930359Z" fill="#E4761B"/>
<path d="M15.9926 14.0779L13.9806 17.1881L18.2842 18.3843L19.5214 14.1432L15.9926 14.0779Z" fill="#E4761B"/>
<path d="M0.46759 14.1432L1.70485 18.3843L6.0084 17.1881L3.99648 14.0779L0.46759 14.1432Z" fill="#E4761B"/>
<path d="M13.9808 17.1881L11.4095 15.9266L11.6139 17.6231L11.5923 18.3408L13.9808 17.1881Z" fill="#D7C1B3"/>
<path d="M6.00864 17.1881L8.39709 18.3408L8.3863 17.6231L8.56925 15.9266L6.00864 17.1881Z" fill="#D7C1B3"/>
<path d="M8.44 13.0558L6.29897 12.4142L7.8052 11.7182L8.44 13.0558Z" fill="#233447"/>
<path d="M11.5385 13.0558L12.1733 11.7182L13.6903 12.4142L11.5385 13.0558Z" fill="#233447"/>
<path d="M6.00848 17.1881L6.37429 14.0779L3.9966 14.1432L6.00848 17.1881Z" fill="#CD6116"/>
<path d="M13.6151 14.0779L13.9809 17.1881L15.9927 14.1432L13.6151 14.0779Z" fill="#CD6116"/>
<path d="M15.4222 10.6416L11.1617 10.8373L11.549 13.0558L12.1838 11.7182L13.7009 12.4142L15.4222 10.6416Z" fill="#CD6116"/>
<path d="M6.29904 12.4142L7.81606 11.7182L8.44007 13.0558L8.83816 10.8373L4.56691 10.6416L6.29904 12.4142Z" fill="#CD6116"/>
<path d="M11.5491 13.0558L11.0435 15.6765L11.4092 15.9267L13.6256 14.1758L13.7008 12.4141L11.5491 13.0558Z" fill="#F6851B"/>
<path d="M6.29897 12.4141L6.35273 14.1758L8.5691 15.9267L8.93483 15.6765L8.44 13.0558L6.29897 12.4141Z" fill="#F6851B"/>
<path d="M11.5924 18.341L11.6139 17.6232L11.4203 17.4492H8.55846L8.3863 17.6232L8.39709 18.341L6.00864 17.1882L6.84779 17.8842L8.53697 19.0695H11.4418L13.1417 17.8842L13.9809 17.1882L11.5924 18.341Z" fill="#C0AD9E"/>
<path d="M11.4095 15.9266L11.0437 15.6765H8.93497L8.56916 15.9266L8.38622 17.6231L8.55838 17.4491H11.4202L11.6139 17.6231L11.4095 15.9266Z" fill="#161616"/>
<path d="M19.0267 6.96592L19.683 3.83398L18.7147 0.93042L11.4095 6.41132L14.2175 8.81458L18.1875 9.98909L19.0697 8.94512L18.6931 8.67325L19.2957 8.10778L18.833 7.73802L19.4355 7.27037L19.0267 6.96592Z" fill="#763D16"/>
<path d="M0.317047 3.83404L0.962576 6.96598L0.542982 7.27043L1.15623 7.73808L0.693605 8.10785L1.2961 8.67331L0.91954 8.94518L1.791 9.98915L5.76098 8.81464L8.56901 6.41138L1.27458 0.930481L0.317047 3.83404Z" fill="#763D16"/>
<path d="M18.1875 9.98909L14.2175 8.81458L15.4225 10.6415L13.6258 14.1758L15.9927 14.1432H19.5216L18.1875 9.98909Z" fill="#F6851B"/>
<path d="M5.7609 8.81458L1.79092 9.98909L0.46759 14.1432H3.99648L6.35264 14.1758L4.56669 10.6415L5.7609 8.81458Z" fill="#F6851B"/>
<path d="M11.1617 10.8374L11.4091 6.4113L12.5604 3.24677H7.43921L8.56885 6.4113L8.83783 10.8374L8.93466 12.2293V15.6766H11.0434L11.0541 12.2293L11.1617 10.8374Z" fill="#F6851B"/>
</svg>
