<svg width="20" height="20" viewBox="0 0 20 20" fill="none" xmlns="http://www.w3.org/2000/svg">
<path d="M4.17719 10.9243L4.61239 10.7264L10 8.27484L15.8228 10.9243L13.6349 15.6519L8.28628 16.4438L4.26479 11.9009L4.17719 10.9243Z" fill="#133444"/>
<path d="M10 7.03741V13.1446L15.5795 9.68984L10 7.03741Z" fill="#1D4259"/>
<path d="M10 7.03741V13.1446L9.20366 12.6515L4.42764 9.69442L4.42047 9.68984L4.43122 9.68484L9.20366 7.41586L10 7.03741Z" fill="#3E5578"/>
<path d="M10 7.03742V0L4.42048 9.68985L10 7.03742Z" fill="#6DB2D8"/>
<path d="M9.99999 14.53L4.17719 10.9244C4.0591 11.4213 3.9996 11.9315 4 12.4435C4 14.4766 4.92295 16.3797 6.35477 17.6067C8.17599 18.5549 9.11725 17.3083 9.58311 16.1296C9.78229 15.6156 9.92224 15.0786 9.99999 14.53Z" fill="#6DB2D8"/>
<path d="M13.6452 17.6055L13.6309 17.6175C13.6006 17.6434 13.5704 17.6688 13.5397 17.6938L13.5318 17.7005C13.4986 17.7283 13.4651 17.7549 13.4314 17.7805C13.3952 17.8088 13.3586 17.8372 13.3215 17.8639C13.2845 17.8905 13.2475 17.9185 13.21 17.9451C13.1726 17.9718 13.1439 17.9918 13.1109 18.0143L13.0926 18.0268C13.0575 18.0506 13.0225 18.0739 12.9875 18.0964C12.9833 18.0995 12.9789 18.1023 12.9743 18.1048C12.9381 18.1285 12.9019 18.1514 12.8652 18.1735C12.8286 18.1956 12.7856 18.2215 12.7458 18.2444C12.706 18.2673 12.6661 18.2894 12.6263 18.3111L12.6219 18.3136C12.5821 18.3352 12.5423 18.3552 12.5025 18.3769C12.4627 18.3986 12.4229 18.4186 12.3799 18.439C12.3369 18.4594 12.297 18.4807 12.2556 18.4982C12.1724 18.5365 12.088 18.5728 12.0032 18.607C11.9184 18.6412 11.8324 18.6733 11.7456 18.7033C11.7109 18.7154 11.6763 18.727 11.6413 18.7383C11.6062 18.7495 11.5616 18.7633 11.5238 18.775C11.4577 18.7945 11.3912 18.8133 11.3247 18.8304C11.2996 18.8371 11.2741 18.8433 11.2487 18.8491L11.2061 18.8596C11.1706 18.8679 11.1352 18.8758 11.0993 18.8833C11.0635 18.8908 11.034 18.8971 11.001 18.9033C10.968 18.9096 10.9409 18.915 10.9106 18.92C10.8804 18.925 10.8437 18.9312 10.8103 18.9362C10.794 18.9392 10.7776 18.9417 10.7609 18.9437L10.6857 18.9542L10.6438 18.9596C10.6164 18.9633 10.5885 18.9663 10.5606 18.9692C10.5264 18.9729 10.4925 18.9763 10.4583 18.9792C10.4316 18.9813 10.4049 18.9838 10.3787 18.9854C10.3524 18.9871 10.3325 18.9888 10.309 18.9896H10.3058C10.2787 18.9896 10.2516 18.9929 10.2262 18.9938C10.1887 18.9938 10.1509 18.9967 10.1131 18.9975C10.0753 18.9983 10.0374 18.9975 9.99921 18.9975C9.96099 18.9975 9.92316 18.9975 9.88533 18.9975C9.84751 18.9975 9.80968 18.9975 9.77225 18.9938C9.74478 18.9938 9.71771 18.9913 9.69063 18.9896H9.68744C9.66395 18.9896 9.64086 18.9871 9.61776 18.9854C9.59467 18.9838 9.56441 18.9813 9.53813 18.9792C9.50389 18.9763 9.47004 18.9729 9.4358 18.9692C9.40793 18.9663 9.38006 18.9633 9.35259 18.9596L9.31277 18.9542C9.28768 18.9513 9.2626 18.9475 9.23751 18.9437C9.22079 18.9437 9.20447 18.9392 9.18814 18.9362C9.15443 18.9312 9.12098 18.9258 9.0878 18.92C9.05754 18.915 9.02728 18.9092 8.99742 18.9033C8.96756 18.8975 8.93172 18.8904 8.89907 18.8833C8.86642 18.8762 8.8278 18.8679 8.79236 18.8596L8.74976 18.8491C8.72428 18.8433 8.69879 18.8371 8.67371 18.8304C8.60682 18.8133 8.54032 18.7945 8.47463 18.775L8.35518 18.7383C8.32014 18.727 8.2855 18.7154 8.25086 18.7033C8.16405 18.6733 8.07845 18.6412 7.99324 18.607C7.90803 18.5728 7.82243 18.5374 7.74279 18.499C7.70298 18.4799 7.65997 18.4599 7.61856 18.4399C7.57716 18.4198 7.53654 18.3982 7.49593 18.3778C7.45532 18.3573 7.4163 18.3361 7.37648 18.3144L7.3721 18.3119C7.33228 18.2902 7.29247 18.2677 7.25265 18.2452C7.21283 18.2227 7.17302 18.1985 7.1332 18.1744C7.09338 18.1502 7.06193 18.1302 7.02609 18.1056L7.01295 18.0973C6.97791 18.0748 6.94287 18.0514 6.90784 18.0277L6.88952 18.0152C6.85647 17.9926 6.82303 17.9693 6.79038 17.946C6.75773 17.9226 6.71552 17.8922 6.67889 17.8647C6.64226 17.8372 6.60523 17.8088 6.56899 17.7813C6.53276 17.7538 6.5017 17.7284 6.46866 17.7013L6.46069 17.6946C6.43003 17.6696 6.39977 17.6442 6.36951 17.6184L6.35518 17.6063C8.1764 18.5545 9.11767 17.3079 9.58352 16.1292C9.78261 15.6156 9.92256 15.079 10.0004 14.5308C10.0781 15.0792 10.2179 15.6159 10.4169 16.1296C10.8827 17.307 11.824 18.5536 13.6452 17.6055Z" fill="#529BBA"/>
<path d="M10 7.03742V0L15.5795 9.68985L10 7.03742Z" fill="#4B6B9A"/>
<path d="M13.6452 17.6054C15.0766 16.3793 16 14.4766 16 12.4435C16.0004 11.9315 15.9409 11.4213 15.8228 10.9244L10 14.53C10.0778 15.0782 10.2178 15.6148 10.4169 16.1283C10.8827 17.307 11.824 18.5536 13.6452 17.6054Z" fill="#4B6B9A"/>
</svg>
